<?xml version="1.0" encoding="UTF-8"?>
<!DOCTYPE svg PUBLIC "-//W3C//DTD SVG 1.1//EN" "http://www.w3.org/Graphics/SVG/1.1/DTD/svg11.dtd">
<svg xmlns="http://www.w3.org/2000/svg" version="1.1" width="300px" height="163px"
     style="shape-rendering:geometricPrecision; text-rendering:geometricPrecision; image-rendering:optimizeQuality; fill-rule:evenodd; clip-rule:evenodd">
    <g>
        <path fill="#949eb5" fill-opacity="0.961"
              d="M 137.02,0 c 2.32,0 4.64,0 6.96,0 c 1.25,1.63 0.35,5.97 0.82,8.06 c 0.07,6.69 0.26,13.38 0.56,20.06 c 1.29,4.57 0.28,14.93 0.38,20.17 c -0.58,1.22 -5.02,0.64 -6.23,0.71 c -0.89,-0.58 -1.34,-1.43 -1.33,-2.54 c -0.23,-6.51 -0.56,-13.02 -0.98,-19.52 c -0.14,-3.15 -0.23,-6.31 -0.26,-9.47 c 0.08,-0.65 -0.14,-1.14 -0.66,-1.47 c 0.49,-3.42 -1.03,-13.66 0.74,-16 Z M 155,0.75 c 1.21,0.38 2.44,0.46 3.7,0.24 c 1.05,-0.01 1.97,0.32 2.75,0.98 c 1.19,7.26 -2.53,15.52 -3.35,22.89 c -0.2,5.36 -2.37,13.24 -2.45,18.2 c -0.95,0.04 -0.67,2.07 -0.82,2.73 c -0.01,5.18 -1.91,3.98 -6.01,3.65 c -0.78,-0.37 -1.16,-1.01 -1.15,-1.91 c -0.1,-11.23 2.25,-21.47 4.02,-32.44 c 0.27,-1.33 0.44,-2.67 0.53,-4.02 c 0.51,-2.99 1.04,-5.99 1.61,-8.97 c 0.14,-0.67 0.53,-1.12 1.17,-1.35 Z M 199.79,26.79 c -0.4,0.29 -0.68,0.66 -0.87,1.11 c -2.7,3.7 -17.93,24.14 -19.16,26.23 c -0.71,0.13 -1.29,0.48 -1.76,1.06 c -1.58,1.09 -2.97,2.38 -4.18,3.87 c -1.71,0.25 -3.15,-0.26 -4.34,-1.53 c -0.23,-0.17 -0.46,-0.35 -0.7,-0.52 c 1.94,-2.76 4.99,-6.41 6.23,-9.43 c 5.57,-9.97 12.15,-18.62 19.11,-27.75 c 0.63,-0.61 1.37,-0.8 2.2,-0.57 c 2.76,1.51 6.29,4.15 3.47,7.53 Z"/>
    </g>
    <g>
        <path fill="#7d879d" fill-opacity="0.8"
              d="M 102.69,89.95 c 0.29,2.08 0.02,4.06 -0.82,5.95 c -14.22,0.37 -28.44,0.38 -42.66,0.05 c -0.13,-0.31 -0.25,-0.62 -0.38,-0.93 c 0.89,0.17 1.78,0.28 2.69,0.32 c 13.01,0.04 26.02,0.02 39.03,-0.06 c 0.65,-0.02 1.15,-0.3 1.51,-0.84 c 0.12,-1.52 0.33,-3.02 0.63,-4.49 Z"/>
    </g>
    <g>
        <path fill="#58647b" fill-opacity="0.137"
              d="M 59.21,95.95 c 14.22,0.33 28.44,0.32 42.66,-0.05 c -0.03,0.79 -0.47,1.16 -1.32,1.09 c -13.36,0.05 -26.72,0.06 -40.08,0.02 c -0.79,0.04 -1.2,-0.31 -1.26,-1.06 Z"/>
    </g>
    <g>
        <path fill="#5a667d" fill-opacity="0.125"
              d="M 189.31,95.72 c 13.48,0.23 26.96,0.24 40.43,0.03 c 0.22,1.56 -2.29,1.39 -3.24,1.33 c -11.99,-0.05 -23.99,-0.13 -35.98,-0.23 c -0.78,0.01 -1.18,-0.37 -1.21,-1.13 Z"/>
    </g>
    <g>
        <path fill="#7c869c" fill-opacity="0.667"
              d="M 263.9,129.26 c 0.23,0.7 0.37,1.43 0.41,2.17 c -0.04,5.93 -0.02,11.87 0.06,17.81 c -0.51,0.47 -1.13,0.68 -1.85,0.64 c -3.57,0.08 -7.11,-0.08 -10.62,-0.48 c 3.23,-0.01 6.45,-0.05 9.68,-0.12 c 0.64,-0.03 1.14,-0.31 1.49,-0.84 c 0.22,-6.4 0.38,-12.81 0.47,-19.2 c 0.12,0 0.24,0.01 0.36,0.02 Z"/>
    </g>
    <g>
        <path fill="#939db4" fill-opacity="0.941"
              d="M 171.4,13.83 c -0.41,1.92 -0.66,3.87 -0.75,5.84 c -0.55,3.82 -1.36,7.58 -2.42,11.29 c -0.16,0.62 -0.32,1.23 -0.48,1.84 c -1.1,3.36 -2.1,6.74 -2.99,10.15 c -0.52,1.9 -1.1,3.78 -1.74,5.66 c -0.81,2.32 -1.39,4.4 -4.38,3.23 c -2.95,-0.56 -3.02,-2.59 -2.11,-5.06 c 0.23,-0.89 0.4,-1.81 0.5,-2.77 c 0.54,-2.87 1.17,-5.72 1.9,-8.55 c 0.21,-0.87 0.21,-1.74 0.01,-2.61 c 0.34,-0.07 0.59,-0.27 0.74,-0.59 c 0.5,-2.47 1.17,-4.89 2.02,-7.26 c 2.82,-5.66 5.32,-11.44 7.49,-17.37 c 1.18,-2.33 3.57,-2.29 3.18,0.82 c -0.37,1.79 -0.69,3.58 -0.97,5.38 Z"/>
    </g>
    <g>
        <path fill="#616c83" fill-opacity="0.125"
              d="M 263.9,129.26 c 0.12,-0.17 0.23,-0.34 0.34,-0.51 c 0.51,0.85 0.77,1.76 0.79,2.75 c -0.06,5 -0.06,10 0,15.01 c 0.08,0.99 -0.14,1.9 -0.66,2.73 c -0.08,-5.94 -0.1,-11.88 -0.06,-17.81 c -0.04,-0.74 -0.18,-1.47 -0.41,-2.17 Z"/>
    </g>
    <g>
        <path fill="#6b758b" fill-opacity="0.243"
              d="M 144.8,8.06 c 0.73,0.17 1.06,0.64 1.02,1.41 c 0.11,5.34 0.2,10.68 0.27,16.03 c -0.09,0.91 -0.34,1.79 -0.73,2.62 c -0.3,-6.68 -0.49,-13.37 -0.56,-20.06 Z"/>
    </g>
    <g>
        <path fill="#636e84" fill-opacity="0.314"
              d="M 164.76,42.95 c -0.15,1.06 0.23,1.83 1.14,2.31 c -0.43,1.49 -0.81,2.99 -1.12,4.51 c -0.03,-0.03 -0.05,-0.05 -0.07,-0.07 c -0.53,-0.42 -1.09,-0.79 -1.69,-1.09 c 0.64,-1.88 1.22,-3.76 1.74,-5.66 Z"/>
    </g>
    <g>
        <path fill="#939db4" fill-opacity="0.953"
              d="M 173.93,44.93 c -0.41,0.03 -0.72,0.23 -0.92,0.59 c -0.78,2.09 -1.73,4.09 -2.85,6 c -0.94,0.91 -1.63,1.99 -2.07,3.22 c -0.66,0.53 -1.43,0.76 -2.29,0.71 c -3.29,-2 -2.6,-2.79 -1.09,-5.75 c 0.02,0.02 0.04,0.04 0.07,0.07 c 0.31,-1.52 0.69,-3.02 1.12,-4.51 c 4.58,-11.5 8.94,-23.1 13.11,-34.78 c 0.24,-0.76 0.75,-1.16 1.53,-1.21 c 2.11,0.62 6.98,2.07 6.18,5.04 c -4.33,10.19 -8.59,20.4 -12.79,30.62 Z"/>
    </g>
    <g>
        <path fill="#727c93" fill-opacity="0.745"
              d="M 173.93,44.93 c -0.04,0.63 -0.06,3.05 1.08,2.65 c -1.24,3.02 -4.29,6.67 -6.23,9.43 c -0.24,-0.02 -0.48,-0.04 -0.72,-0.07 c -0.82,-0.4 -1.57,-0.9 -2.26,-1.49 c 0.86,0.05 1.63,-0.18 2.29,-0.71 c 0.44,-1.23 1.13,-2.31 2.07,-3.22 c 1.12,-1.91 2.07,-3.91 2.85,-6 c 0.2,-0.36 0.51,-0.56 0.92,-0.59 Z"/>
    </g>
    <g>
        <path fill="#68738a" fill-opacity="0.169"
              d="M 136.28,16 c 0.52,0.33 0.74,0.82 0.66,1.47 c 0.03,3.16 0.12,6.32 0.26,9.47 c -0.41,-0.04 -0.7,-0.25 -0.87,-0.63 c 0.14,-3.1 -1.01,-7.39 -0.05,-10.31 Z"/>
    </g>
    <g>
        <path fill="#6a7489" fill-opacity="0.082"
              d="M 59.91,115.08 c -2.56,-0.14 -5.13,-0.1 -7.68,0.14 c -0.05,-0.42 0.11,-0.73 0.47,-0.95 c 1.15,-0.21 7.36,-1.14 7.21,0.81 Z"/>
    </g>
    <g>
        <path fill="#5f6a80" fill-opacity="0.082"
              d="M 132.78,115.21 c -2.18,-0.28 -4.35,-0.27 -6.53,0.02 c -0.44,-1.85 6.68,-1.95 6.53,-0.02 Z"/>
    </g>
    <g>
        <path fill="#69748c" fill-opacity="0.208"
              d="M 155.65,43.06 c 0.25,0.62 0.71,0.94 1.38,0.95 c -0.1,0.96 -0.27,1.88 -0.5,2.77 c -0.41,-0.6 -0.97,-0.93 -1.7,-0.99 c 0.15,-0.66 -0.13,-2.69 0.82,-2.73 Z"/>
    </g>
    <g>
        <path fill="#767f94" fill-opacity="0.098"
              d="M 171.4,13.83 c 1.17,1.05 0.29,3.26 0.34,4.62 c -0.03,0.72 -0.39,1.13 -1.09,1.22 c 0.09,-1.97 0.34,-3.92 0.75,-5.84 Z"/>
    </g>
    <g>
        <path fill="#6d7890" fill-opacity="0.11"
              d="M 186.82,88.91 c 0.2,1.9 0.29,3.8 0.27,5.71 c -0.37,0.15 -0.66,0.04 -0.86,-0.31 c -0.57,-1.9 -0.37,-3.7 0.59,-5.4 Z"/>
    </g>
    <g>
        <path fill="#59647b" fill-opacity="0.192"
              d="M 179.76,54.13 c 0.09,0.36 0.19,0.73 0.28,1.1 c -0.22,0.69 -0.63,1.27 -1.23,1.72 c -0.65,-0.4 -0.92,-0.99 -0.81,-1.76 c 0.47,-0.58 1.05,-0.93 1.76,-1.06 Z"/>
    </g>
    <g>
        <path fill="#798399" fill-opacity="0.608"
              d="M 178,55.19 c -0.11,0.77 0.16,1.36 0.81,1.76 c -0.92,1.39 -2.11,2.5 -3.56,3.32 c -0.2,-0.73 -0.68,-1.14 -1.43,-1.21 c 1.21,-1.49 2.6,-2.78 4.18,-3.87 Z"/>
    </g>
    <g>
        <path fill="#959eb5" fill-opacity="0.98"
              d="M 127.64,47.27 c 0.25,0.57 0.48,1.14 0.67,1.73 c 1.81,4.66 -5.28,7.39 -7.61,2.68 c -5.82,-11.8 -11.6,-23.61 -17.36,-35.45 c -1.52,-3.3 -1.34,-4.67 2.01,-6.46 c 1.26,-0.62 2.56,-0.81 3.91,-0.55 c 1.15,1.25 2.1,2.64 2.84,4.17 c 5.12,11.32 10.3,22.61 15.54,33.88 Z M 95.74,21.29 c 0.3,0.34 0.61,0.68 0.93,1.02 c 7.06,9.12 14.1,18.27 21.13,27.43 c 1.06,1.31 1.95,2.73 2.67,4.26 c 1.42,3.95 -2.03,6.08 -5.41,4.4 c -1.49,-0.96 -2.78,-2.14 -3.87,-3.55 c -6.98,-8.86 -14.06,-17.64 -21.25,-26.33 c -4.01,-4.76 -2.09,-6.59 2.7,-9.3 c 1.37,-0.44 2.27,1.29 3.1,2.07 Z M 175.25,60.27 c 1.45,-0.82 2.64,-1.93 3.56,-3.32 c 0.6,-0.45 1.01,-1.03 1.23,-1.72 c 4.08,-0.41 25.42,-24.39 28.87,-23.3 c 1.81,1.4 5.6,5.53 3.18,7.68 c -10.13,9.38 -21,17.57 -31.68,26.29 c -2.95,2.33 -6.05,-3.01 -5.16,-5.63 Z M 180.33,69.12 c 1.82,-3.49 32.22,-18.56 37.79,-21.29 c 2.85,-1.08 3.41,4.09 4.58,5.76 c 1.38,3.54 -3.35,3.83 -5.5,4.94 c -10.64,5.5 -21.39,10.77 -32.25,15.81 c -0.63,0.27 -1.26,0.28 -1.89,0.03 c -1.11,-1.65 -2.02,-3.4 -2.73,-5.25 Z M 65.99,55 c 0.51,-1.8 2.06,-8.17 4.97,-6.39 c 12.66,5.58 24.71,12.47 36.8,19.1 c 2.13,1.71 -0.69,5.09 -1.72,6.73 c -1.69,0.71 -7.02,-2.49 -9.01,-2.92 c -9.88,-5.03 -19.69,-10 -29.82,-14.48 c -0.78,-0.45 -1.18,-1.13 -1.22,-2.04 Z M 63.9,66.79 c 1.01,0.17 2.03,0.3 3.05,0.4 c 12.01,2.62 23.78,6.19 35.58,9.88 c 0.89,0.27 1.5,0.81 1.83,1.63 c -0.09,1.24 -0.35,5.29 -1.16,5.97 c -1.15,0.24 -2.31,0.23 -3.46,-0.02 c -12.26,-2.99 -24.52,-6.01 -36.77,-9.07 c -2.34,-0.19 -3.1,-1.36 -2.28,-3.5 c 0.26,-0.97 0.4,-1.97 0.41,-2.98 c 0.53,-1.36 0.85,-3.37 2.8,-2.31 Z M 184.34,78.2 c 3.79,-2.33 10.82,-3.21 15.19,-5.04 c 9,-2.37 18.04,-4.63 27.1,-6.79 c 0.42,-0.06 0.72,0.09 0.93,0.45 c 0.42,1.91 0.88,3.81 1.37,5.7 c 0.43,1.67 -0.2,2.69 -1.89,3.05 c -11.22,2.45 -22.01,5.79 -33.42,7.58 c -1.89,0.15 -5.87,2.43 -7.46,1.13 c -0.79,-1.97 -1.4,-4 -1.82,-6.08 Z M 102.69,89.95 c -0.3,1.47 -0.51,2.97 -0.63,4.49 c -0.36,0.54 -0.86,0.82 -1.51,0.84 c -13.01,0.08 -26.02,0.1 -39.03,0.06 c -0.91,-0.04 -1.8,-0.15 -2.69,-0.32 c -0.08,-2.5 -0.02,-5 0.17,-7.49 c 0.22,-0.79 0.75,-1.18 1.58,-1.16 c 13.3,-0.08 26.6,-0.15 39.9,-0.23 c 1.76,-0.07 2.94,2.36 2.21,3.81 Z M 229.74,95.75 c -13.47,0.21 -26.95,0.2 -40.43,-0.03 c -0.79,-0.26 -1.53,-0.62 -2.22,-1.1 c 0.02,-1.91 -0.07,-3.81 -0.27,-5.71 c -0.91,-1.53 0.56,-2.33 1.89,-2.49 c 13.25,-0.2 26.51,-0.24 39.76,-0.14 c 0.95,0.1 1.51,0.61 1.68,1.53 c 0.05,2.03 0.6,6.18 -0.41,7.94 Z M 286.14,108.93 c -0.08,-0.94 -0.03,-1.87 0.13,-2.8 c 0.49,-7.09 16.64,-7.18 12.48,5.07 c -3.3,5.19 -11.15,3.72 -12.61,-2.27 Z M 0,106.02 c 14.64,0.04 29.85,-3.08 36.75,13.23 c 0.14,0.63 0.31,1.25 0.49,1.87 c 1.31,2.93 0.64,5.51 1.25,8.48 c 0.33,-0.81 0.77,-1.55 1.3,-2.25 c 1.31,-6.79 5.99,-10.37 12.44,-12.13 c 2.55,-0.24 5.12,-0.28 7.68,-0.14 c 10.3,2.52 13.94,10.06 12.91,20.26 c -0.48,0.46 -0.99,0.89 -1.52,1.3 c 0.1,0.98 0.36,1.92 0.77,2.83 c -4.75,15.67 -28.68,13.96 -33.11,-3.01 c -0.16,-1.33 -0.22,-2.67 -0.18,-4.01 c -0.21,-0.55 -0.5,-0.61 -0.87,-0.18 c -2.01,9.54 -6.72,14.28 -16.17,16.66 c -6.08,0.15 -12.16,0.16 -18.24,0.04 c -0.92,0 -1.81,0.12 -2.69,0.35 c -0.27,-0.11 -0.54,-0.21 -0.81,-0.32 c 0,-14.33 0,-28.65 0,-42.98 Z M 100.26,142.24 c -2.82,-0.19 -10.07,-0.83 -12.44,0.24 c -0.76,2.16 -1.6,4.28 -2.51,6.37 c -0.9,0.35 -1.84,0.48 -2.81,0.41 c -3.32,0.07 -6.63,-0.03 -9.92,-0.3 c -0.43,-0.38 -0.55,-0.85 -0.34,-1.39 c 1.69,-5.97 4.48,-11.58 6.45,-17.5 c 0.2,-0.56 0.32,-1.13 0.36,-1.72 c 0.16,-0.25 0.32,-0.5 0.48,-0.75 c 0.26,-0.51 0.45,-1.05 0.56,-1.61 c 1.16,-2.98 2.34,-5.96 3.54,-8.93 c 0.24,-0.64 0.46,-1.28 0.66,-1.93 c 0.87,-2.03 1.88,-7.59 3.46,-8.85 c 3.9,-0.34 7.82,-0.49 11.76,-0.42 c 1.14,0.03 1.99,0.54 2.54,1.51 c 4.1,13.94 10.2,27.22 14.56,40.96 c -0.09,0.17 -0.18,0.34 -0.27,0.52 c -2.59,0.6 -9.85,0.5 -12.8,0.12 c -1.42,-0.26 -2.06,-5.68 -3.28,-6.73 Z M 126.25,115.23 c 2.18,-0.29 4.35,-0.3 6.53,-0.02 c 3.74,2.1 14.9,-1.3 16.66,1.65 c -0.85,10.86 5.43,44.6 -12,45.5 c -7.22,0.23 -17.97,1.1 -20.3,-7.85 c 0.24,-1.12 0.65,-2.17 1.21,-3.16 c 0.91,-0.23 1.82,-0.45 2.74,-0.67 c 2.17,-0.75 4.4,-1.06 6.69,-0.94 c 2.03,5.54 11.27,0.44 8.66,-2.5 c -2.71,1.2 -5.55,1.87 -8.52,2.03 c -1.48,-1.42 -2.7,-0.7 -4.39,-1.35 c -13.05,-7.16 -11.72,-29.01 2.72,-32.69 Z M 13.85,137.5 c 14.09,0.86 14.53,-16.25 4.14,-19.37 c -1.23,-0.09 -4.14,-0.81 -4.89,0.48 c -0.19,5.64 -0.25,11.28 -0.18,16.93 c -0.02,0.81 0.29,1.47 0.93,1.96 Z M 93.65,130.71 c 0.25,1.87 3.03,1.83 3.91,0.5 c -0.06,-0.33 -0.26,-0.51 -0.6,-0.54 c -0.91,-2.27 -1.64,-4.6 -2.19,-6.99 c -0.52,-0.57 -1.02,-0.56 -1.51,0.04 c -0.51,1.94 -0.97,3.89 -1.37,5.86 c -0.03,1.31 0.56,1.68 1.76,1.13 Z M 53.25,126.09 c -0.91,2.73 7.1,2.62 5.31,-0.18 c -0.97,-0.86 -4.41,-0.83 -5.31,0.18 Z M 136.78,130.05 c 0.43,-1.48 0.27,-3.69 -1.81,-2.35 c -5.72,-4.39 -11.44,4.92 -5.07,9.81 c 5.1,1.94 8.44,-2.95 6.88,-7.46 Z M 62.13,137.52 c 2.48,0.31 4.97,0.5 7.46,0.56 c 0.85,-0.72 0.85,-1.45 0.02,-2.18 c -2.19,0.08 -4.39,0.1 -6.58,0.07 c -0.53,-0.14 -1.05,-0.13 -1.57,0.02 c -0.75,0.96 -0.53,1.47 0.67,1.53 Z M 52.87,136.92 c 0.72,3.73 5.69,3.65 7.13,0.49 c -0.59,-1.54 -5.75,-0.71 -7.13,-0.49 Z"/>
    </g>
    <g>
        <path fill="#717b90" fill-opacity="0.776"
              d="M 63.03,135.97 c 2.19,0.03 4.39,0.01 6.58,-0.07 c 0.83,0.73 0.83,1.46 -0.02,2.18 c -2.49,-0.06 -4.98,-0.25 -7.46,-0.56 c 0.18,-0.59 0.48,-1.1 0.9,-1.55 Z"/>
    </g>
    <g>
        <path fill="#737c91" fill-opacity="0.816"
              d="M 134.97,127.7 c 2.08,-1.34 2.24,0.87 1.81,2.35 c -0.56,-0.82 -1.16,-1.61 -1.81,-2.35 Z"/>
    </g>
    <g>
        <path fill="#8b8d94" fill-opacity="0.016"
              d="M 134.97,127.7 c 0.65,0.74 1.25,1.53 1.81,2.35 c 1.56,4.51 -1.78,9.4 -6.88,7.46 c -6.37,-4.89 -0.65,-14.2 5.07,-9.81 Z"/>
    </g>
    <g>
        <path fill="#90969d" fill-opacity="0.086"
              d="M 96.96,130.67 c -1.1,0.12 -2.2,0.13 -3.31,0.04 c -1.2,0.55 -1.79,0.18 -1.76,-1.13 c 0.4,-1.97 0.86,-3.92 1.37,-5.86 c 0.49,-0.6 0.99,-0.61 1.51,-0.04 c 0.55,2.39 1.28,4.72 2.19,6.99 Z"/>
    </g>
    <g>
        <path fill="#b1b2b6" fill-opacity="0.02"
              d="M 17.99,118.13 c 10.39,3.12 9.95,20.23 -4.14,19.37 c 0.1,-5.98 0.17,-11.95 0.23,-17.91 c 1.16,-1.74 4.3,0.71 3.91,-1.46 Z"/>
    </g>
    <g>
        <path fill="#707b8f" fill-opacity="0.306"
              d="M 0.81,149.32 c 0.88,-0.23 1.77,-0.35 2.69,-0.35 c 6.08,0.12 12.16,0.11 18.24,-0.04 c 0.03,0.36 -0.12,0.62 -0.46,0.78 c -5.92,0.32 -11.85,0.42 -17.79,0.3 c -0.98,0.06 -1.87,-0.17 -2.68,-0.69 Z"/>
    </g>
    <g>
        <path fill="#717c93" fill-opacity="0.157"
              d="M 100.26,142.24 c -2.04,1.23 -10.25,0.99 -12.44,0.24 c 2.37,-1.07 9.62,-0.43 12.44,-0.24 Z"/>
    </g>
    <g>
        <path fill="#697387" fill-opacity="0.808"
              d="M 93.65,130.71 c 1.11,0.09 2.21,0.08 3.31,-0.04 c 0.34,0.03 0.54,0.21 0.6,0.54 c -0.88,1.33 -3.66,1.37 -3.91,-0.5 Z"/>
    </g>
    <g>
        <path fill="#6a748c" fill-opacity="0.153"
              d="M 152.22,11.07 c -0.09,1.35 -0.26,2.69 -0.53,4.02 c -0.84,-0.96 -1.25,-3.93 0.53,-4.02 Z"/>
    </g>
    <g>
        <path fill="#586378" fill-opacity="0.157"
              d="M 155,0 c 1.33,0 2.67,0 4.01,0 c -0.11,0.33 -0.21,0.66 -0.31,0.99 c -1.26,0.22 -2.49,0.14 -3.7,-0.24 c 0,-0.25 0,-0.5 0,-0.75 Z"/>
    </g>
    <g>
        <path fill="#60697d" fill-opacity="0.157"
              d="M 286.27,106.13 c -0.16,0.93 -0.21,1.86 -0.13,2.8 c -2.07,-0.4 -1.24,-3.13 0.13,-2.8 Z"/>
    </g>
    <g>
        <path fill="#616a80" fill-opacity="0.141"
              d="M 61.1,69.1 c -0.01,1.01 -0.15,2.01 -0.41,2.98 c -0.61,-0.78 -0.96,-2.81 0.41,-2.98 Z"/>
    </g>
    <g>
        <path fill="#687189" fill-opacity="0.153"
              d="M 63.9,66.79 c 0.86,-0.82 2.89,-1.26 3.05,0.4 c -1.02,-0.1 -2.04,-0.23 -3.05,-0.4 Z"/>
    </g>
    <g>
        <path fill="#7a8398" fill-opacity="0.839"
              d="M 63.03,135.97 c -0.42,0.45 -0.72,0.96 -0.9,1.55 c -1.2,-0.06 -1.42,-0.57 -0.67,-1.53 c 0.52,-0.15 1.04,-0.16 1.57,-0.02 Z"/>
    </g>
    <g>
        <path fill="#6b768c" fill-opacity="0.169"
              d="M 121.09,150.68 c -0.92,0.22 -1.83,0.44 -2.74,0.67 c -0.29,-1.91 1.8,-1.38 2.74,-0.67 Z"/>
    </g>
    <g>
        <path fill="#636b85" fill-opacity="0.165"
              d="M 84.29,115.13 c -0.2,0.65 -0.42,1.29 -0.66,1.93 c -0.4,-0.7 -0.61,-2.12 0.66,-1.93 Z"/>
    </g>
    <g>
        <path fill="#5e697f" fill-opacity="0.133"
              d="M 36.75,119.25 c 1.27,-0.22 1.13,1.23 0.49,1.87 c -0.18,-0.62 -0.35,-1.24 -0.49,-1.87 Z"/>
    </g>
    <g>
        <path fill="#566177" fill-opacity="0.176"
              d="M 79.05,128.35 c -0.04,0.59 -0.16,1.16 -0.36,1.72 c -0.26,-0.58 -0.86,-1.94 0.36,-1.72 Z"/>
    </g>
    <g>
        <path fill="#616c82" fill-opacity="0.169"
              d="M 168.23,30.96 c 0.87,0.89 0.71,1.5 -0.48,1.84 c 0.16,-0.61 0.32,-1.22 0.48,-1.84 Z"/>
    </g>
    <g>
        <path fill="#56647a" fill-opacity="0.188"
              d="M 199.79,26.79 c 0.01,0.61 -0.28,0.98 -0.87,1.11 c 0.19,-0.45 0.47,-0.82 0.87,-1.11 Z M 168.06,56.94 c 0.24,0.03 0.48,0.05 0.72,0.07 c 0.24,0.17 0.47,0.35 0.7,0.52 c -0.63,0.15 -1.11,-0.04 -1.42,-0.59 Z"/>
    </g>
    <g>
        <path fill="#555e76" fill-opacity="0.208"
              d="M 176.72,116.71 c 0.52,-0.24 0.91,-0.11 1.17,0.38 c -0.39,-0.11 -0.78,-0.24 -1.17,-0.38 Z"/>
    </g>
    <g>
        <path fill="#606981" fill-opacity="0.184"
              d="M 188.1,121.1 c -0.12,0.52 -0.3,1.01 -0.55,1.48 c -0.23,-0.67 -0.04,-1.17 0.55,-1.48 Z"/>
    </g>
    <g>
        <path fill="#626a7f" fill-opacity="0.188"
              d="M 80.09,125.99 c -0.11,0.56 -0.3,1.1 -0.56,1.61 c -0.22,-0.7 -0.03,-1.24 0.56,-1.61 Z"/>
    </g>
    <g>
        <path fill="#576176" fill-opacity="0.192"
              d="M 95.74,21.29 c 0.65,0.02 0.96,0.36 0.93,1.02 c -0.32,-0.34 -0.63,-0.68 -0.93,-1.02 Z"/>
    </g>
    <g>
        <path fill="#96a0b7" fill-opacity="0.98"
              d="M 129.2,48.08 c -0.25,-0.64 -0.45,-1.3 -0.59,-1.97 c -2.64,-11.24 -5.43,-22.44 -8.35,-33.62 c -0.13,-1.57 -2.2,-7.32 -0.55,-8.28 c 2.12,-0.76 4.3,-1.29 6.53,-1.6 c 0.39,0.18 0.61,0.48 0.66,0.91 c 3.04,11.97 5.99,23.96 8.85,35.97 c 1.17,2.93 1.86,6.74 1.07,9.82 c -1.81,1.31 -3.8,1.73 -5.96,1.27 c -0.72,-0.72 -1.28,-1.55 -1.66,-2.5 Z M 234.1,117.93 c 1.11,1.68 1.38,3.48 0.8,5.41 c -0.59,0.72 -0.97,1.52 -1.16,2.43 c -1.58,0.4 -4.33,-0.33 -5.45,1.01 c -0.15,3.27 -0.1,6.53 0.15,9.79 c 0.84,3.17 3.83,0.59 5.35,2.12 c 0.25,1.34 0.71,2.6 1.37,3.78 c 0.13,1.91 0.12,3.82 -0.03,5.73 c -1.11,-0.29 -1.01,0.98 -1.89,1.27 c -19.43,2.6 -16.74,-8.64 -17.54,-22.72 c -0.89,-0.57 -1.88,-0.9 -2.97,-0.99 c -0.17,-0.19 -0.33,-0.38 -0.49,-0.56 c -0.08,-0.84 0.05,-1.64 0.38,-2.4 c -0.27,-0.43 -0.47,-0.88 -0.59,-1.37 c 0.64,-1.27 0.28,-1.58 -1.07,-0.91 c -0.56,1.53 -0.99,3.09 -1.27,4.69 c -1.13,1.11 -2.46,1.6 -4,1.47 c -1.98,-0.47 -4.31,-2.33 -6.28,-1.87 c -0.53,0.71 -0.37,1.24 0.49,1.57 c 2.52,0.93 5.11,1.71 7.76,2.33 c 3.57,2.42 5.33,4.29 5.91,8.86 c 0.05,17.83 -27.2,13.35 -27.64,5.95 c 0.68,-1.73 2.07,-3.46 0.88,-5.34 c 2.76,-0.47 5.52,-0.92 8.29,-1.35 c 0.27,1.01 2.42,2.78 3.47,3.09 c 2.7,0.5 2.79,-1.73 0.49,-2.6 c -1.37,-0.43 -2.73,-0.88 -4.09,-1.35 c -1.59,-0.52 -3.15,-1.11 -4.69,-1.78 c -0.92,-0.23 -2.45,-3.95 -3.11,-4.84 c -0.28,-2.09 -0.26,-4.17 0.08,-6.26 c 0.1,-0.17 0.2,-0.34 0.3,-0.51 c 0.25,-0.47 0.43,-0.96 0.55,-1.48 c 1.42,-4.32 4.44,-4.27 8.08,-6.07 c 2.55,-0.06 5.1,-0.02 7.65,0.11 c 2.71,0.7 5.25,1.73 7.62,3.1 c 1.87,-2.56 -0.59,-2.93 3.97,-3.42 c 1.44,-1.76 -0.04,-4.89 1.27,-6.66 c 3.51,-0.73 7.05,-1.17 10.64,-1.32 c 0.53,0.09 0.8,0.41 0.8,0.97 c 0,2.28 0.17,4.54 0.53,6.77 c 2.11,1.76 5.64,-0.59 5.44,3.35 Z M 176.72,116.71 c 0.39,0.14 0.78,0.27 1.17,0.38 c 1.87,0.22 6.52,5.91 7.21,7.91 c 1.78,3.68 1.13,8.66 0.76,12.61 c -9.01,24.61 -45.39,8.4 -32.1,-14.3 c 3.98,-8.46 15.04,-10.17 22.96,-6.6 Z M 240.44,115.29 c 0.21,0.47 0.59,0.75 1.11,0.84 c 1.06,-0.19 2.08,-0.51 3.06,-0.97 c 1.21,0.15 3.66,-0.24 3.65,1.6 c 0.15,2.25 0.34,4.5 0.58,6.74 c -0.24,1.66 -0.41,3.33 -0.51,5 c -0.04,6.57 0.01,13.13 0.13,19.69 c -0.26,1.62 -5.71,0.85 -6.97,1.15 c -1.75,0.12 -3.39,-0.22 -4.93,-1.02 c -0.53,-1.21 -0.77,-2.48 -0.72,-3.81 c 0.16,-8.01 0.17,-16.01 0.02,-24.02 c -0.04,-1.43 0.21,-2.82 0.76,-4.14 c 0.67,-1.56 2.49,-0.96 3.82,-1.06 Z M 268.22,115.13 c 1.9,-0.12 3.81,-0.14 5.71,-0.07 c 7.05,1.84 8.74,5.61 9.92,12.17 c -0.03,6.91 0.08,13.82 0.36,20.71 c -0.36,0.67 -0.92,1.06 -1.68,1.16 c -3.01,0.12 -6.03,0.17 -9.05,0.13 c -1.13,0.06 -1.91,-0.4 -2.36,-1.38 c 0.05,-6.31 -0.04,-12.62 -0.27,-18.93 c -0.44,-0.7 -0.95,-1.35 -1.52,-1.96 c -2.15,-0.79 -3.85,-0.19 -5.09,1.79 c -0.11,0.17 -0.22,0.34 -0.34,0.51 c -0.12,-0.01 -0.24,-0.02 -0.36,-0.02 c -0.09,6.39 -0.25,12.8 -0.47,19.2 c -0.35,0.53 -0.85,0.81 -1.49,0.84 c -3.23,0.07 -6.45,0.11 -9.68,0.12 c -0.37,-1.27 -0.53,-2.57 -0.49,-3.89 c 0.03,-9.58 0.03,-19.15 0.01,-28.72 c 0.86,-2.16 11.14,-0.91 13.18,-0.2 c 1.25,-0.35 2.46,-0.84 3.62,-1.46 Z M 286.45,132 c -0.03,-5.28 0.1,-10.53 0.36,-15.76 c 1.85,-0.54 3.76,-0.91 5.71,-1.12 c 1.68,0.95 5.85,-0.66 6.64,1.38 c 0.21,10 0.27,20 0.19,30.02 c 0.13,1 -0.15,1.85 -0.85,2.55 c -3.34,0.16 -6.68,0.21 -10.03,0.14 c -1.32,0.07 -1.99,-0.53 -2.02,-1.81 c 0.03,-5.13 0.03,-10.27 0,-15.4 Z M 163.73,132 c -0.39,7.05 8.53,9.04 10.17,1.49 c 0.7,-8.7 -9.77,-9.75 -10.17,-1.49 Z"/>
    </g>
    <g>
        <path fill="#657188" fill-opacity="0.216"
              d="M 233.74,125.77 c 0.36,2.14 -4.45,0.95 -5.45,1.01 c 1.12,-1.34 3.87,-0.61 5.45,-1.01 Z"/>
    </g>
    <g>
        <path fill="#646e84" fill-opacity="0.09"
              d="M 273.93,115.06 c -1.9,-0.07 -3.81,-0.05 -5.71,0.07 c -0.33,-1.66 6.01,-1.77 5.71,-0.07 Z"/>
    </g>
    <g>
        <path fill="#667187" fill-opacity="0.086"
              d="M 203.83,115.14 c -2.55,-0.13 -5.1,-0.17 -7.65,-0.11 c 0.17,-0.67 0.61,-1.01 1.32,-1.02 c 1.3,0.11 6.03,-0.76 6.33,1.13 Z"/>
    </g>
    <g>
        <path fill="#939db3" fill-opacity="0.969"
              d="M 110.02,56.54 c 1.3,0.96 2.4,2.1 3.31,3.42 c 1.03,2.48 0.42,4.47 -1.83,5.98 c -0.7,0.44 -1.4,0.45 -2.11,0.03 c -10.91,-8.35 -21.82,-16.7 -32.73,-25.06 c -1.98,-1.73 -1.33,-4.01 -0.06,-5.96 c 1.36,-2.18 3.14,-2.7 5.35,-1.56 c 9.49,7.55 18.85,15.27 28.07,23.15 Z M 248.92,106.11 c 0.02,1.21 0.03,2.42 0.03,3.63 c -0.98,2.48 -3.81,2.95 -4.34,5.42 c -0.98,0.46 -2,0.78 -3.06,0.97 c -0.52,-0.09 -0.9,-0.37 -1.11,-0.84 c -0.19,-0.52 -0.43,-1.01 -0.71,-1.47 c -11.73,-8.27 4.85,-19.28 9.19,-7.71 Z"/>
    </g>
    <g>
        <path fill="#0e1013" fill-opacity="0.031"
              d="M 111.19,54.85 c 1.09,1.41 2.38,2.59 3.87,3.55 c -0.55,0.55 -1.13,1.06 -1.73,1.56 c -0.91,-1.32 -2.01,-2.46 -3.31,-3.42 c 0.38,-0.57 0.76,-1.14 1.17,-1.69 Z M 236.62,116.35 c -0.55,1.32 -0.8,2.71 -0.76,4.14 c 0.15,8.01 0.14,16.01 -0.02,24.02 c -0.05,1.33 0.19,2.6 0.72,3.81 c -0.55,0.32 -1.03,0.28 -1.43,-0.12 c 0.15,-1.91 0.16,-3.82 0.03,-5.73 c -0.66,-1.18 -1.12,-2.44 -1.37,-3.78 c -1.52,-1.53 -4.51,1.05 -5.35,-2.12 c -0.25,-3.26 -0.3,-6.52 -0.15,-9.79 c 1,-0.06 5.81,1.13 5.45,-1.01 c 0.19,-0.91 0.57,-1.71 1.16,-2.43 c 0.58,-1.93 0.31,-3.73 -0.8,-5.41 c 1.61,0.14 0.32,-1.87 2.52,-1.58 Z M 187.25,123.09 c -0.34,2.09 -0.36,4.17 -0.08,6.26 c 0.66,0.89 2.19,4.61 3.11,4.84 c 1.54,0.67 3.1,1.26 4.69,1.78 c 0.04,0.28 0.09,0.57 0.13,0.86 c -2.77,0.43 -5.53,0.88 -8.29,1.35 c -0.32,-0.19 -0.63,-0.38 -0.95,-0.57 c 0.37,-3.95 1.02,-8.93 -0.76,-12.61 c 1.24,-0.46 0.72,-2.12 2.15,-1.91 Z"/>
    </g>
    <g>
        <path fill="#383f4e" fill-opacity="0.129"
              d="M 158.1,24.86 c 0.43,0.46 0.68,0.99 0.77,1.61 c -0.25,2.14 -0.23,4.26 0.07,6.38 c 0.2,0.87 0.2,1.74 -0.01,2.61 c -0.73,2.83 -1.36,5.68 -1.9,8.55 c -0.67,-0.01 -1.13,-0.33 -1.38,-0.95 c 0.08,-4.96 2.25,-12.84 2.45,-18.2 Z"/>
    </g>
    <g>
        <path fill="#54575e" fill-opacity="0.075"
              d="M 127.78,149.74 c 0.05,-0.16 0.1,-0.32 0.14,-0.47 c 2.97,-0.16 5.81,-0.83 8.52,-2.03 c 2.61,2.94 -6.63,8.04 -8.66,2.5 Z"/>
    </g>
    <g>
        <path fill="#4f5a70" fill-opacity="0.169"
              d="M 270.85,128.92 c 0.23,6.31 0.32,12.62 0.27,18.93 c -0.42,0.11 -0.73,-0.04 -0.92,-0.44 c -0.19,-5.3 -0.26,-10.61 -0.24,-15.92 c 0,-0.96 0.3,-1.82 0.89,-2.57 Z"/>
    </g>
    <g>
        <path fill="#48516b" fill-opacity="0.196"
              d="M 17.99,118.13 c 0.39,2.17 -2.75,-0.28 -3.91,1.46 c -0.06,5.96 -0.13,11.93 -0.23,17.91 c -0.64,-0.49 -0.95,-1.15 -0.93,-1.96 c -0.07,-5.65 -0.01,-11.29 0.18,-16.93 c 0.75,-1.29 3.66,-0.57 4.89,-0.48 Z"/>
    </g>
    <g>
        <path fill="#2d3746" fill-opacity="0.043"
              d="M 128.61,46.11 c 0.14,0.67 0.34,1.33 0.59,1.97 c -0.22,0.38 -0.51,0.69 -0.89,0.92 c -0.19,-0.59 -0.42,-1.16 -0.67,-1.73 c 0.33,-0.39 0.65,-0.77 0.97,-1.16 Z"/>
    </g>
    <g>
        <path fill="#4a4b52" fill-opacity="0.016"
              d="M 163.73,132 c 0.4,-8.26 10.87,-7.21 10.17,1.49 c -1.64,7.55 -10.56,5.56 -10.17,-1.49 Z"/>
    </g>
    <g>
        <path fill="#465166" fill-opacity="0.118"
              d="M 283.85,127.23 c 0.91,0.44 1.26,1.19 1.08,2.25 c 0.08,5.69 0.09,11.37 0.02,17.05 c 0.09,0.69 -0.16,1.15 -0.74,1.41 c -0.28,-6.89 -0.39,-13.8 -0.36,-20.71 Z"/>
    </g>
    <g>
        <path fill="#485169" fill-opacity="0.106"
              d="M 248.92,106.11 c 1.87,0.07 1.32,3.8 0.03,3.63 c 0,-1.21 -0.01,-2.42 -0.03,-3.63 Z"/>
    </g>
</svg>
