<?xml version="1.0" standalone="no"?>
<!DOCTYPE svg PUBLIC "-//W3C//DTD SVG 20010904//EN"
        "http://www.w3.org/TR/2001/REC-SVG-20010904/DTD/svg10.dtd">
<svg version="1.0" xmlns="http://www.w3.org/2000/svg"
     width="128.000000pt" height="130.000000pt" viewBox="0 0 128.000000 130.000000"
     preserveAspectRatio="xMidYMid meet">

    <g transform="translate(0.000000,130.000000) scale(0.100000,-0.100000)"
       fill="#E7EEFCB2" stroke="none">
        <path d="M490 1284 c-213 -45 -384 -206 -457 -429 -21 -65 -26 -100 -27 -190
-1 -128 16 -203 71 -315 52 -106 179 -234 283 -283 137 -66 283 -84 420 -51
120 28 206 77 300 173 140 141 195 277 194 476 -1 128 -28 226 -91 335 -134
229 -415 344 -693 284z m324 -143 c76 -27 144 -71 194 -125 68 -74 131 -198
111 -222 -6 -7 -59 -9 -165 -6 l-156 5 22 -43 c29 -58 30 -134 0 -194 -73
-151 -287 -151 -360 0 -30 60 -29 136 0 194 l22 43 -156 -5 c-106 -3 -159 -1
-165 6 -20 24 43 148 111 222 66 72 155 120 263 144 64 14 212 4 279 -19z
m-529 -552 c162 -30 220 -118 241 -366 l7 -82 -34 9 c-124 36 -250 144 -312
268 -36 72 -55 151 -42 171 8 14 65 14 140 0z m848 -43 c-1 -34 -13 -73 -39
-125 -62 -127 -187 -235 -313 -271 l-34 -9 7 82 c16 190 58 291 141 335 43 23
132 41 190 39 l50 -2 -2 -49z"/>
        <path d="M587 806 c-71 -26 -107 -78 -107 -156 0 -127 137 -207 244 -141 101
63 101 224 0 283 -43 24 -94 30 -137 14z"/>
    </g>
</svg>
