<?xml version="1.0" standalone="no"?>
<!DOCTYPE svg PUBLIC "-//W3C//DTD SVG 20010904//EN"
        "http://www.w3.org/TR/2001/REC-SVG-20010904/DTD/svg10.dtd">
<svg version="1.0" xmlns="http://www.w3.org/2000/svg" width="256.000000pt" height="256.000000pt"
     viewBox="0 0 256.000000 256.000000">
    <g transform="translate(0.000000,256.000000) scale(0.100000,-0.100000)" fill="#A9B1BF" stroke="none">
        <path d="M1100 2550 c-58 -4 -134 -14 -170 -20 -94 -18 -225 -16 -291 3 l-57
            17 -108 -44 c-195 -80 -181 -70 -188 -117 -9 -56 -27 -88 -112 -198 l-73 -95 60 -64 c101 -107 100 -103 51 -300 -92 -371 -104 -657 -37 -857 32 -95 116
            -240 193 -334 156 -187 331 -297 577 -361 142 -37 200 -63 279 -127 l60 -48 30 29 c51 48 140 102 197 118 30 8 90 25 134 37 302 84 539 279 688 569 73
            141 89 215 90 412 1 195 -16 321 -75 562 -48 197 -49 195 48 298 l62 66 -79 104 c-72 96 -91 132 -114 226 -2 5 -67 36 -146 68 l-143 58 -49 -16 c-62 -20
            -191 -21 -323 -2 -128 19 -370 27 -504 16z m147 -235 l52 -100 1 103 0 102 48 -1 c26 0 88 -4 137 -9 50 -4 151 -10 225 -14 74 -4 162 -10 195 -14 l60 -7 3
            -38 c4 -43 3 -43 95 -51 l67 -7 0 31 c0 28 3 30 35 30 l35 0 0 -80 0 -80 -35 0 c-30 0 -35 3 -35 24 0 27 -28 36 -111 36 -48 0 -49 -1 -49 -30 0 -28 -3 -30
            -35 -30 l-35 0 0 69 c0 79 -2 81 -86 81 l-54 0 0 -75 0 -75 -35 0 -35 0 0 81 0 80 -47 -3 c-43 -3 -48 -6 -51 -28 -2 -14 -9 -31 -15 -39 -9 -11 -9 -15 1
            -18 6 -3 12 -20 12 -39 0 -33 -1 -34 -39 -34 -33 0 -40 4 -43 23 -3 20 -9 22 -65 25 -62 3 -63 2 -63 -23 0 -25 -1 -25 -79 -25 -61 0 -80 3 -85 15 -4 12
            -23 15 -81 15 -58 0 -77 -3 -81 -15 -5 -13 -40 -15 -229 -15 -189 0 -224 2 -229 15 -4 11 -22 15 -74 15 -50 0 -73 -4 -82 -15 -11 -14 -90 -22 -90 -10 0
            14 114 166 130 175 10 6 36 10 57 10 38 0 41 -3 93 -82 l55 -83 3 92 3 91 37 6 c20 3 78 8 128 12 77 5 93 3 107 -11 19 -19 23 -80 6 -91 -8 -5 -6 -10 5
            -16 9 -5 16 -19 16 -31 1 -19 3 -19 16 8 9 17 32 58 51 93 l35 63 51 -3 52 -3 52 -100z m1137 -212 c4 -10 -2 -25 -15 -40 l-22 -23 -1070 0 c-982 0 -1072 1
            -1089 17 -21 19 -23 34 -6 51 9 9 268 12 1104 12 1007 0 1092 -1 1098 -17z m-94 -130 c-37 -58 -38 -97 -7 -216 18 -64 21 -90 13 -97 -11 -8 -55 -29 -203
            -95 l-52 -24 -169 198 -169 197 -264 -26 c-159 -15 -262 -29 -259 -35 3 -6 72 -41 155 -78 82 -37 153 -71 157 -75 5 -5 -28 -24 -73 -42 -44 -19 -82 -37 -85
            -41 -2 -4 33 -12 79 -19 45 -6 120 -18 166 -26 l84 -14 44 37 c87 74 79 74 112 2 20 -45 26 -66 18 -70 -7 -4 -95 -28 -197 -54 -102 -26 -186 -48 -187
            -49 -1 0 5 -30 12 -66 8 -36 14 -72 15 -80 0 -8 -28 16 -62 54 l-62 69 -37 -42 c-35 -39 -40 -41 -92 -41 -31 0 -58 -3 -60 -7 -3 -5 -1 -35 4 -67 6 -33 9
            -69 7 -80 -3 -19 -20 0 -84 92 -1 2 -73 -46 -159 -108 -86 -61 -163 -114 -170 -116 -9 -4 -25 15 -45 56 -17 34 -29 64 -27 66 2 3 37 10 76 17 l72 12 88 140
            c49 77 85 141 81 143 -4 1 -42 -16 -84 -39 -42 -23 -78 -40 -80 -38 -2 2 21 82 50 178 29 96 51 177 49 180 -5 4 -69 -55 -278 -258 l-108 -105 37 -242 c20
            -134 34 -249 31 -256 -4 -13 -313 -158 -336 -158 -17 0 -60 93 -83 178 -15 60 -20 109 -20 222 -1 174 19 323 73 543 22 87 39 174 39 194 0 22 -11 54 -30 84
            l-30 49 1040 0 1040 0 -30 -47z m35 -385 c59 -268 65 -549 14 -702 -58 -172 -213 -382 -369 -495 -125 -92 -238 -142 -408 -182 -91 -21 -162 -53 -234 -106
            l-48 -35 -49 36 c-68 50 -161 90 -256 111 -191 41 -354 132 -496 274 -75 75 -177 207 -167 216 6 6 803 367 822 373 15 4 12 -4 -13 -39 -20 -27 -42 -46
            -58 -49 -26 -5 -26 -5 13 -32 l39 -26 57 56 c44 42 61 53 69 45 19 -19 -74 -127 -116 -135 -17 -3 -14 -7 18 -27 l39 -24 52 52 c52 52 69 60 82 40 8 -14
            -95 -119 -118 -119 -10 0 -18 -4 -18 -9 0 -12 49 -51 64 -51 7 0 36 25 66 55 52 52 70 60 70 29 0 -26 -83 -114 -107 -114 -32 0 -28 -11 11 -37 l33 -21 54
            54 c29 30 56 54 60 54 4 0 4 -39 1 -87 l-5 -88 -56 -66 c-52 -61 -61 -67 -133 -91 l-77 -24 -93 60 c-51 34 -93 68 -93 76 0 51 -29 292 -36 296 -8 4 -130
            -357 -123 -365 1 -2 22 4 46 13 l43 17 65 -62 c121 -115 176 -157 202 -153 125 18 228 39 228 46 0 4 6 8 13 8 6 0 54 48 106 105 l93 105 2 148 1 147 80
            10 80 10 3 45 c3 43 3 44 -16 27 -14 -13 -37 -17 -95 -17 -70 0 -77 2 -77 20 0 17 7 20 49 20 27 0 63 3 80 6 28 6 31 10 31 45 0 37 -12 51 -25 29 -3 -5
            -42 -10 -86 -10 -72 0 -79 2 -79 20 0 18 7 20 69 20 93 0 101 4 101 51 0 39 -7 47 -25 30 -6 -5 -46 -11 -90 -13 -67 -2 -80 0 -83 13 -3 18 40 29 120 29
            l47 0 9 43 c10 47 7 56 -10 39 -7 -7 -38 -12 -72 -11 -44 0 -57 3 -46 10 25 17 714 328 727 329 7 0 15 -10 18 -22z"/>
        <path d="M798 2342 c-66 -5 -41 -22 32 -22 56 0 70 3 70 15 0 12 -9 15 -32 13 -18 -2 -50 -4 -70 -6z"/>
        <path d="M1117 2315 c-9 -20 -17 -38 -17 -40 0 -3 16 -5 35 -5 19 0 35 5 35 10 0 11 -28 70 -33 70 -2 0 -11 -16 -20 -35z"/>
        <path d="M1380 2320 l0 -31 68 3 c64 3 67 4 67 28 0 24 -3 25 -67 28 l-68 3 0 -31z"/>
        <path d="M496 2285 c-22 -33 -21 -35 17 -28 41 8 41 7 25 32 -16 27 -22 26 -42 -4z"/>
        <path d="M760 2245 c0 -13 12 -15 72 -13 46 2 73 7 76 16 3 9 -16 12 -72 12 -62 0 -76 -3 -76 -15z"/>
        <path d="M190 2092 c0 -5 8 -16 18 -25 17 -15 55 -17 345 -17 l327 0 0 25 0 25 -345 0 c-190 0 -345 -4 -345 -8z"/>
        <path d="M1680 2075 l0 -25 328 0 c306 0 330 1 345 18 10 10 17 22 17 25 0 4 -155 7 -345 7 l-345 0 0 -25z"/>
    </g>
</svg>
