<?xml version="1.0" encoding="UTF-8"?>
<!DOCTYPE svg PUBLIC "-//W3C//DTD SVG 1.1//EN" "http://www.w3.org/Graphics/SVG/1.1/DTD/svg11.dtd">
<svg xmlns="http://www.w3.org/2000/svg" version="1.1" width="256px" height="256px" style="fill-rule:evenodd; clip-rule:evenodd">
    <g>
        <path fill="#A9B1BF" d="M 255.5,144.5 C 255.5,145.833 255.5,147.167 255.5,148.5C 255.167,148.5 254.833,148.5 254.5,148.5C 254.167,147.167 253.833,147.167 253.5,148.5C 246.957,153.437 239.957,158.604 232.5,164C 222.786,164.807 213.119,164.641 203.5,163.5C 202.478,163.855 201.811,164.522 201.5,165.5C 199.737,170.584 197.737,176.084 195.5,182C 195.645,182.772 195.978,183.439 196.5,184C 194.922,186.482 193.589,189.149 192.5,192C 182.483,192.832 172.483,192.666 162.5,191.5C 163.246,190.264 163.579,188.93 163.5,187.5C 166.082,180.394 168.748,172.894 171.5,165C 170.833,164.667 170.167,164.333 169.5,164C 150.167,163.333 130.833,163.333 111.5,164C 110.429,164.852 109.429,165.685 108.5,166.5C 105.527,167.81 103.193,169.81 101.5,172.5C 101.167,171.167 100.833,171.167 100.5,172.5C 99.1283,173.512 97.795,174.512 96.5,175.5C 89.1071,181.124 82.1071,186.624 75.5,192C 63.5046,192.5 51.5046,192.667 39.5,192.5C 39.5041,190.158 40.3375,188.158 42,186.5C 42.3333,186.833 42.6667,187.167 43,187.5C 44.7134,186.122 46.0467,184.455 47,182.5C 47.3333,182.833 47.6667,183.167 48,183.5C 48.4419,181.321 49.4419,180.655 51,181.5C 52.5737,180.016 53.907,178.349 55,176.5C 55.3333,176.833 55.6667,177.167 56,177.5C 59.4731,174.939 62.4731,171.939 65,168.5C 65.3333,168.833 65.6667,169.167 66,169.5C 67.3968,167.93 68.8968,166.596 70.5,165.5C 71.2891,165.217 71.9558,164.717 72.5,164C 47.9997,163.665 23.6664,163.498 -0.5,163.5C -0.5,162.833 -0.5,162.167 -0.5,161.5C 5.55475,156.865 11.8881,151.865 18.5,146.5C 33.103,135.786 47.103,124.953 60.5,114C 63.0444,112.29 65.7111,110.79 68.5,109.5C 68.5929,112.361 68.5929,115.194 68.5,118C 65.8909,123.06 63.5576,128.726 61.5,135C 61.6448,135.772 61.9781,136.439 62.5,137C 60.4382,139.279 59.1049,141.612 58.5,144C 71.8333,144.667 85.1667,144.667 98.5,144C 99.4158,143.722 100.082,143.222 100.5,142.5C 103.751,141.087 106.251,138.753 108,135.5C 108.333,135.833 108.667,136.167 109,136.5C 112.117,133.543 115.117,131.21 118,129.5C 120.926,126.56 124.092,124.06 127.5,122C 128.701,121.097 129.535,119.931 130,118.5C 130.333,118.833 130.667,119.167 131,119.5C 134.473,116.939 137.473,113.939 140,110.5C 140.333,110.833 140.667,111.167 141,111.5C 143.806,109.605 146.14,107.272 148,104.5C 149.943,104.959 151.276,103.959 152,101.5C 152.333,101.833 152.667,102.167 153,102.5C 160.654,95.7703 168.321,89.7703 176,84.5C 178.965,82.8681 181.299,80.5348 183,77.5C 183.333,77.8333 183.667,78.1667 184,78.5C 187.473,75.9386 190.473,72.9386 193,69.5C 193.333,69.8333 193.667,70.1667 194,70.5C 195.397,68.9297 196.897,67.5964 198.5,66.5C 200.502,65.0925 202.502,63.5925 204.5,62C 214.494,61.5002 224.494,61.3335 234.5,61.5C 229.632,78.7545 224.299,95.4212 218.5,111.5C 218.709,112.086 219.043,112.586 219.5,113C 217.559,114.816 216.892,116.816 217.5,119C 215.625,121.943 214.125,125.11 213,128.5C 212.316,129.784 212.483,130.951 213.5,132C 211.395,133.335 210.729,135.002 211.5,137C 209.623,139.126 208.623,141.626 208.5,144.5C 224.167,144.5 239.833,144.5 255.5,144.5 Z M 187.5,114.5 C 183.636,124.39 180.303,134.224 177.5,144C 164.167,144.667 150.833,144.667 137.5,144C 152.452,132.281 167.786,120.448 183.5,108.5C 183.833,109.833 184.167,109.833 184.5,108.5C 186.143,106.027 188.31,104.027 191,102.5C 190.157,106.983 188.99,110.983 187.5,114.5 Z"/>
    </g>
    <g>
        <path fill="#A9B1BF" d="M 198.5,66.5 C 197.833,65.1667 197.833,65.1667 198.5,66.5 Z"/>
    </g>
    <g>
        <path fill="#A9B1BF" d="M 100.5,142.5 C 99.8333,141.167 99.8333,141.167 100.5,142.5 Z"/>
    </g>
    <g>
        <path fill="#A9B1BF" d="M 18.5,146.5 C 17.8333,145.167 17.8333,145.167 18.5,146.5 Z"/>
    </g>
    <g>
        <path fill="#A9B1BF" d="M 253.5,148.5 C 253.833,148.5 254.167,148.5 254.5,148.5C 254.315,149.17 253.981,149.17 253.5,148.5 Z"/>
    </g>
    <g>
        <path fill="#A9B1BF" d="M 70.5,165.5 C 69.8333,164.167 69.8333,164.167 70.5,165.5 Z"/>
    </g>
    <g>
        <path fill="#A9B1BF" d="M 201.5,165.5 C 202.833,166.167 202.833,166.167 201.5,165.5 Z"/>
    </g>
    <g>
        <path fill="#A9B1BF" d="M 108.5,166.5 C 109.833,167.167 109.833,167.167 108.5,166.5 Z"/>
    </g>
    <g>
        <path fill="#A9B1BF" d="M 100.5,172.5 C 100.833,172.5 101.167,172.5 101.5,172.5C 101.315,173.17 100.981,173.17 100.5,172.5 Z"/>
    </g>
    <g>
        <path fill="#A9B1BF" d="M 96.5,175.5 C 97.8333,176.167 97.8333,176.167 96.5,175.5 Z"/>
    </g>
    <g>
        <path fill="#A9B1BF" d="M 163.5,187.5 C 162.833,186.167 162.833,186.167 163.5,187.5 Z"/>
    </g>
</svg>
