<?xml version="1.0" encoding="UTF-8"?>
<!DOCTYPE svg PUBLIC "-//W3C//DTD SVG 1.1//EN" "http://www.w3.org/Graphics/SVG/1.1/DTD/svg11.dtd">
<svg xmlns="http://www.w3.org/2000/svg" version="1.1" width="256px" height="256px" style="fill-rule:evenodd; clip-rule:evenodd">
    <g>
        <path fill="#A9B1BF" d="M 255.5,116.5 C 255.5,123.833 255.5,131.167 255.5,138.5C 244.944,167.117 224.611,177.95 194.5,171C 190.009,169.837 185.843,168.003 182,165.5C 164,176.167 146,176.167 128,165.5C 109.602,176.13 91.2687,176.13 73,165.5C 51.7409,177.37 31.5742,175.87 12.5,161C 6.59702,154.298 2.26369,146.798 -0.5,138.5C -0.5,131.167 -0.5,123.833 -0.5,116.5C 10.0557,87.8829 30.389,77.0495 60.5,84C 64.9907,85.1634 69.1573,86.9968 73,89.5C 91.1156,78.8492 109.282,78.8492 127.5,89.5C 145.718,78.8492 163.884,78.8492 182,89.5C 203.259,77.6298 223.426,79.1298 242.5,94C 248.403,100.702 252.736,108.202 255.5,116.5 Z M 41.5,92.5 C 49.5173,92.1651 56.8506,94.1651 63.5,98.5C 50.1667,117.833 50.1667,137.167 63.5,156.5C 44.3921,166.31 28.2254,162.643 15,145.5C 5.89722,125.399 10.3972,109.232 28.5,97C 32.8456,95.164 37.179,93.664 41.5,92.5 Z M 96.5,92.5 C 104.353,92.3078 111.686,94.1411 118.5,98C 107.785,112.934 105.618,129.101 112,146.5C 114.041,150.084 116.208,153.584 118.5,157C 106.175,164.331 93.8415,164.331 81.5,157C 91.8044,142.868 94.3044,127.368 89,110.5C 87.1288,105.919 84.6288,101.752 81.5,98C 86.2992,95.2375 91.2992,93.4042 96.5,92.5 Z M 151.5,92.5 C 155.877,92.5775 160.21,93.0775 164.5,94C 167.657,94.742 170.323,96.242 172.5,98.5C 158.916,118.289 159.249,137.789 173.5,157C 161.167,164.333 148.833,164.333 136.5,157C 147.215,142.066 149.382,125.899 143,108.5C 140.959,104.916 138.792,101.416 136.5,98C 141.299,95.2375 146.299,93.4042 151.5,92.5 Z M 206.5,92.5 C 229.477,93.1489 242.144,104.816 244.5,127.5C 242.639,148.529 231.139,160.195 210,162.5C 203.113,162.37 196.946,160.37 191.5,156.5C 204.833,137.167 204.833,117.833 191.5,98.5C 196.101,95.3041 201.101,93.3041 206.5,92.5 Z M 71.5,106.5 C 75.1608,108.76 77.6608,112.093 79,116.5C 82.6123,128.483 80.4457,139.149 72.5,148.5C 62.1994,134.752 61.8661,120.752 71.5,106.5 Z M 126.5,106.5 C 127.496,106.414 128.329,106.748 129,107.5C 138.049,121.624 137.549,135.291 127.5,148.5C 117.203,134.815 116.87,120.815 126.5,106.5 Z M 181.5,106.5 C 187.37,112.063 190.37,119.063 190.5,127.5C 190.19,135.434 187.523,142.434 182.5,148.5C 175.448,140.492 172.948,131.159 175,120.5C 176.377,115.416 178.543,110.749 181.5,106.5 Z"/>
    </g>
</svg>
