<?xml version="1.0" standalone="no"?>
<!DOCTYPE svg PUBLIC "-//W3C//DTD SVG 20010904//EN" "http://www.w3.org/TR/2001/REC-SVG-20010904/DTD/svg10.dtd">
<svg version="1.0" xmlns="http://www.w3.org/2000/svg"
     width="256.000000pt" height="256.000000pt" viewBox="0 0 256.000000 256.000000">
    <g transform="translate(0.000000,256.000000) scale(0.100000,-0.100000)" fill="#A9B1BF" stroke="none">
        <path d="M1136 2550 c-291 -37 -550 -163 -757 -369 -184 -185 -299 -400 -355 -666 -21 -100 -24 -340 -5 -445 46
        -262 172 -503 360 -691 188 -188 430 -314 691 -360 96 -17 324 -17 420 0 261 46 503 172 691 360 188 188 314 429
        360 691 19 105 16 345 -5 445 -56 266 -171 481 -355 666 -185 184 -406 302 -663 354 -96 19 -290 27 -382 15z m334
        -115 c243 -40 459 -151 636 -329 178 -177 289 -393 329 -636 37 -234 -1 -504 -101 -702 -115 -228 -314 -427 -542
        -542 -256 -129 -601 -151 -884 -56 -290 97 -541 317 -682 598 -70 139 -116 342 -116 512 0 313 121 603 344 826 269
        269 641 389 1016 329z"/>
        <path d="M1114 2403 c-27 -5 -34 -50 -34 -218 l0 -122 38 6 c36 6 37 8 44 56 3 28 7 77 8 110 l1 60 37 -105 37 -105
        35 0 35 0 37 105 37 105 1 -60 c1 -33 5 -82 8 -110 7 -48 8 -50 46 -56 l38 -6 -4 163 c-2 90 -6 166 -9 169 -4 3 -29
        8 -56 12 l-50 5 -31 -86 c-18 -47 -34 -97 -38 -111 -8 -32 -20 -32 -28 0 -4 14 -20 63 -37 110 -33 92 -36 94 -115 78z"/>
        <path d="M1916 2026 c-53 -69 -96 -129 -96 -133 0 -4 12 -19 26 -34 l26 -27 67 30 c133 60 152 68 144 55 -4 -6 -36
        -49 -71 -94 -63 -82 -63 -82 -48 -112 9 -16 20 -32 26 -36 10 -6 300 123 300 134 0 3 -9 20 -20 38 l-19 32 -77 -35
        c-42 -20 -78 -34 -80 -31 -2 2 21 36 52 75 l55 72 -26 34 c-30 39 -29 40 -135 -14 -34 -17 -64 -29 -66 -27 -2 2 19
        34 48 71 55 72 56 83 11 113 -20 13 -26 7 -117 -111z"/>
        <path d="M488 2098 c-22 -18 -178 -215 -178 -225 0 -7 233 -197 251 -205 7 -3 169 195 187 229 38 71 -24 149 -103
        129 -21 -5 -25 -3 -25 14 0 33 -44 70 -83 70 -18 0 -40 -6 -49 -12z m70 -96 c2 -15 -11 -42 -39 -78 -23 -30 -46 -57
        -50 -60 -9 -5 -59 24 -59 35 0 3 23 35 51 69 38 47 56 62 72 60 14 -2 23 -11 25 -26z m117 -73 c5 -14 -6 -36 -37
        -75 -24 -31 -49 -63 -56 -72 -11 -15 -15 -14 -39 10 l-26 27 43 56 c66 85 100 101 115 54z"/>
        <path d="M1094 2000 c-258 -67 -468 -279 -534 -536 -27 -105 -27 -263 0 -368 66 -261 276 -469 540 -537 102 -27 258
        -27 360 0 264 68 474 276 540 537 27 104 27 263 1 366 -67 261 -278 472 -537 538 -102 26 -270 26 -370 0z m387 -116
        c89 -28 207 -102 264 -165 93 -103 155 -241 171 -377 l7 -62 -322 0 -321 0 0 -321 0 -322 -62 7 c-147 17 -314 99
        -403 197 -93 103 -155 241 -171 377 l-7 62 322 0 321 0 0 321 0 322 62 -7 c34 -4 96 -18 139 -32z"/>
    </g>
</svg>
