<?xml version="1.0" encoding="UTF-8"?>
<!DOCTYPE svg PUBLIC "-//W3C//DTD SVG 1.1//EN" "http://www.w3.org/Graphics/SVG/1.1/DTD/svg11.dtd">
<svg xmlns="http://www.w3.org/2000/svg" version="1.1" width="256px" height="256px"
     style="shape-rendering:geometricPrecision; text-rendering:geometricPrecision; image-rendering:optimizeQuality; fill-rule:evenodd; clip-rule:evenodd">
    <g>
        <path fill="#A9B1BF"
              d="M -0.5,41.5 C 71.1667,41.5 142.833,41.5 214.5,41.5C 142.931,42.1698 71.2643,42.8364 -0.5,43.5C -0.5,42.8333 -0.5,42.1667 -0.5,41.5 Z"/>
    </g>
    <g>
        <path fill="#A9B1BF"
              d="M 214.5,41.5 C 221.974,41.8783 228.641,44.2116 234.5,48.5C 238.086,51.5658 241.919,55.2325 246,59.5C 248.121,63.5586 250.287,66.892 252.5,69.5C 253.651,71.7791 254.651,74.1124 255.5,76.5C 255.5,83.1667 255.5,89.8333 255.5,96.5C 252.889,107.53 246.889,116.364 237.5,123C 241,125.334 244,128.168 246.5,131.5C 245.475,131.897 245.308,132.563 246,133.5C 248.392,136.228 250.392,139.228 252,142.5C 252.399,142.272 252.565,141.938 252.5,141.5C 253.5,143.5 254.5,145.5 255.5,147.5C 255.5,155.5 255.5,163.5 255.5,171.5C 254.32,175.217 252.987,178.884 251.5,182.5C 250.194,182.854 249.194,184.188 248.5,186.5C 248.624,187.107 248.957,187.44 249.5,187.5C 240.702,202.935 227.369,211.602 209.5,213.5C 140.335,212.667 71.0012,212.167 1.5,212C 0.955796,211.283 0.28913,210.783 -0.5,210.5C -0.5,191.5 -0.5,172.5 -0.5,153.5C 9.50555,153.334 19.5056,153.5 29.5,154C 30.2524,154.671 30.5858,155.504 30.5,156.5C 29.3454,163.321 29.1787,170.321 30,177.5C 30.69,178.738 31.19,178.738 31.5,177.5C 54.3215,177.536 77.3215,177.536 100.5,177.5C 100.814,164.421 100.48,151.421 99.5,138.5C 92.9168,137.349 85.5834,137.183 77.5,138C 76.193,139.943 76.193,141.777 77.5,143.5C 77.8957,146.044 77.229,148.211 75.5,150C 65.5893,150.818 55.7559,150.651 46,149.5C 45.3333,130.167 45.3333,110.833 46,91.5C 55.9314,90.1714 65.7648,90.1714 75.5,91.5C 75.9412,95.2432 76.6079,98.2432 77.5,100.5C 78.3094,101.469 79.3094,102.302 80.5,103C 87.0816,103.81 93.5816,103.643 100,102.5C 100.667,94.1667 100.667,85.8333 100,77.5C 88.7405,76.8385 77.4072,76.5051 66,76.5C 54.456,76.5101 42.956,76.8435 31.5,77.5C 31.1466,85.544 30.1466,93.2106 28.5,100.5C 18.9322,99.8098 9.26549,99.1432 -0.5,98.5C -0.5,80.1667 -0.5,61.8333 -0.5,43.5C 71.2643,42.8364 142.931,42.1698 214.5,41.5 Z M 196.5,77.5 C 199.784,79.117 202.451,81.4503 204.5,84.5C 206.867,92.6011 204.2,98.4345 196.5,102C 180.22,103.606 163.887,103.939 147.5,103C 145.993,101.527 145.326,99.6934 145.5,97.5C 146.833,92.5 146.833,87.5 145.5,82.5C 145.326,80.3066 145.993,78.4733 147.5,77C 163.878,76.1964 180.211,76.363 196.5,77.5 Z M 204.5,164.5 C 202.167,170.167 198.167,174.167 192.5,176.5C 191.508,176.328 190.842,176.662 190.5,177.5C 182.49,177.644 174.49,177.977 166.5,178.5C 159.988,177.833 153.321,177.167 146.5,176.5C 145.167,164.167 145.167,151.833 146.5,139.5C 153.667,139.167 160.833,138.833 168,138.5C 176.24,138.38 184.406,138.88 192.5,140C 203.325,144.817 207.325,152.984 204.5,164.5 Z"/>
    </g>
    <g>
        <path fill="#A9B1BF"
              d="M 234.5,48.5 C 243.348,53.0176 249.348,60.0176 252.5,69.5C 250.287,66.892 248.121,63.5586 246,59.5C 241.919,55.2325 238.086,51.5658 234.5,48.5 Z"/>
    </g>
    <g>
        <path fill="#A9B1BF"
              d="M 196.5,77.5 C 197.721,76.5354 199.054,76.702 200.5,78C 202,79.5 203.5,81 205,82.5C 205.692,83.4368 205.525,84.1034 204.5,84.5C 202.451,81.4503 199.784,79.117 196.5,77.5 Z"/>
    </g>
    <g>
        <path fill="#A9B1BF"
              d="M 75.5,91.5 C 76.1174,91.6107 76.6174,91.944 77,92.5C 77.4974,95.146 77.6641,97.8127 77.5,100.5C 76.6079,98.2432 75.9412,95.2432 75.5,91.5 Z"/>
    </g>
    <g>
        <path fill="#A9B1BF"
              d="M -0.5,98.5 C 9.26549,99.1432 18.9322,99.8098 28.5,100.5C 18.8333,100.5 9.16667,100.5 -0.5,100.5C -0.5,99.8333 -0.5,99.1667 -0.5,98.5 Z"/>
    </g>
    <g>
        <path fill="#A9B1BF"
              d="M 246.5,131.5 C 249.014,134.53 251.014,137.863 252.5,141.5C 252.565,141.938 252.399,142.272 252,142.5C 250.392,139.228 248.392,136.228 246,133.5C 245.308,132.563 245.475,131.897 246.5,131.5 Z"/>
    </g>
    <g>
        <path fill="#A9B1BF"
              d="M 99.5,138.5 C 92.4921,138.334 85.4921,138.5 78.5,139C 77.6198,140.356 77.2865,141.856 77.5,143.5C 76.193,141.777 76.193,139.943 77.5,138C 85.5834,137.183 92.9168,137.349 99.5,138.5 Z"/>
    </g>
    <g>
        <path fill="#A9B1BF"
              d="M 30.5,156.5 C 30.2045,163.588 30.5379,170.588 31.5,177.5C 31.19,178.738 30.69,178.738 30,177.5C 29.1787,170.321 29.3454,163.321 30.5,156.5 Z"/>
    </g>
    <g>
        <path fill="#A9B1BF"
              d="M 204.5,164.5 C 203.695,170.687 200.028,175.02 193.5,177.5C 192.893,177.376 192.56,177.043 192.5,176.5C 198.167,174.167 202.167,170.167 204.5,164.5 Z"/>
    </g>
    <g>
        <path fill="#A9B1BF"
              d="M 190.5,177.5 C 185.085,178.45 178.919,179.116 172,179.5C 169.967,179.494 168.134,179.161 166.5,178.5C 174.49,177.977 182.49,177.644 190.5,177.5 Z"/>
    </g>
    <g>
        <path fill="#A9B1BF"
              d="M 251.5,182.5 C 251.107,184.284 250.441,185.95 249.5,187.5C 248.957,187.44 248.624,187.107 248.5,186.5C 249.194,184.188 250.194,182.854 251.5,182.5 Z"/>
    </g>
    <g>
        <path fill="#A9B1BF"
              d="M -0.5,210.5 C 0.28913,210.783 0.955796,211.283 1.5,212C 71.0012,212.167 140.335,212.667 209.5,213.5C 139.429,213.83 69.429,213.496 -0.5,212.5C -0.5,211.833 -0.5,211.167 -0.5,210.5 Z"/>
    </g>
</svg>
