<?xml version="1.0" encoding="UTF-8"?>
<!DOCTYPE svg PUBLIC "-//W3C//DTD SVG 1.1//EN" "http://www.w3.org/Graphics/SVG/1.1/DTD/svg11.dtd">
<svg xmlns="http://www.w3.org/2000/svg" version="1.1" width="256px" height="256px"
     style="shape-rendering:geometricPrecision; text-rendering:geometricPrecision; image-rendering:optimizeQuality; fill-rule:evenodd; clip-rule:evenodd">
    <g>
        <path fill="#A9B1BF" d="M 85.5,85.5 C 84.8333,84.1667 84.8333,84.1667 85.5,85.5 Z"/>
    </g>
    <g>
        <path fill="#A9B1BF" d="M 169.5,84.5 C 170.833,85.1667 170.833,85.1667 169.5,84.5 Z"/>
    </g>
    <g>
        <path fill="#A9B1BF"
              d="M 85.5,85.5 C 113.5,85.5 141.5,85.5 169.5,85.5C 169.5,85.8333 169.5,86.1667 169.5,86.5C 141.662,86.1687 113.995,86.5021 86.5,87.5C 86.1667,87.5 85.8333,87.5 85.5,87.5C 84.4937,87.0623 84.4937,86.3957 85.5,85.5 Z"/>
    </g>
    <g>
        <path fill="#A9B1BF"
              d="M 169.5,86.5 C 169.622,91.9178 169.622,97.5844 169.5,103.5C 198.167,103.5 226.833,103.5 255.5,103.5C 255.5,104.833 255.5,106.167 255.5,107.5C 253.734,110.188 252.067,113.021 250.5,116C 250.833,116.333 251.167,116.667 251.5,117C 248.876,117.576 248.209,118.91 249.5,121C 247.574,121.422 246.574,122.589 246.5,124.5C 245.326,125.514 244.66,126.847 244.5,128.5C 240.753,135.663 236.753,142.663 232.5,149.5C 232.565,149.062 232.399,148.728 232,148.5C 211.065,150.482 189.899,151.149 168.5,150.5C 168.177,156.69 168.51,162.69 169.5,168.5C 141.67,169.664 113.67,169.83 85.5,169C 84.2264,168.023 84.2264,167.189 85.5,166.5C 86.4881,161.36 86.8214,156.026 86.5,150.5C 57.275,151.146 28.275,150.479 -0.5,148.5C -0.5,148.167 -0.5,147.833 -0.5,147.5C 1.26632,144.812 2.93299,141.979 4.5,139C 4.16667,138.667 3.83333,138.333 3.5,138C 5.63236,137.082 6.29903,135.749 5.5,134C 7.63236,133.082 8.29903,131.749 7.5,130C 9.63236,129.082 10.299,127.749 9.5,126C 10.4162,125.626 11.2496,125.126 12,124.5C 15.3536,117.117 19.1869,110.117 23.5,103.5C 44.3267,104.497 65.3267,104.831 86.5,104.5C 86.5,98.8333 86.5,93.1667 86.5,87.5C 113.995,86.5021 141.662,86.1687 169.5,86.5 Z M 215.5,134.5 C 215.107,136.284 214.441,137.95 213.5,139.5C 194.833,139.5 176.167,139.5 157.5,139.5C 157.5,145.167 157.5,150.833 157.5,156.5C 137.5,156.5 117.5,156.5 97.5,156.5C 97.8214,150.974 97.4881,145.64 96.5,140.5C 74.3396,139.503 52.0062,139.169 29.5,139.5C 32.8276,131.37 36.8276,123.537 41.5,116C 59.8333,115.667 78.1667,115.333 96.5,115C 97.4749,109.259 97.8082,103.425 97.5,97.5C 117.5,97.5 137.5,97.5 157.5,97.5C 157.5,103.5 157.5,109.5 157.5,115.5C 180.169,115.333 202.836,115.5 225.5,116C 222.265,122.308 218.932,128.475 215.5,134.5 Z"/>
    </g>
    <g>
        <path fill="#A9B1BF"
              d="M 85.5,87.5 C 85.8333,87.5 86.1667,87.5 86.5,87.5C 86.5,93.1667 86.5,98.8333 86.5,104.5C 65.3267,104.831 44.3267,104.497 23.5,103.5C 43.8443,103.833 64.1776,103.5 84.5,102.5C 85.4476,97.5649 85.781,92.5649 85.5,87.5 Z"/>
    </g>
    <g>
        <path fill="#A9B1BF" d="M 246.5,124.5 C 247.833,125.167 247.833,125.167 246.5,124.5 Z"/>
    </g>
    <g>
        <path fill="#A9B1BF" d="M 244.5,128.5 C 245.833,129.167 245.833,129.167 244.5,128.5 Z"/>
    </g>
    <g>
        <path fill="#A9B1BF"
              d="M 29.5,139.5 C 52.0062,139.169 74.3396,139.503 96.5,140.5C 96.5,145.833 96.5,151.167 96.5,156.5C 95.5119,151.36 95.1786,146.026 95.5,140.5C 71.8127,140.8 49.8127,140.467 29.5,139.5 Z"/>
    </g>
    <g>
        <path fill="#A9B1BF"
              d="M -0.5,148.5 C 28.275,150.479 57.275,151.146 86.5,150.5C 86.8214,156.026 86.4881,161.36 85.5,166.5C 85.5,161.5 85.5,156.5 85.5,151.5C 56.8333,151.5 28.1667,151.5 -0.5,151.5C -0.5,150.5 -0.5,149.5 -0.5,148.5 Z"/>
    </g>
    <g>
        <path fill="#A9B1BF"
              d="M 232.5,149.5 C 211.86,151.489 190.86,152.155 169.5,151.5C 169.5,157.167 169.5,162.833 169.5,168.5C 168.51,162.69 168.177,156.69 168.5,150.5C 189.899,151.149 211.065,150.482 232,148.5C 232.399,148.728 232.565,149.062 232.5,149.5 Z"/>
    </g>
    <g>
        <path fill="#A9B1BF"
              d="M 96.5,140.5 C 97.4881,145.64 97.8214,150.974 97.5,156.5C 117.5,156.5 137.5,156.5 157.5,156.5C 137.34,157.497 117.007,157.83 96.5,157.5C 96.5,157.167 96.5,156.833 96.5,156.5C 96.5,151.167 96.5,145.833 96.5,140.5 Z"/>
    </g>
    <g>
        <path fill="#A9B1BF"
              d="M 213.5,139.5 C 195.341,140.497 177.008,140.83 158.5,140.5C 158.5,146.5 158.5,152.5 158.5,158.5C 137.66,158.831 116.993,158.497 96.5,157.5C 117.007,157.83 137.34,157.497 157.5,156.5C 157.5,150.833 157.5,145.167 157.5,139.5C 176.167,139.5 194.833,139.5 213.5,139.5 Z"/>
    </g>
</svg>
