<?xml version="1.0" encoding="UTF-8"?>
<!DOCTYPE svg PUBLIC "-//W3C//DTD SVG 1.1//EN" "http://www.w3.org/Graphics/SVG/1.1/DTD/svg11.dtd">
<svg xmlns="http://www.w3.org/2000/svg" version="1.1" width="256px" height="256px"
     style="fill-rule:evenodd; clip-rule:evenodd">
    <g>
        <path fill="#A9B1BF"
              d="M 255.5,123.5 C 255.5,132.5 255.5,141.5 255.5,150.5C 253.099,152.944 250.433,153.111 247.5,151C 220.857,127.687 192.524,106.687 162.5,88C 151.609,81.5371 139.942,77.3705 127.5,75.5C 121.965,75.717 116.631,76.8836 111.5,79C 102.554,82.8061 93.8878,87.1394 85.5,92C 58.0819,109.746 32.0819,129.413 7.5,151C 4.56724,153.111 1.90058,152.944 -0.5,150.5C -0.5,141.5 -0.5,132.5 -0.5,123.5C 1.36941,119.434 3.53607,115.434 6,111.5C 28.1972,87.6358 51.3638,64.8025 75.5,43C 88.6243,31.5998 102.958,21.9331 118.5,14C 124.5,12 130.5,12 136.5,14C 152.042,21.9331 166.376,31.5998 179.5,43C 203.636,64.8025 226.803,87.6358 249,111.5C 251.464,115.434 253.631,119.434 255.5,123.5 Z"/>
    </g>
    <g>
        <path fill="#A9B1BF"
              d="M 255.5,213.5 C 255.5,222.5 255.5,231.5 255.5,240.5C 253.84,242.248 251.84,242.748 249.5,242C 224.112,219.479 197.112,199.145 168.5,181C 160.779,176.473 152.779,172.473 144.5,169C 133.167,164.333 121.833,164.333 110.5,169C 85.5143,181.153 62.181,195.82 40.5,213C 28.8333,222.667 17.1667,232.333 5.5,242C 3.15994,242.748 1.15994,242.248 -0.5,240.5C -0.5,231.5 -0.5,222.5 -0.5,213.5C 1.95891,207.261 5.45891,201.594 10,196.5C 29.1977,175.635 49.3644,155.802 70.5,137C 84.9411,124.277 100.608,113.277 117.5,104C 124.167,100.667 130.833,100.667 137.5,104C 154.392,113.277 170.059,124.277 184.5,137C 207.667,157.5 229.5,179.333 250,202.5C 251.879,206.259 253.713,209.925 255.5,213.5 Z"/>
    </g>
</svg>
