<?xml version="1.0" standalone="no"?>
<!DOCTYPE svg PUBLIC "-//W3C//DTD SVG 20010904//EN"
        "http://www.w3.org/TR/2001/REC-SVG-20010904/DTD/svg10.dtd">
<svg version="1.0" xmlns="http://www.w3.org/2000/svg"
     width="256.000000pt" height="256.000000pt" viewBox="0 0 256.000000 256.000000">

    <g transform="translate(0.000000,256.000000) scale(0.100000,-0.100000)"
       fill="#A9B1BF" stroke="none">
        <path d="M12 1778 c-7 -7 -12 -16 -12 -21 0 -19 245 -399 266 -413 13 -9 76 -20 165 -27 101 -9 144 -17 147 -26 3
        -8 17 -27 32 -44 27 -31 28 -31 231 -54 112 -12 211 -22 220 -23 10 0 32 -39 64 -112 110 -257 142 -302 184 -264 9
        9 52 96 95 195 l77 178 42 6 c23 3 121 13 217 23 172 17 176 18 206 48 17 17 33 37 36 45 3 11 41 18 148 28 82 8
        153 19 165 27 11 7 70 94 131 192 143 231 139 223 121 241 -12 13 -40 11 -220 -11 -114 -14 -215 -30 -226 -35 -11
        -6 -22 -19 -26 -30 -7 -22 -1 -21 -315 -57 -249 -28 -294 -40 -326 -89 -9 -13 -45 -91 -80 -172 -36 -82 -68 -151
        -72 -155 -4 -4 -38 65 -76 153 -38 88 -77 170 -87 183 -33 42 -86 55 -356 85 l-262 30 -28 31 c-28 30 -30 31 -228
        55 -235 29 -218 28 -233 13z m253 -38 c169 -20 170 -20 197 -52 15 -18 38 -33 50 -35 13 -1 129 -14 258 -28 129 -14
        249 -31 266 -36 52 -16 80 -58 156 -234 l74 -170 -40 -92 c-21 -51 -42 -93 -46 -93 -3 0 -23 41 -44 90 -21 50 -42
        93 -47 96 -5 3 -105 16 -223 28 -117 13 -219 27 -225 31 -7 3 -22 24 -35 44 l-24 38 -144 12 c-78 7 -151 18 -160 24
        -18 13 -248 372 -248 388 0 13 45 11 235 -11z m2261 4 c-14 -36 -238 -383 -250 -387 -8 -3 -78 -11 -156 -18 l-142
        -12 -24 -38 c-13 -20 -28 -40 -35 -44 -9 -6 -226 -32 -393 -48 -30 -3 -54 -11 -61 -21 -7 -9 -43 -87 -80 -173 -83
        -192 -92 -208 -112 -191 -19 15 -73 122 -73 144 0 16 198 481 241 565 34 69 52 73 607 133 12 1 35 17 50 34 27 32
        29 33 182 51 206 25 254 26 246 5z"/>
        <path d="M84 1714 c8 -22 184 -303 200 -322 9 -9 248 -40 322 -42 1 0 7 -13 14 -29 22 -55 32 -58 255 -81 121 -12
        218 -27 230 -34 11 -8 31 -41 44 -75 13 -34 27 -64 31 -66 4 -2 19 25 33 60 l26 64 -73 168 c-84 191 -98 206 -193
        218 -86 10 -111 13 -313 35 -165 19 -187 23 -202 43 -10 12 -22 27 -27 33 -5 6 -45 15 -88 19 -43 4 -85 8 -93 10
        -8 2 -51 6 -94 10 -75 7 -79 7 -72 -11z m338 -42 c10 -11 167 -296 164 -299 -1 -2 -36 1 -77 5 l-74 7 -33 52 -33
        51 -68 7 c-66 7 -67 7 -94 51 -15 25 -27 47 -27 49 0 3 27 5 60 5 33 0 60 2 60 5 0 3 -11 23 -25 45 -14 22 -25 41
        -25 43 0 6 165 -15 172 -21z m386 -97 c51 -7 53 -8 78 -57 14 -27 23 -52 21 -54 -3 -3 -42 -1 -88 4 -46 5 -85 8 -87
        7 -2 -2 6 -22 18 -45 12 -23 19 -44 16 -47 -3 -3 -41 -2 -85 2 l-80 7 -26 45 c-14 25 -25 50 -25 55 0 8 53 5 138 -8
        l33 -5 -26 50 c-14 28 -25 53 -25 57 0 3 19 4 43 1 23 -3 66 -9 95 -12z m264 -131 c33 -5 40 -11 58 -51 11 -25 20
        -48 20 -51 0 -2 -41 -1 -91 3 l-90 7 26 -52 c15 -29 25 -53 23 -54 -2 -2 -44 2 -94 7 l-91 10 -27 54 c-15 31 -26 56
        -24 58 2 1 41 -2 87 -7 46 -5 85 -7 88 -4 2 2 -5 22 -16 45 -12 22 -21 43 -21 46 0 6 66 1 152 -11z"/>
        <path d="M320 1585 c0 -3 12 -26 26 -51 l26 -44 64 0 c35 0 64 3 64 8 0 4 -10 25 -23 47 -22 39 -23 39 -90 43 -37 2
        -67 1 -67 -3z"/>
        <path d="M2345 1720 c-33 -5 -89 -11 -125 -15 -87 -8 -92 -10 -112 -45 -9 -16 -24 -30 -32 -30 -8 0 -111 -11 -228
        -25 -117 -13 -235 -27 -261 -30 -51 -6 -96 -24 -114 -47 -19 -24 -243 -549 -243 -569 0 -24 37 -99 49 -99 15 0 26 21
        96 183 38 87 76 162 84 166 15 8 122 21 296 37 138 13 147 16 177 61 32 46 36 48 198 59 117 8 131 10 146 26 19 21
        204 318 204 328 0 11 -47 11 -135 0z m105 -14 c0 -5 -180 -288 -190 -300 -8 -8 -271 -37 -278 -30 -6 4 149 283 161
        291 17 11 307 48 307 39z m-388 -128 c-11 -18 -50 -87 -87 -153 -36 -66 -72 -125 -78 -131 -7 -7 -106 -22 -222 -34
        -115 -12 -219 -28 -230 -35 -12 -7 -49 -79 -90 -173 -38 -89 -73 -162 -76 -162 -3 0 -11 17 -18 38 -13 37 -11 43
        104 307 64 149 124 278 132 287 8 9 29 20 45 23 32 7 477 62 516 64 l24 1 -20 -32z"/>
        <path d="M2233 1638 c-13 -13 -29 -42 -37 -63 -11 -29 -15 -34 -15 -17 -1 24 -20 29 -39 10 -16 -16 -15 -28 3 -28
        17 0 19 -9 6 -43 -9 -23 -7 -25 20 -29 17 -3 29 0 29 7 0 15 73 85 88 85 7 0 12 7 12 15 0 24 -38 17 -56 -10 -25
        -38 -28 -23 -4 18 12 20 20 46 18 58 -3 21 -3 21 -25 -3z"/>
        <path d="M1692 1483 c-12 -2 -27 -13 -32 -24 -8 -14 -21 -19 -52 -19 -32 0 -49 -7 -70 -27 -15 -15 -28 -31 -28 -36
        0 -5 25 -6 60 -2 54 6 59 5 54 -10 -6 -15 -1 -16 52 -10 37 5 66 14 77 26 11 12 32 19 56 19 26 0 44 7 58 23 40 45
        39 47 -27 40 -53 -5 -60 -4 -54 11 5 13 0 16 -32 15 -22 -1 -49 -4 -62 -6z"/>
    </g>
</svg>
