<?xml version="1.0" standalone="no"?>
<!DOCTYPE svg PUBLIC "-//W3C//DTD SVG 20010904//EN" "http://www.w3.org/TR/2001/REC-SVG-20010904/DTD/svg10.dtd">
<svg version="1.0" xmlns="http://www.w3.org/2000/svg"
     width="171.000000pt" height="171.000000pt" viewBox="0 0 171.000000 171.000000">

    <g transform="translate(0.000000,171.000000) scale(0.100000,-0.100000)" fill="#A9B1BF" stroke="none">
        <path d="M762 1449 c-120 -20 -224 -71 -311 -153 -48 -46 -111 -125 -111 -140 0 -3 234 -6 520 -6 l521 0 -29 43
        c-93 134 -232 224 -390 253 -86 15 -123 16 -200 3z"/>
        <path d="M22 1105 c-22 -16 -22 -19 -22 -245 0 -194 2 -231 16 -244 14 -14 103 -16 835 -16 546 0 827 3 840 10 18
        10 19 23 19 243 0 129 -5 239 -10 247 -8 13 -114 15 -832 18 -735 2 -825 1 -846 -13z m185 -56 c117 -30 168 -174
        107 -298 -33 -66 -79 -90 -171 -91 l-63 0 0 200 0 200 41 0 c22 0 61 -5 86 -11z m368 -136 c25 -82 53 -168 61 -192
        19 -61 19 -61 -26 -61 -36 0 -41 3 -54 35 -15 34 -17 35 -70 35 -55 0 -55 0 -62 -35 -6 -34 -8 -35 -50 -35 -25 0
        -44 5 -44 11 0 11 39 150 86 307 l25 82 44 0 44 0 46 -147z m245 102 c0 -41 -2 -45 -25 -45 l-25 0 0 -155 0 -155
        -45 0 -45 0 0 155 0 155 -35 0 c-35 0 -35 0 -35 45 l0 45 105 0 105 0 0 -45z m174 31 c19 -8 37 -19 41 -26 10 -16
        -36 -63 -49 -50 -5 5 -23 10 -38 10 -45 0 -36 -33 22 -75 78 -58 97 -111 64 -181 -19 -39 -59 -64 -101 -64 -34 0
        -97 32 -100 51 -4 21 46 54 60 40 18 -18 65 -13 77 9 15 29 0 52 -60 90 -59 38 -70 55 -70 107 1 44 15 66 56 88 36
        19 56 19 98 1z m166 -130 c0 -118 3 -147 16 -160 21 -22 40 -20 58 6 13 18 16 52 16 160 l0 138 40 0 40 0 0 -152
        c0 -134 -2 -157 -20 -185 -45 -74 -139 -83 -197 -19 l-33 36 0 160 0 160 40 0 40 0 0 -144z m330 39 c34 -58 64 -105
        67 -105 3 0 2 48 -2 106 l-7 105 43 -3 44 -3 3 -197 2 -198 -37 0 c-37 0 -39 2 -98 100 l-60 100 -3 -100 -3 -100
        -39 0 -40 0 0 200 0 200 34 0 c32 0 37 -5 96 -105z"/>
        <path d="M167 963 c-10 -9 -9 -201 1 -206 4 -3 17 -1 30 4 56 21 66 149 14 189 -27 21 -35 24 -45 13z"/>
        <path d="M472 861 c-16 -52 -16 -51 18 -51 17 0 30 3 30 6 0 17 -24 84 -30 84 -4 0 -12 -17 -18 -39z"/>
        <path d="M340 562 c0 -5 14 -28 31 -51 84 -117 219 -204 365 -237 206 -45 439 35 575 198 91 110 145 98 -451 98
        -286 0 -520 -4 -520 -8z"/>
    </g>
</svg>
