<?xml version="1.0" encoding="UTF-8"?>
<!DOCTYPE svg PUBLIC "-//W3C//DTD SVG 1.1//EN" "http://www.w3.org/Graphics/SVG/1.1/DTD/svg11.dtd">
<svg xmlns="http://www.w3.org/2000/svg" version="1.1" width="220px" height="220px"
     style="fill-rule:evenodd; clip-rule:evenodd"
>
    <g>
        <path fill="#A9B1BF"
              d="M 87.5,-0.5 C 102.833,-0.5 118.167,-0.5 133.5,-0.5C 153.372,0.615006 173.372,2.11501 193.5,4C 211.069,6.07226 218.735,15.9056 216.5,33.5C 216.122,70.6123 213.955,107.612 210,144.5C 209.174,149.964 207.841,155.297 206,160.5C 202.201,165.301 198.034,169.801 193.5,174C 182.705,182.121 171.372,189.455 159.5,196C 143.531,204.152 127.531,211.985 111.5,219.5C 110.167,219.5 108.833,219.5 107.5,219.5C 87.6434,209.904 67.9767,199.737 48.5,189C 35.1732,181.338 23.3398,171.838 13,160.5C 8.94582,148.178 6.61249,135.511 6,122.5C 3.56683,88.5389 2.56683,54.5389 3,20.5C 5.6874,11.8142 11.5207,6.64749 20.5,5C 42.9133,2.28961 65.2467,0.456279 87.5,-0.5 Z M 93.5,8.5 C 126.239,8.47876 158.906,9.97876 191.5,13C 196.146,13.3264 200.479,14.6597 204.5,17C 205.717,18.6477 206.55,20.481 207,22.5C 207.186,62.9371 205.186,103.27 201,143.5C 199.978,154.521 194.812,163.021 185.5,169C 161.813,185.347 136.479,198.847 109.5,209.5C 81.1287,197.487 54.462,182.653 29.5,165C 24.4219,161.263 20.9219,156.43 19,150.5C 16.9287,140.263 15.5954,129.93 15,119.5C 12.7972,87.1984 11.7972,54.8651 12,22.5C 12.4709,20.7536 13.1376,19.087 14,17.5C 18.0855,14.8048 22.5855,13.3048 27.5,13C 49.6182,10.9102 71.6182,9.41016 93.5,8.5 Z"/>
    </g>
    <g>
        <path fill="#A9B1BF"
              d="M 64.5,34.5 C 71.1063,34.9207 77.4397,36.4207 83.5,39C 91.2946,44.4621 98.7946,50.2954 106,56.5C 106.923,58.0344 107.423,59.701 107.5,61.5C 106.741,68.5704 105.575,75.5704 104,82.5C 101.135,88.7306 96.9682,89.7306 91.5,85.5C 84.3671,75.8678 76.3671,67.0345 67.5,59C 64.1667,57 60.8333,55 57.5,53C 53.9279,51.5951 50.2613,51.2617 46.5,52C 43.0288,54.0719 39.3621,55.5719 35.5,56.5C 40.2519,42.6299 49.9186,35.2966 64.5,34.5 Z"/>
    </g>
    <g>
        <path fill="#A9B1BF"
              d="M 148.5,34.5 C 162.186,32.885 173.02,37.5516 181,48.5C 183.099,50.9743 183.599,53.641 182.5,56.5C 178.055,53.9433 173.389,51.9433 168.5,50.5C 155.853,55.0879 145.353,62.7546 137,73.5C 133.955,77.7565 130.788,81.9232 127.5,86C 121.488,89.1159 117.321,87.6159 115,81.5C 112.956,73.2649 112.29,64.9315 113,56.5C 123.34,46.4303 135.173,39.097 148.5,34.5 Z"/>
    </g>
    <g>
        <path fill="#A9B1BF"
              d="M 95.5,119.5 C 95.7373,120.791 95.404,121.791 94.5,122.5C 93.5,121.833 92.5,121.167 91.5,120.5C 90.0813,119.549 88.4147,119.216 86.5,119.5C 86.2627,120.791 86.596,121.791 87.5,122.5C 90.533,124.11 93.3663,126.11 96,128.5C 100.203,137.825 101.369,147.492 99.5,157.5C 107,156.166 109.833,159.166 108,166.5C 107.329,167.252 106.496,167.586 105.5,167.5C 103.833,167.5 102.167,167.5 100.5,167.5C 98.0637,167.683 95.897,167.016 94,165.5C 92.5108,160.543 91.1775,155.543 90,150.5C 80.765,138.808 75.4317,125.475 74,110.5C 69.6667,107.5 65.3333,104.5 61,101.5C 60.3333,98.1667 60.3333,94.8333 61,91.5C 64.1785,89.4573 63.8452,87.7907 60,86.5C 58.7387,86.7591 57.7387,87.4258 57,88.5C 56.1109,91.6865 55.2776,94.8532 54.5,98C 56.8971,107.875 58.8971,117.875 60.5,128C 60.5053,130.163 59.5053,131.663 57.5,132.5C 47.5801,126.357 40.7468,117.69 37,106.5C 35.5166,101.9 34.35,97.2332 33.5,92.5C 31.6136,91.5937 29.7803,90.5937 28,89.5C 26.2142,79.315 28.2142,69.9816 34,61.5C 45.504,52.6465 55.8374,53.9798 65,65.5C 70.1754,73.848 74.842,82.5147 79,91.5C 80.3706,94.3709 82.5372,96.3709 85.5,97.5C 83.1279,101.981 82.9612,106.648 85,111.5C 87.7716,113.761 90.9382,115.261 94.5,116C 95.3366,117.011 95.67,118.178 95.5,119.5 Z"/>
    </g>
    <g>
        <path fill="#A9B1BF"
              d="M 113.5,158.5 C 116.388,159.01 118.721,158.344 120.5,156.5C 120.15,153.278 119.483,150.112 118.5,147C 119.757,140.561 121.424,134.228 123.5,128C 125.348,125.907 127.681,124.574 130.5,124C 132.645,122.182 132.645,120.682 130.5,119.5C 127.724,120.089 125.39,121.422 123.5,123.5C 123.167,123.333 122.833,123.167 122.5,123C 123.249,121.266 123.749,119.433 124,117.5C 127.035,115.264 130.369,113.598 134,112.5C 134.893,109.567 135.393,106.567 135.5,103.5C 135.712,100.989 135.045,98.8219 133.5,97C 135.848,96.6541 137.681,95.4875 139,93.5C 144.16,83.1753 149.827,73.1753 156,63.5C 166.407,52.8938 176.74,52.8938 187,63.5C 191.231,71.3215 192.898,79.6549 192,88.5C 190.266,90.4506 188.099,91.4506 185.5,91.5C 183.839,106.656 177.505,119.489 166.5,130C 162.3,132.719 159.967,131.719 159.5,127C 161.106,116.768 162.773,106.768 164.5,97C 164.045,93.7188 163.211,90.5522 162,87.5C 159.52,85.9103 157.687,86.4103 156.5,89C 160.786,94.3706 160.453,99.3706 155.5,104C 152.088,105.455 148.921,107.288 146,109.5C 144.805,116.612 143.139,123.612 141,130.5C 138.105,137.292 134.438,143.625 130,149.5C 129.125,154.633 127.792,159.633 126,164.5C 125.167,165.333 124.333,166.167 123.5,167C 119.459,167.827 115.459,167.66 111.5,166.5C 109.783,163.048 110.449,160.381 113.5,158.5 Z"/>
    </g>
    <g>
        <path fill="#A9B1BF"
              d="M 185.5,105.5 C 186.222,105.082 186.722,104.416 187,103.5C 187.497,100.854 187.664,98.1873 187.5,95.5C 187.414,94.5041 187.748,93.6708 188.5,93C 190.447,92.0087 192.447,91.6753 194.5,92C 196.43,95.3842 197.43,99.0508 197.5,103C 197.235,117.46 192.735,130.627 184,142.5C 177.055,148.921 168.889,151.088 159.5,149C 158.426,148.261 157.759,147.261 157.5,146C 166.86,137.795 174.693,128.295 181,117.5C 182.8,113.574 184.3,109.574 185.5,105.5 Z"/>
    </g>
    <g>
        <path fill="#A9B1BF"
              d="M 24.5,92.5 C 27.3646,92.0548 29.8646,92.7215 32,94.5C 35.3449,114.842 45.0116,131.509 61,144.5C 61.7805,145.944 61.6139,147.277 60.5,148.5C 47.6123,151.819 37.779,147.819 31,136.5C 23.9188,124.156 21.2522,110.823 23,96.5C 23.4101,95.0993 23.9101,93.766 24.5,92.5 Z"/>
    </g>
    <g>
        <path fill="#A9B1BF"
              d="M 187.5,95.5 C 187.664,98.1873 187.497,100.854 187,103.5C 186.722,104.416 186.222,105.082 185.5,105.5C 185.899,101.989 186.566,98.6557 187.5,95.5 Z"/>
    </g>
    <g>
        <path fill="#A9B1BF"
              d="M 91.5,120.5 C 89.5168,120.157 88.1834,120.824 87.5,122.5C 86.596,121.791 86.2627,120.791 86.5,119.5C 88.4147,119.216 90.0813,119.549 91.5,120.5 Z"/>
    </g>
    <g>
        <path fill="#A9B1BF"
              d="M 95.5,119.5 C 96.6129,120.946 96.7796,122.613 96,124.5C 95.2828,123.956 94.7828,123.289 94.5,122.5C 95.404,121.791 95.7373,120.791 95.5,119.5 Z"/>
    </g>
    <g>
        <path fill="#A9B1BF"
              d="M 120.5,156.5 C 118.721,158.344 116.388,159.01 113.5,158.5C 115.715,157.732 118.048,157.065 120.5,156.5 Z"/>
    </g>
    <g>
        <path fill="#A9B1BF"
              d="M 100.5,167.5 C 102.167,167.5 103.833,167.5 105.5,167.5C 108.625,168.479 111.958,168.813 115.5,168.5C 110.025,169.489 104.358,169.822 98.5,169.5C 99.1667,168.833 99.8333,168.167 100.5,167.5 Z"/>
    </g>
    <g>
        <path fill="#A9B1BF"
              d="M 115.5,168.5 C 122.984,167.758 123.984,169.591 118.5,174C 110.564,178.011 103.564,176.844 97.5,170.5C 97.6236,169.893 97.9569,169.56 98.5,169.5C 104.358,169.822 110.025,169.489 115.5,168.5 Z"/>
    </g>
</svg>
