<?xml version="1.0" standalone="no"?>
<!DOCTYPE svg PUBLIC "-//W3C//DTD SVG 20010904//EN"
        "http://www.w3.org/TR/2001/REC-SVG-20010904/DTD/svg10.dtd">
<svg version="1.0" xmlns="http://www.w3.org/2000/svg"
     width="679.000000pt" height="179.000000pt" viewBox="0 0 679.000000 179.000000">
    <g transform="translate(0.000000,179.000000) scale(0.100000,-0.100000)"
       fill="#A9B1BF" stroke="none">
        <path d="M3150 1640 c-582 -292 -592 -297 -721 -315 -63 -9 -172 -25 -244 -36
-71 -10 -193 -28 -270 -39 -111 -15 -447 -65 -715 -105 -19 -2 -116 -16 -215
-30 -99 -14 -225 -32 -280 -40 -139 -21 -263 -39 -610 -88 -78 -11 -90 -15
-90 -32 0 -17 18 -23 135 -47 208 -43 307 -64 545 -113 121 -25 263 -54 315
-65 52 -11 183 -38 290 -60 107 -22 227 -47 265 -55 39 -8 203 -42 365 -75
162 -34 322 -67 355 -74 78 -16 85 -21 85 -61 0 -31 3 -34 48 -44 51 -12 200
-36 310 -50 67 -9 127 -39 553 -275 82 -45 126 -47 211 -7 35 16 99 45 143 64
44 19 111 49 148 67 38 17 143 65 234 105 122 55 179 87 220 122 120 104 70
89 518 154 77 11 196 29 265 39 69 10 220 32 335 49 116 17 302 44 415 61 113
17 250 37 305 45 55 8 161 24 235 35 74 11 214 32 310 46 96 13 176 27 178 29
10 10 -11 23 -45 28 -42 6 -441 74 -628 107 -66 12 -169 30 -230 40 -195 34
-342 60 -462 81 -65 11 -156 27 -203 34 -47 8 -138 24 -202 35 -65 11 -169 29
-230 40 -62 10 -180 31 -263 45 -82 15 -168 29 -190 32 -22 3 -44 9 -50 13
-14 11 -327 190 -331 190 -2 0 -27 15 -56 32 -29 18 -65 40 -81 48 -53 29
-253 144 -312 181 l-61 36 -294 -147z m227 -22 c-36 -93 -88 -230 -122 -320
-20 -54 -29 -57 -96 -32 -65 23 -214 51 -344 65 -63 7 -115 15 -115 19 0 4 93
55 208 113 114 58 272 140 352 181 80 41 147 73 149 70 2 -2 -12 -45 -32 -96z
m838 -383 c-22 -19 -50 -38 -62 -41 -13 -3 -96 -1 -185 5 -90 6 -239 14 -333
17 -93 4 -179 10 -190 15 -14 5 -15 8 -5 9 8 1 74 7 145 14 72 7 252 14 400
14 l270 2 -40 -35z m172 -5 c23 -5 83 -16 135 -24 51 -8 161 -27 243 -41 83
-14 188 -32 235 -40 47 -8 153 -26 235 -40 83 -14 188 -32 235 -40 291 -48
369 -62 645 -110 165 -29 374 -64 390 -65 6 -1 1 -5 -10 -10 -11 -5 -85 -9
-165 -9 -80 -1 -253 -6 -385 -11 -132 -5 -420 -14 -640 -20 -220 -5 -559 -15
-752 -22 -194 -6 -355 -10 -357 -7 -3 3 20 105 51 227 62 247 53 232 140 212z
m-927 -25 c151 -8 368 -20 481 -26 l207 -13 4 -185 c3 -102 5 -278 4 -390 l-1
-205 -70 -13 c-263 -50 -754 -78 -1058 -62 -240 13 -582 57 -629 81 -16 8 -17
38 -13 401 l4 392 38 8 c45 9 377 23 598 25 88 1 284 -5 435 -13z m-2745 -315
c138 -11 360 -30 495 -41 135 -11 328 -26 430 -34 102 -8 232 -19 290 -24 58
-6 173 -15 255 -21 83 -6 156 -13 163 -15 14 -5 18 -250 4 -259 -8 -5 -205 35
-912 184 -107 23 -226 48 -265 55 -38 8 -124 26 -190 40 -109 23 -338 70 -553
114 -88 18 -100 37 -17 27 28 -3 163 -15 300 -26z m3530 -287 l57 -98 -53 -47
c-30 -26 -57 -48 -61 -48 -5 0 -8 65 -8 145 0 80 2 145 4 145 2 0 30 -44 61
-97z m-231 -282 c3 -4 -34 -25 -82 -46 -48 -21 -126 -55 -174 -76 -49 -22
-130 -57 -180 -80 -51 -22 -114 -50 -141 -61 -29 -13 -51 -18 -56 -12 -4 5
-22 47 -39 94 -17 47 -33 93 -37 102 -8 19 -14 19 355 49 140 11 271 24 290
29 48 11 58 11 64 1z"/>
        <path d="M2745 1145 c-137 -7 -260 -13 -272 -14 l-23 -1 0 -345 c0 -190 1
-345 3 -345 1 0 83 -11 182 -25 291 -39 532 -50 827 -36 216 10 505 37 601 57
l27 6 -1 151 c-1 84 -4 233 -8 332 l-6 180 -130 12 c-136 12 -503 29 -785 37
-91 2 -277 -2 -415 -9z m1062 -166 c18 -6 46 -26 63 -45 37 -42 41 -104 11
-163 -29 -56 -64 -74 -151 -81 l-75 -5 -3 -83 -3 -83 -57 3 -57 3 -3 232 -2
232 57 4 c75 5 179 -1 220 -14z m-730 -19 c2 -14 1 -35 -2 -47 -5 -22 -10 -23
-110 -23 l-105 0 0 -35 0 -34 93 -3 92 -3 3 -52 3 -52 -93 -3 -93 -3 -3 -92
-3 -93 -59 0 -60 0 0 235 0 235 167 -2 166 -3 4 -25z m346 -187 c47 -120 89
-226 93 -236 6 -16 0 -18 -62 -15 l-69 3 -16 45 -17 45 -77 0 -77 0 -18 -45
-18 -45 -61 -3 c-38 -2 -61 1 -61 7 0 6 27 82 61 168 33 87 72 188 86 226 l25
67 62 0 62 0 87 -217z"/>
        <path d="M3654 876 c-3 -8 -4 -29 -2 -48 3 -30 6 -33 36 -31 65 3 82 11 82 42
0 20 -7 31 -25 39 -35 16 -84 15 -91 -2z"/>
        <path d="M3257 793 c-3 -16 -9 -36 -12 -45 -6 -15 -1 -18 28 -18 l35 0 -17 45
c-18 52 -26 56 -34 18z"/>
    </g>
</svg>
