<?xml version="1.0" standalone="no"?>
<!DOCTYPE svg PUBLIC "-//W3C//DTD SVG 20010904//EN"
        "http://www.w3.org/TR/2001/REC-SVG-20010904/DTD/svg10.dtd">
<svg version="1.0" xmlns="http://www.w3.org/2000/svg"
     width="256.000000pt" height="256.000000pt" viewBox="0 0 256.000000 256.000000">

    <g transform="translate(0.000000,256.000000) scale(0.100000,-0.100000)" fill="#A9B1BF" stroke="none">
        <path d="M1085 2519 c-82 -16 -267 -52 -410 -80 -352 -67 -359 -69 -363 -97 -4 -27 3 -27 101 -8 77 16 367 72 670
        131 196 39 220 39 369 9 22 -4 527 -90 766 -129 27 -5 32 -3 32 14 0 11 -5 23 -10 26 -6 3 -101 22 -213 41 -111 19
        -308 53 -437 76 -129 22 -262 42 -295 44 -38 2 -116 -8 -210 -27z"/>
        <path d="M1205 2419 c-166 -32 -278 -52 -510 -94 -143 -25 -287 -52 -320 -59 l-60 -12 -3 -67 c-2 -37 -1 -67 2 -67
        3 0 29 10 58 21 172 69 367 124 548 156 164 28 570 26 740 -5 144 -26 384 -89 503 -132 44 -17 82 -30 84 -30 8 0 2
        139 -6 144 -5 4 -35 10 -68 15 -62 9 -423 66 -668 106 -198 32 -240 36 -300 24z"/>
        <path d="M1011 2259 c-88 -10 -278 -49 -366 -76 -105 -32 -251 -86 -274 -100l-23 -15 7 -341 c8 -383 18 -461 81
        -645 155 -453 421 -819 746 -1024 50 -32 94 -58 98 -58 17 0 209 136 274 193 303 269 572 751 636 1142 7 46 10 189
        8 415 l-3 344 -95 32 c-172 59 -368 106 -540 129 -109 15 -426 17 -549 4z m296 -111 c-3 -10 -1 -18 4 -18 5 0 9 11
        9 24 0 37 12 38 49 5 19 -16 40 -29 48 -29 8 0 26 -9 40 -20 16 -12 41 -20 64 -20 21 0 41 -4 44 -10 4 -6 -7 -10
        -24 -10 -40 0 -39 -12 2 -29 74 -32 97 -44 97 -52 0 -9 -46 -3 -94 12 -45 14 -50 11 -19 -15 15 -13 42 -27 60 -30
        17 -4 37 -14 44 -22 12 -14 2 -14 -73 1 -28 5 -21 -3 22 -25 22 -11 40 -23 40 -26 0 -8 -61 6 -92 22 -17 9 -28 10
        -28 4 0 -5 7 -10 15 -10 14 0 105 -82 105 -94 0 -4 -17 2 -37 13 -78 39 -87 36 -38 -13 25 -25 50 -46 55 -46 6 0 10
        -4 10 -10 0 -16 -27 -12 -62 10 -45 27 -71 25 -33 -3 74 -54 103 -103 39 -65 l-37 21 12 -21 c6 -12 24 -28 39 -36
        l27 -15 -29 -1 c-23 0 -26 -3 -17 -14 9 -11 2 -12 -41 -9 -43 3 -48 1 -30 -7 13 -5 35 -19 49 -30 18 -14 33 -18 51
        -13 17 4 23 2 18 -6 -10 -15 -49 -14 -94 4 l-37 15 28 -21 c33 -25 36 -44 5 -28 l-23 12 23 -25 c30 -33 28 -43 -5
        -20 -16 10 -43 24 -60 30 -35 12 -36 11 -36 -39 0 -36 47 -111 92 -147 82 -66 149 -141 167 -187 19 -50 22 -52 70
        -29 75 36 98 120 70 254 -21 97 -20 123 3 169 19 36 91 102 91 83 0 -5 -7 -15 -16 -23 -22 -18 -54 -84 -54 -111 0
        -21 2 -20 35 12 19 19 37 42 41 52 3 10 10 18 15 18 17 0 9 -27 -21 -71 -30 -44 -41 -104 -18 -97 6 2 21 22 32 44
        16 30 21 35 24 20 2 -10 -5 -36 -17 -56 -18 -33 -21 -52 -19 -141 3 -119 -11 -158 -71 -190 -34 -18 -34 -18 -32 -85
        2 -45 -1 -64 -8 -59 -6 3 -11 21 -11 39 0 18 -7 41 -16 52 -14 18 -15 18 -4 -4 15 -32 3 -85 -31 -132 -16 -22 -29
        -45 -29 -52 0 -9 -3 -9 -12 0 -8 8 -4 26 16 73 19 40 25 64 18 71 -7 7 -12 0 -17 -21 -9 -44 -30 -54 -22 -10 12 61
        12 68 4 71 -5 2 -15 -14 -22 -36 -15 -44 -52 -85 -112 -127 -51 -35 -60 -62 -40 -120 8 -24 12 -50 8 -56 -4 -7 -28
        -26 -54 -43 -26 -16 -62 -50 -79 -75 -18 -25 -35 -45 -40 -45 -4 0 -8 -9 -8 -20 0 -13 -10 -24 -27 -31 -32 -12 -93
        -3 -93 13 0 13 78 90 163 161 31 26 57 54 57 61 0 7 -14 42 -32 77 -43 87 -45 171 -5 244 15 27 27 56 27 64 0 8 -14
        -13 -32 -45 -26 -49 -32 -71 -32 -124 -1 -36 6 -86 14 -112 20 -67 10 -75 -72 -54 -86 22 -215 21 -239 0 -28 -25
        -112 6 -95 35 16 26 65 33 203 32 89 0 144 3 149 10 3 6 -10 43 -30 82 -40 79 -66 181 -51 196 7 7 30 -5 65 -31 30
        -23 48 -34 40 -24 -8 11 -40 37 -70 60 -75 55 -156 132 -181 173 -12 19 -38 45 -58 59 -125 84 -157 104 -164 104 -9
        0 0 -89 16 -148 7 -24 21 -49 34 -58 36 -23 27 -116 -10 -101 -8 3 -30 35 -50 71 -28 50 -39 85 -48 151 -6 48 -9
        100 -7 116 3 16 2 26 -2 22 -14 -16 -28 -72 -23 -91 3 -13 -4 -26 -23 -41 -40 -32 -57 -28 -51 12 13 78 39 134 122
        261 53 81 70 82 156 16 l66 -51 38 23 c80 48 174 164 199 246 6 19 4 22 -21 22 -15 0 -44 5 -63 10 -25 7 -43 7 -63
        -1 -21 -9 -31 -9 -39 -1 -8 8 -5 14 13 22 20 8 18 9 -13 4 -35 -6 -38 -4 -38 18 0 30 26 68 47 68 21 0 153 61 153
        70 0 5 -17 12 -37 18 -21 5 -30 10 -20 11 9 1 17 6 17 12 0 8 13 10 38 6 20 -4 31 -3 24 2 -7 4 -10 15 -6 25 9 23
        37 0 31 -26z m513 -1533 c0 -11 -59 -34 -103 -40 -39 -6 -50 -13 -62 -36 -21 -39 -19 -52 5 -44 31 10 24 -15 -7 -27
        -17 -7 -36 -27 -48 -51 -27 -54 -66 -82 -115 -82 -70 0 -114 69 -76 120 8 11 19 16 30 12 22 -9 20 -38 -4 -44 -24
        -6 -25 -20 -3 -45 34 -38 96 -11 132 60 10 19 9 22 -6 22 -16 1 -16 2 2 18 11 9 30 34 42 54 l22 38 -23 6 c-42 10
        -91 1 -94 -19 -3 -15 1 -17 25 -12 l28 6 -23 -20 c-19 -16 -28 -18 -43 -11 -27 15 -24 45 9 70 25 20 35 22 122 16
        52 -3 113 -2 135 3 53 12 55 12 55 6z m-725 -19 c12 0 24 -12 31 -31 17 -44 7 -49 -28 -15 -23 24 -38 30 -62 28 -48
        -5 -38 -30 23 -59 63 -30 91 -60 91 -99 0 -42 -9 -59 -41 -75 -67 -35 -150 -6 -164 56 -7 30 17 62 44 57 25 -5 26
        -38 2 -45 -28 -7 -26 -27 4 -47 50 -33 125 -9 125 39 0 27 -28 49 -73 60 -34 9 -87 57 -87 79 0 10 12 28 26 43 21
        21 31 24 57 18 18 -4 41 -8 52 -9z"/>
        <path d="M1275 2050 c-4 -6 -4 -10 -1 -10 2 0 11 -3 20 -6 9 -3 16 -2 16 4 0 14 -28 23 -35 12z"/>
        <path d="M1200 2040 c-8 -5 -10 -10 -5 -10 6 0 17 5 25 10 8 5 11 10 5 10 -5 0 -17 -5 -25 -10z"/>
        <path d="M1440 2020 c-9 -6 -10 -10 -3 -10 6 0 15 5 18 10 8 12 4 12 -15 0z"/>
        <path d="M1080 1979 c0 -5 5 -7 10 -4 6 3 10 8 10 11 0 2 -4 4 -10 4 -5 0 -10 -5 -10 -11z"/>
        <path d="M1280 1950 c-8 -5 -10 -10 -5 -10 6 0 17 5 25 10 8 5 11 10 5 10 -5 0 -17 -5 -25 -10z"/>
        <path d="M1450 1840 c0 -5 5 -10 11 -10 5 0 7 5 4 10 -3 6 -8 10 -11 10 -2 0 -4 -4 -4 -10z"/>
        <path d="M1316 1779 c-15 -28 -22 -48 -16 -44 13 8 53 85 47 91 -2 3 -17 -18 -31 -47z"/>
        <path d="M1497 1689 c7 -7 15 -10 18 -7 3 3 -2 9 -12 12 -14 6 -15 5 -6 -5z"/>
        <path d="M1167 1643 c-3 -5 14 -8 38 -8 24 0 41 3 39 7 -7 10 -71 10 -77 1z"/>
        <path d="M820 1620 c-6 -11 -8 -20 -6 -20 3 0 10 9 16 20 6 11 8 20 6 20 -3 0 -10 -9 -16 -20z"/>
        <path d="M852 1581 l-32 -40 33 5 c17 3 51 -1 75 -9 23 -8 42 -14 42 -13 0 2 -19 24 -43 50 l-43 46 -32 -39z"/>
        <path d="M930 1606 c0 -2 8 -10 18 -17 15 -13 16 -12 3 4 -13 16 -21 21 -21 13z"/>
        <path d="M1356 1443 c8 -32 32 -69 64 -98 13 -11 7 2 -13 28 -21 27 -37 57 -37 67 0 10 -5 22 -10 25 -7 4 -8 -3 -4 -22z"/>
        <path d="M930 1445 c14 -8 30 -14 35 -14 6 0 -1 6 -15 14 -14 8 -29 14 -35 14 -5 0 1 -6 15 -14z"/>
        <path d="M822 1400 c0 -14 2 -19 5 -12 2 6 2 18 0 25 -3 6 -5 1 -5 -13z"/>
        <path d="M1128 1302 c24 -33 118 -122 129 -122 4 0 -26 34 -67 75 -41 41 -76 75 -78 75 -2 0 6 -13 16 -28z"/>
        <path d="M1840 1244 c0 -39 -12 -67 -44 -103 -14 -16 -16 -22 -6 -19 29 9 60 69 60 114 0 24 -2 44 -5 44 -3 0 -5 -16 -5 -36z"/>
        <path d="M1420 1205 c-20 -24 -6 -28 15 -5 10 11 13 20 8 20 -6 0 -16 -7 -23 -15z"/>
        <path d="M1620 1048 c0 -25 3 -29 10 -18 13 20 13 50 0 50 -5 0 -10 -15 -10 -32z"/>
        <path d="M1387 973 c-4 -3 -7 -13 -7 -22 1 -13 3 -13 11 2 11 19 8 33 -4 20z"/>
        <path d="M1205 810 c3 -5 16 -10 28 -9 21 0 21 1 2 9 -28 12 -37 12 -30 0z"/>
        <path d="M1395 650 c-16 -17 -16 -20 -3 -15 9 4 19 13 22 21 7 19 2 18 -19 -6z"/>
    </g>
</svg>
