<?xml version="1.0" encoding="UTF-8"?>
<!DOCTYPE svg PUBLIC "-//W3C//DTD SVG 1.1//EN" "http://www.w3.org/Graphics/SVG/1.1/DTD/svg11.dtd">
<svg xmlns="http://www.w3.org/2000/svg" version="1.1" width="256px" height="256px"
     style="fill-rule:evenodd; clip-rule:evenodd">
    <g>
        <path fill="#A9B1BF"
              d="M 255.5,117.5 C 255.5,123.833 255.5,130.167 255.5,136.5C 251.447,147.388 244.78,156.555 235.5,164C
              208.897,181.423 179.563,191.089 147.5,193C 104.643,197.162 64.3094,189.162 26.5,169C 14.0991,161.333
              5.09913,150.833 -0.5,137.5C -0.5,130.833 -0.5,124.167 -0.5,117.5C 7.65035,98.8536 21.317,85.6869 40.5,78C
              94.6927,56.4116 149.359,55.0783 204.5,74C 222.084,80.267 236.918,90.4337 249,104.5C 251.213,108.925
              253.379,113.259 255.5,117.5 Z M 121.5,73.5 C 144.902,73.1336 167.902,75.9669 190.5,82C 191.672,82.4186
              192.672,83.0853 193.5,84C 169.641,101.756 142.975,113.256 113.5,118.5C 103.078,118.006 99.2445,112.673
              102,102.5C 104.248,94.6702 107.582,87.3369 112,80.5C 114.79,77.535 117.957,75.2016 121.5,73.5 Z M
              81.5,77.5 C 83.3547,77.272 84.1881,77.9387 84,79.5C 76.2782,89.5555 68.9449,99.8889 62,110.5C
              53.3183,127.198 44.6516,143.865 36,160.5C 3.22802,138.063 3.39469,115.896 36.5,94C 50.9137,86.5877
              65.9137,81.0877 81.5,77.5 Z M 217.5,94.5 C 228.429,99.5949 236.596,107.595 242,118.5C 244.969,131.401
              241.469,142.234 231.5,151C 213.75,165.585 193.417,173.918 170.5,176C 189.869,151.111 205.536,123.944
              217.5,94.5 Z M 134.5,136.5 C 139.599,136.175 144.599,136.675 149.5,138C 152.839,139.886 154.173,142.719
              153.5,146.5C 152.28,159.439 146.947,170.273 137.5,179C 133.438,180.346 129.272,181.179 125,181.5C
              109.368,180.791 93.8684,178.957 78.5,176C 72.5325,174.928 66.8658,173.095 61.5,170.5C 70.9996,162.243
              81.6662,155.743 93.5,151C 107.022,145.439 120.689,140.606 134.5,136.5 Z"/>
    </g>
</svg>
