<?xml version="1.0" standalone="no"?>
<!DOCTYPE svg PUBLIC "-//W3C//DTD SVG 20010904//EN"
        "http://www.w3.org/TR/2001/REC-SVG-20010904/DTD/svg10.dtd">
<svg version="1.0" xmlns="http://www.w3.org/2000/svg"
     width="262.000000pt" height="208.000000pt" viewBox="0 0 262.000000 208.000000">
    <g transform="translate(0.000000,208.000000) scale(0.100000,-0.100000)"
       fill="#A9B1BF">
        <path d="M1150 2076 c-3 -3 -28 -7 -56 -10 -60 -5 -124 -16 -144 -23 -8 -3 -22 -7 -30 -8 -26
        -3 -133 -36 -170 -52 -167 -71 -266 -125 -358 -197 -78 -60 -202 -191 -247 -262 -37 -57 -94
        -170 -99 -196 -2 -7 -6 -20 -9 -28 -28 -74 -32 -106 -32 -261 0 -126 3 -170 14 -182 7 -10 11
        -17 8 -17 -19 0 75 -224 108 -257 15 -14 38 -17 49 -6 3 4 14 8 23 9 9 2 42 13 74 25 55 20 73 39 49
        54 -25 16 -120 179 -145 250 -33 94 -45 247 -26 336 50 235 241 432 530 547 47 19 93 35 101 37 147 29
        241 44 315 50 104 8 324 -10 342 -28 10 -9 2 -32 -34 -107 -26 -52 -54 -111 -64 -130 -26 -55 -161 -364
        -163 -375 -3 -16 -89 -188 -103 -205 -145 -182 -138 -174 -223 -248 -127 -110 -330 -238 -503 -317 -58 -27
        -87 -45 -87 -57 0 -32 207 -186 339 -253 65 -32 241 -97 241 -89 0 4 6 2 13 -4 21 -18 254 -60 367 -67 304
        -19 668 76 912 239 120 79 278 233 321 312 7 12 26 46 44 76 79 132 123 348 103 499 -12 92 -36 187 -52 207
        -6 6 -8 12 -4 12 10 0 -69 151 -108 205 -53 74 -166 184 -182 178 -16 -6 -104 -158 -104 -178 0 -7 14 -25 31
        -39 67 -56 193 -223 205 -271 3 -14 9 -25 13 -25 4 0 8 -6 9 -12 0 -7 11 -44 22 -83 28 -91 30 -235 5 -320
        -90 -306 -351 -512 -735 -581 -117 -21 -378 -23 -500 -5 -47 8 -93 14 -102 15 -10 1 -21 5 -24 9 -4 4 -16 7
        -28 7 -33 0 -185 49 -283 92 -70 30 -93 45 -93 59 0 21 24 30 85 31 146 3 398 36 430 56 5 4 18 8 28 9 9 2
        45 14 79 28 165 67 307 203 396 380 38 76 82 185 75 185 -3 0 -1 6 5 13 9 10 79 174 86 202 2 6 15 37 31 70 15 33
        28 65 29 70 3 16 114 232 164 318 52 91 55 85 -58 144 -135 71 -346 139 -490 158 -66 9 -384 18 -390 11z"/>
    </g>
</svg>
