<?xml version="1.0" encoding="UTF-8"?>
<!DOCTYPE svg PUBLIC "-//W3C//DTD SVG 1.1//EN" "http://www.w3.org/Graphics/SVG/1.1/DTD/svg11.dtd">
<svg xmlns="http://www.w3.org/2000/svg" version="1.1" width="432px" height="432px"
     style="fill-rule:evenodd; clip-rule:evenodd">
    <g>
        <path fill="#A9B1BF"
              d="M 214.5,-0.5 C 215.167,-0.5 215.833,-0.5 216.5,-0.5C 262.11,17.6351 304.443,41.4684 343.5,71C
              352.327,77.9955 360.66,85.4955 368.5,93.5C 367.721,101.856 366.721,110.189 365.5,118.5C 366.001,111.163
              366.168,103.83 366,96.5C 321.933,56.8445 271.933,26.5112 216,5.5C 160.067,26.4481 110.067,56.7815 66,96.5C
              65.5671,104.509 65.7338,112.509 66.5,120.5C 65.1665,111.565 63.9998,102.565 63,93.5C 61.5314,101.997
              61.0314,110.664 61.5,119.5C 60.3431,111.01 60.1764,102.343 61,93.5C 106.632,53.4173 157.798,22.084
              214.5,-0.5 Z"/>
    </g>
    <g>
        <path fill="#A9B1BF"
              d="M 221.5,35.5 C 220.791,36.404 219.791,36.7373 218.5,36.5C 218.5,33.1667 218.5,29.8333 218.5,26.5C
              216.833,26.5 215.167,26.5 213.5,26.5C 213.82,29.8984 213.487,33.2317 212.5,36.5C 211.893,36.3764
              211.56,36.0431 211.5,35.5C 212.479,32.3752 212.813,29.0419 212.5,25.5C 214.833,25.5 217.167,25.5
              219.5,25.5C 218.931,29.3293 219.598,32.6627 221.5,35.5 Z"/>
    </g>
    <g>
        <path fill="#A9B1BF"
              d="M 195.5,32.5 C 198.96,32.5254 202.294,33.1921 205.5,34.5C 205.167,35.1667 204.833,35.8333 204.5,36.5C
              200.82,37.7641 197.153,37.7641 193.5,36.5C 191.65,37.2418 190.984,38.2418 191.5,39.5C 190.692,39.1924
              190.025,38.6924 189.5,38C 190.267,36.5295 190.933,35.0295 191.5,33.5C 192.708,32.7659 194.041,32.4326
              195.5,32.5 Z"/>
    </g>
    <g>
        <path fill="#A9B1BF"
              d="M 195.5,32.5 C 200.086,31.1081 204.42,31.7748 208.5,34.5C 207.522,34.811 206.855,35.4777 206.5,36.5C
              207.641,37.4255 207.641,38.2588 206.5,39C 209.072,39.4315 210.406,40.9315 210.5,43.5C 207.477,40.4897
              203.81,38.823 199.5,38.5C 195.763,39.3898 192.097,40.2231 188.5,41C 187.313,39.9805 186.313,38.8139
              185.5,37.5C 187.264,35.7224 189.264,34.3891 191.5,33.5C 190.933,35.0295 190.267,36.5295 189.5,38C
              190.025,38.6924 190.692,39.1924 191.5,39.5C 190.984,38.2418 191.65,37.2418 193.5,36.5C 197.153,37.7641
              200.82,37.7641 204.5,36.5C 204.833,35.8333 205.167,35.1667 205.5,34.5C 202.294,33.1921 198.96,32.5254
              195.5,32.5 Z"/>
    </g>
    <g>
        <path fill="#A9B1BF"
              d="M 221.5,35.5 C 230.392,29.6509 238.725,30.4842 246.5,38C 245,39.5 243.5,41 242,42.5C 234.432,36.7368
              227.432,37.4034 221,44.5C 216.874,55.9264 220.707,62.5931 232.5,64.5C 236.099,64.7794 239.266,63.7794
              242,61.5C 243.847,62.1693 245.014,63.5026 245.5,65.5C 239.211,71.5228 231.877,73.0228 223.5,70C
              222.034,69.3645 220.7,68.5312 219.5,67.5C 218.513,70.7683 218.18,74.1016 218.5,77.5C 216.076,77.8076
              213.743,77.4742 211.5,76.5C 212.122,73.2331 212.122,70.2331 211.5,67.5C 202.198,73.352 193.531,72.6854
              185.5,65.5C 186.313,64.1861 187.313,63.0195 188.5,62C 190.563,62.5255 192.563,63.3588 194.5,64.5C
              198.351,65.8095 202.351,65.8095 206.5,64.5C 206.863,63.8165 207.196,63.1499 207.5,62.5C 212.828,56.8859
              213.828,50.5526 210.5,43.5C 210.406,40.9315 209.072,39.4315 206.5,39C 207.641,38.2588 207.641,37.4255
              206.5,36.5C 206.855,35.4777 207.522,34.811 208.5,34.5C 209.609,34.5569 210.609,34.8902 211.5,35.5C
              211.56,36.0431 211.893,36.3764 212.5,36.5C 213.487,33.2317 213.82,29.8984 213.5,26.5C 215.167,26.5
              216.833,26.5 218.5,26.5C 218.5,29.8333 218.5,33.1667 218.5,36.5C 219.791,36.7373 220.791,36.404
              221.5,35.5 Z"/>
    </g>
    <g>
        <path fill="#A9B1BF"
              d="M 207.5,62.5 C 207.196,63.1499 206.863,63.8165 206.5,64.5C 202.351,65.8095 198.351,65.8095 194.5,64.5C
              199.031,64.8501 203.364,64.1834 207.5,62.5 Z"/>
    </g>
    <g>
        <path fill="#A9B1BF"
              d="M 66.5,120.5 C 67.0318,126.152 67.3651,131.819 67.5,137.5C 67.1561,142.122 67.8227,146.455 69.5,150.5C
              71.5002,163.501 73.5002,176.501 75.5,189.5C 73.9081,190.602 73.0748,189.935 73,187.5C 72.2303,188.598
              71.397,188.598 70.5,187.5C 69.6586,185.621 69.3253,183.621 69.5,181.5C 71.2076,175.921 70.2076,171.255
              66.5,167.5C 65.8857,163.865 65.5524,160.198 65.5,156.5C 65.7709,151.566 65.1042,146.9 63.5,142.5C
              63.5,141.833 63.5,141.167 63.5,140.5C 63.6123,134.274 62.9457,128.274 61.5,122.5C 61.5,121.5 61.5,120.5
              61.5,119.5C 61.0314,110.664 61.5314,101.997 63,93.5C 63.9998,102.565 65.1665,111.565 66.5,120.5 Z"/>
    </g>
    <g>
        <path fill="#A9B1BF"
              d="M 179.5,95.5 C 176.495,97.2766 173.162,98.2766 169.5,98.5C 172.505,96.7234 175.838,95.7234 179.5,95.5 Z"/>
    </g>
    <g>
        <path fill="#A9B1BF"
              d="M 347.5,154.5 C 345.735,157.123 345.068,160.123 345.5,163.5C 344.708,173.441 343.042,183.108
              340.5,192.5C 337.287,192.925 336.62,194.425 338.5,197C 336.975,201.37 336.308,205.87 336.5,210.5C
              330.065,240.678 319.731,269.345 305.5,296.5C 304.325,296.719 303.325,296.386 302.5,295.5C 302.65,293.034
              302.983,290.368 303.5,287.5C 313.951,264.149 322.617,240.149 329.5,215.5C 331.04,213.162 331.706,210.495
              331.5,207.5C 336.315,184.441 340.315,161.274 343.5,138C 311.384,123.181 278.384,110.514 244.5,100C
              235.039,97.051 225.372,95.2176 215.5,94.5C 205.628,95.2176 195.961,97.051 186.5,100C 153.351,109.827
              121.018,121.827 89.5,136C 88.6198,137.356 88.2865,138.856 88.5,140.5C 87.9306,137.937 86.5972,135.77
              84.5,134C 85.8825,132.539 85.5492,131.706 83.5,131.5C 111.456,118.864 140.122,107.864 169.5,98.5C
              173.162,98.2766 176.495,97.2766 179.5,95.5C 196.881,88.2455 214.881,86.4121 233.5,90C 248.059,93.5568
              262.392,97.8901 276.5,103C 301.066,112.02 325.4,121.52 349.5,131.5C 349.245,139.206 348.578,146.872
              347.5,154.5 Z"/>
    </g>
    <g>
        <path fill="#A9B1BF"
              d="M 188.5,106.5 C 186.485,107.924 184.152,108.59 181.5,108.5C 183.515,107.076 185.848,106.41 188.5,106.5 Z"/>
    </g>
    <g>
        <path fill="#A9B1BF"
              d="M 249.5,108.5 C 249.369,109.376 249.702,110.043 250.5,110.5C 253.309,110.852 255.642,112.018 257.5,114C
              255.561,115.432 254.228,117.265 253.5,119.5C 242.112,123.739 230.445,127.406 218.5,130.5C 216.5,130.5
              214.5,130.5 212.5,130.5C 205.926,128.946 199.593,126.946 193.5,124.5C 191.485,123.076 189.152,122.41
              186.5,122.5C 180.775,121.036 175.108,119.369 169.5,117.5C 168.942,116.21 167.942,115.377 166.5,115C
              168.584,114.303 170.251,113.136 171.5,111.5C 174.699,110.101 178.032,109.101 181.5,108.5C 184.152,108.59
              186.485,107.924 188.5,106.5C 202.358,100.531 216.691,99.3638 231.5,103C 237.711,104.546 243.711,106.38
              249.5,108.5 Z"/>
    </g>
    <g>
        <path fill="#A9B1BF"
              d="M 249.5,108.5 C 256.092,109.975 262.426,112.142 268.5,115C 263.696,117.213 258.696,118.713 253.5,119.5C
              254.228,117.265 255.561,115.432 257.5,114C 255.642,112.018 253.309,110.852 250.5,110.5C 249.702,110.043
              249.369,109.376 249.5,108.5 Z"/>
    </g>
    <g>
        <path fill="#A9B1BF"
              d="M 171.5,111.5 C 170.251,113.136 168.584,114.303 166.5,115C 167.942,115.377 168.942,116.21 169.5,117.5C
              167.076,116.97 164.743,116.136 162.5,115C 165.293,113.346 168.293,112.179 171.5,111.5 Z"/>
    </g>
    <g>
        <path fill="#A9B1BF"
              d="M 186.5,122.5 C 189.152,122.41 191.485,123.076 193.5,124.5C 190.848,124.59 188.515,123.924 186.5,122.5 Z"/>
    </g>
    <g>
        <path fill="#A9B1BF"
              d="M 212.5,130.5 C 214.5,130.5 216.5,130.5 218.5,130.5C 218.5,131.167 218.5,131.833 218.5,132.5C
              214.462,132.958 210.462,133.624 206.5,134.5C 208.918,133.707 210.918,132.374 212.5,130.5 Z"/>
    </g>
    <g>
        <path fill="#A9B1BF"
              d="M 61.5,122.5 C 62.9457,128.274 63.6123,134.274 63.5,140.5C 62.1901,134.712 61.5234,128.712 61.5,122.5 Z"/>
    </g>
    <g>
        <path fill="#A9B1BF"
              d="M 218.5,132.5 C 224.63,133.767 230.63,135.433 236.5,137.5C 236.415,138.995 237.081,139.995 238.5,140.5C
              240.813,141.838 243.48,141.838 246.5,140.5C 256.103,142.595 265.436,145.261 274.5,148.5C 276.025,150.036
              278.025,151.036 280.5,151.5C 279.482,152.852 278.149,153.852 276.5,154.5C 277.791,155.527 277.791,156.527
              276.5,157.5C 256.895,163.319 237.228,168.985 217.5,174.5C 215.5,174.167 213.5,173.833 211.5,173.5C
              210.209,173.737 209.209,173.404 208.5,172.5C 206.485,171.076 204.152,170.41 201.5,170.5C 199.485,169.076
              197.152,168.41 194.5,168.5C 177.376,164.236 160.376,159.569 143.5,154.5C 145.082,152.626 147.082,151.293
              149.5,150.5C 168.186,144.409 187.186,139.076 206.5,134.5C 210.462,133.624 214.462,132.958 218.5,132.5 Z"/>
    </g>
    <g>
        <path fill="#A9B1BF"
              d="M 236.5,137.5 C 240.048,138.13 243.381,139.13 246.5,140.5C 243.48,141.838 240.813,141.838 238.5,140.5C
              237.081,139.995 236.415,138.995 236.5,137.5 Z"/>
    </g>
    <g>
        <path fill="#A9B1BF"
              d="M 102.5,143.5 C 100.856,143.714 99.3561,143.38 98,142.5C 97.2188,148.143 98.0522,153.476 100.5,158.5C
              99.6906,160.071 99.3573,161.738 99.5,163.5C 100.5,163.5 101.5,163.5 102.5,163.5C 101.432,164.434
              100.099,164.768 98.5,164.5C 97.9328,157.099 96.9328,149.765 95.5,142.5C 98.0665,141.394 100.4,141.727
              102.5,143.5 Z"/>
    </g>
    <g>
        <path fill="#A9B1BF"
              d="M 67.5,137.5 C 68.5629,141.639 69.2296,145.972 69.5,150.5C 67.8227,146.455 67.1561,142.122 67.5,137.5 Z"/>
    </g>
    <g>
        <path fill="#A9B1BF"
              d="M 293.5,153.5 C 293.5,153.167 293.5,152.833 293.5,152.5C 307.308,148.048 321.308,144.548 335.5,142C
              334.06,149.077 332.893,156.244 332,163.5C 331.439,164.022 330.772,164.355 330,164.5C 317.6,161.198
              305.434,157.531 293.5,153.5 Z"/>
    </g>
    <g>
        <path fill="#A9B1BF"
              d="M 102.5,143.5 C 106.479,143.742 110.146,144.742 113.5,146.5C 118.012,148.756 122.679,151.089
              127.5,153.5C 128.696,153.154 128.696,152.654 127.5,152C 128.448,151.517 129.448,151.351 130.5,151.5C
              130.833,151.5 131.167,151.5 131.5,151.5C 132.091,152.151 132.757,152.818 133.5,153.5C 132.738,153.911
              131.738,154.077 130.5,154C 129.748,154.671 129.414,155.504 129.5,156.5C 128.833,156.5 128.167,156.5
              127.5,156.5C 124.833,156.5 122.167,156.5 119.5,156.5C 119.5,157.5 119.5,158.5 119.5,159.5C 113.935,161.244
              108.268,162.577 102.5,163.5C 101.5,163.5 100.5,163.5 99.5,163.5C 99.3573,161.738 99.6906,160.071
              100.5,158.5C 98.0522,153.476 97.2188,148.143 98,142.5C 99.3561,143.38 100.856,143.714 102.5,143.5 Z"/>
    </g>
    <g>
        <path fill="#A9B1BF"
              d="M 83.5,131.5 C 85.5492,131.706 85.8825,132.539 84.5,134C 86.5972,135.77 87.9306,137.937 88.5,140.5C
              89.4474,146.466 90.1141,152.466 90.5,158.5C 90.6981,165.928 90.0314,173.261 88.5,180.5C 85.103,165.077
              82.4364,149.41 80.5,133.5C 81.0047,132.081 82.0047,131.415 83.5,131.5 Z"/>
    </g>
    <g>
        <path fill="#A9B1BF"
              d="M 63.5,142.5 C 65.1042,146.9 65.7709,151.566 65.5,156.5C 64.1985,152.057 63.5319,147.391 63.5,142.5 Z"/>
    </g>
    <g>
        <path fill="#A9B1BF"
              d="M 113.5,146.5 C 119.433,147.592 125.1,149.259 130.5,151.5C 129.448,151.351 128.448,151.517 127.5,152C
              128.696,152.654 128.696,153.154 127.5,153.5C 122.679,151.089 118.012,148.756 113.5,146.5 Z"/>
    </g>
    <g>
        <path fill="#A9B1BF"
              d="M 149.5,150.5 C 147.082,151.293 145.082,152.626 143.5,154.5C 142.078,154.291 140.745,153.791 139.5,153C
              142.72,151.648 146.053,150.814 149.5,150.5 Z"/>
    </g>
    <g>
        <path fill="#A9B1BF"
              d="M 274.5,148.5 C 280.745,150.248 287.079,151.582 293.5,152.5C 293.5,152.833 293.5,153.167 293.5,153.5C
              287.799,154.675 282.132,156.009 276.5,157.5C 277.791,156.527 277.791,155.527 276.5,154.5C 278.149,153.852
              279.482,152.852 280.5,151.5C 278.025,151.036 276.025,150.036 274.5,148.5 Z"/>
    </g>
    <g>
        <path fill="#A9B1BF"
              d="M 131.5,151.5 C 134.097,151.643 136.431,152.477 138.5,154C 135.526,154.993 132.526,155.826 129.5,156.5C
              129.414,155.504 129.748,154.671 130.5,154C 131.738,154.077 132.738,153.911 133.5,153.5C 132.757,152.818
              132.091,152.151 131.5,151.5 Z"/>
    </g>
    <g>
        <path fill="#A9B1BF"
              d="M 127.5,156.5 C 125.064,157.871 122.397,158.871 119.5,159.5C 119.5,158.5 119.5,157.5 119.5,156.5C
              122.167,156.5 124.833,156.5 127.5,156.5 Z"/>
    </g>
    <g>
        <path fill="#A9B1BF"
              d="M 347.5,154.5 C 347.142,157.689 346.475,160.689 345.5,163.5C 345.068,160.123 345.735,157.123 347.5,154.5 Z"/>
    </g>
    <g>
        <path fill="#A9B1BF"
              d="M 364.5,162.5 C 364.376,167.049 363.709,171.382 362.5,175.5C 362.335,171.818 362.501,168.152 363,164.5C
              363.278,163.584 363.778,162.918 364.5,162.5 Z"/>
    </g>
    <g>
        <path fill="#A9B1BF"
              d="M 194.5,168.5 C 197.152,168.41 199.485,169.076 201.5,170.5C 198.848,170.59 196.515,169.924 194.5,168.5 Z"/>
    </g>
    <g>
        <path fill="#A9B1BF"
              d="M 201.5,170.5 C 204.152,170.41 206.485,171.076 208.5,172.5C 205.848,172.59 203.515,171.924 201.5,170.5 Z"/>
    </g>
    <g>
        <path fill="#A9B1BF"
              d="M 66.5,167.5 C 70.2076,171.255 71.2076,175.921 69.5,181.5C 68.0848,177.042 67.0848,172.375 66.5,167.5 Z"/>
    </g>
    <g>
        <path fill="#A9B1BF"
              d="M 368.5,93.5 C 369.824,97.107 370.491,101.107 370.5,105.5C 369.872,124.79 367.872,143.79 364.5,162.5C
              363.778,162.918 363.278,163.584 363,164.5C 362.501,168.152 362.335,171.818 362.5,175.5C 362.784,177.415
              362.451,179.081 361.5,180.5C 360.571,179.685 359.571,178.852 358.5,178C 359.308,177.692 359.975,177.192
              360.5,176.5C 359.652,174.591 359.318,172.591 359.5,170.5C 361.829,153.202 363.829,135.869 365.5,118.5C
              366.721,110.189 367.721,101.856 368.5,93.5 Z"/>
    </g>
    <g>
        <path fill="#A9B1BF"
              d="M 90.5,158.5 C 94.8963,186.17 101.23,213.503 109.5,240.5C 108.034,239.653 107.2,238.32 107,236.5C
              106.034,240.184 105.534,243.85 105.5,247.5C 97.5075,225.865 91.8408,203.532 88.5,180.5C 90.0314,173.261
              90.6981,165.928 90.5,158.5 Z"/>
    </g>
    <g>
        <path fill="#A9B1BF"
              d="M 211.5,173.5 C 213.5,173.833 215.5,174.167 217.5,174.5C 219.5,175.5 221.5,176.5 223.5,177.5C
              220.58,178.002 217.747,177.335 215,175.5C 213.644,176.38 212.144,176.714 210.5,176.5C 211.263,175.732
              212.263,175.232 213.5,175C 212.584,174.722 211.918,174.222 211.5,173.5 Z"/>
    </g>
    <g>
        <path fill="#A9B1BF"
              d="M 223.5,177.5 C 239.023,181.563 254.356,186.23 269.5,191.5C 271.845,194.075 274.845,195.075 278.5,194.5C
              281.128,194.536 282.795,195.203 283.5,196.5C 280.751,196.726 278.084,196.393 275.5,195.5C 273.448,196.611
              272.114,198.277 271.5,200.5C 254.363,206.434 237.03,211.768 219.5,216.5C 215.802,216.448 212.135,216.114
              208.5,215.5C 190.213,210.434 172.213,204.767 154.5,198.5C 153.942,197.21 152.942,196.377 151.5,196C
              153.879,195.284 155.879,194.117 157.5,192.5C 160.112,191.629 162.779,190.963 165.5,190.5C 168.313,190.452
              170.979,189.785 173.5,188.5C 174.086,188.709 174.586,189.043 175,189.5C 176.98,188.251 178.813,186.918
              180.5,185.5C 180.833,185.5 181.167,185.5 181.5,185.5C 184.716,185.655 187.383,184.655 189.5,182.5C
              196.384,180.094 203.384,178.094 210.5,176.5C 212.144,176.714 213.644,176.38 215,175.5C 217.747,177.335
              220.58,178.002 223.5,177.5 Z"/>
    </g>
    <g>
        <path fill="#A9B1BF"
              d="M 104.5,183.5 C 103.596,184.209 103.263,185.209 103.5,186.5C 102.218,185.292 102.218,183.958 103.5,182.5C
              104.107,182.624 104.44,182.957 104.5,183.5 Z"/>
    </g>
    <g>
        <path fill="#A9B1BF"
              d="M 189.5,182.5 C 187.383,184.655 184.716,185.655 181.5,185.5C 183.936,184.129 186.603,183.129 189.5,182.5 Z"/>
    </g>
    <g>
        <path fill="#A9B1BF"
              d="M 326.5,190.5 C 326.5,188.833 326.5,187.167 326.5,185.5C 324.833,185.5 323.167,185.5 321.5,185.5C
              323.599,184.388 325.933,183.721 328.5,183.5C 328.279,186.067 327.612,188.401 326.5,190.5 Z"/>
    </g>
    <g>
        <path fill="#A9B1BF"
              d="M 321.5,185.5 C 323.167,185.5 324.833,185.5 326.5,185.5C 326.5,187.167 326.5,188.833 326.5,190.5C
              326.218,194.574 325.552,198.574 324.5,202.5C 323.065,203.913 322.065,205.58 321.5,207.5C 315.24,205.079
              309.073,202.412 303,199.5C 301.989,200.337 300.822,200.67 299.5,200.5C 297.708,200.634 296.042,200.301
              294.5,199.5C 294.52,197.857 293.853,196.524 292.5,195.5C 293.602,194.824 294.602,194.158 295.5,193.5C
              303.882,190.233 312.549,187.566 321.5,185.5 Z"/>
    </g>
    <g>
        <path fill="#A9B1BF"
              d="M 180.5,185.5 C 178.813,186.918 176.98,188.251 175,189.5C 174.586,189.043 174.086,188.709 173.5,188.5C
              170.979,189.785 168.313,190.452 165.5,190.5C 170.255,188.387 175.255,186.721 180.5,185.5 Z"/>
    </g>
    <g>
        <path fill="#A9B1BF"
              d="M 104.5,183.5 C 117.908,187.303 131.241,191.303 144.5,195.5C 144.167,196.167 143.833,196.833
              143.5,197.5C 133.87,200.324 124.204,202.991 114.5,205.5C 111.224,205.856 108.557,204.856 106.5,202.5C
              104.988,197.271 103.988,191.938 103.5,186.5C 103.263,185.209 103.596,184.209 104.5,183.5 Z"/>
    </g>
    <g>
        <path fill="#A9B1BF"
              d="M 269.5,191.5 C 272.785,191.928 275.785,192.928 278.5,194.5C 274.845,195.075 271.845,194.075 269.5,191.5 Z"/>
    </g>
    <g>
        <path fill="#A9B1BF"
              d="M 157.5,192.5 C 155.879,194.117 153.879,195.284 151.5,196C 152.942,196.377 153.942,197.21 154.5,198.5C
              151.529,198.565 148.862,197.731 146.5,196C 150.154,194.726 153.82,193.56 157.5,192.5 Z"/>
    </g>
    <g>
        <path fill="#A9B1BF"
              d="M 295.5,193.5 C 294.602,194.158 293.602,194.824 292.5,195.5C 293.853,196.524 294.52,197.857
              294.5,199.5C 282.509,196.661 282.842,194.661 295.5,193.5 Z"/>
    </g>
    <g>
        <path fill="#A9B1BF"
              d="M 144.5,195.5 C 145.757,196.623 145.424,197.289 143.5,197.5C 143.833,196.833 144.167,196.167
              144.5,195.5 Z"/>
    </g>
    <g>
        <path fill="#A9B1BF"
              d="M 283.5,196.5 C 279.784,198.405 275.784,199.739 271.5,200.5C 272.114,198.277 273.448,196.611
              275.5,195.5C 278.084,196.393 280.751,196.726 283.5,196.5 Z"/>
    </g>
    <g>
        <path fill="#A9B1BF"
              d="M 321.5,207.5 C 313.832,205.943 306.499,203.609 299.5,200.5C 300.822,200.67 301.989,200.337
              303,199.5C 309.073,202.412 315.24,205.079 321.5,207.5 Z"/>
    </g>
    <g>
        <path fill="#A9B1BF"
              d="M 340.5,192.5 C 339.767,198.751 338.434,204.751 336.5,210.5C 336.308,205.87 336.975,201.37
              338.5,197C 336.62,194.425 337.287,192.925 340.5,192.5 Z"/>
    </g>
    <g>
        <path fill="#A9B1BF"
              d="M 324.5,202.5 C 324.143,204.589 323.477,206.589 322.5,208.5C 321.893,208.376 321.56,208.043
              321.5,207.5C 322.065,205.58 323.065,203.913 324.5,202.5 Z"/>
    </g>
    <g>
        <path fill="#A9B1BF"
              d="M 106.5,202.5 C 108.557,204.856 111.224,205.856 114.5,205.5C 112.485,206.924 110.152,207.59
              107.5,207.5C 107.371,205.784 107.038,204.117 106.5,202.5 Z"/>
    </g>
    <g>
        <path fill="#A9B1BF"
              d="M 331.5,207.5 C 331.706,210.495 331.04,213.162 329.5,215.5C 329.565,212.572 330.232,209.905 331.5,207.5 Z"/>
    </g>
    <g>
        <path fill="#A9B1BF"
              d="M 208.5,215.5 C 212.135,216.114 215.802,216.448 219.5,216.5C 218.833,217.167 218.167,217.833
              217.5,218.5C 216.167,218.5 214.833,218.5 213.5,218.5C 211.928,217.313 210.261,216.313 208.5,215.5 Z"/>
    </g>
    <g>
        <path fill="#A9B1BF"
              d="M 213.5,218.5 C 214.833,218.5 216.167,218.5 217.5,218.5C 233.389,223.462 249.056,228.796 264.5,234.5C
              264.918,235.222 265.584,235.722 266.5,236C 266.167,236.333 265.833,236.667 265.5,237C 269.502,237.214
              270.836,239.047 269.5,242.5C 253.09,248.694 236.423,254.361 219.5,259.5C 217.167,259.5 214.833,259.5
              212.5,259.5C 196.307,254.737 180.307,249.403 164.5,243.5C 165.953,242.175 165.619,241.342 163.5,241C
              161.19,240.503 158.857,240.337 156.5,240.5C 156.167,239.833 155.833,239.167 155.5,238.5C 156.391,237.89
              157.391,237.557 158.5,237.5C 161.716,237.655 164.383,236.655 166.5,234.5C 182.101,229.015 197.768,223.682
              213.5,218.5 Z"/>
    </g>
    <g>
        <path fill="#A9B1BF"
              d="M 350.5,215.5 C 350.59,218.152 349.924,220.485 348.5,222.5C 348.41,219.848 349.076,217.515 350.5,215.5 Z"/>
    </g>
    <g>
        <path fill="#A9B1BF"
              d="M 118.5,227.5 C 117.167,227.5 115.833,227.5 114.5,227.5C 114.5,228.5 114.5,229.5 114.5,230.5C
              113.086,228.956 112.753,227.289 113.5,225.5C 115.336,226.028 117.003,226.694 118.5,227.5 Z"/>
    </g>
    <g>
        <path fill="#A9B1BF"
              d="M 348.5,223.5 C 348.59,226.152 347.924,228.485 346.5,230.5C 346.41,227.848 347.076,225.515 348.5,223.5 Z"/>
    </g>
    <g>
        <path fill="#A9B1BF"
              d="M 118.5,227.5 C 129.91,231.026 141.243,234.859 152.5,239C 142.393,243.315 132.06,247.148 121.5,250.5C
              118,244.336 115.666,237.67 114.5,230.5C 114.5,229.5 114.5,228.5 114.5,227.5C 115.833,227.5 117.167,227.5
              118.5,227.5 Z"/>
    </g>
    <g>
        <path fill="#A9B1BF"
              d="M 315.5,227.5 C 316.239,227.369 316.906,227.536 317.5,228C 315.821,230.565 315.154,233.398 315.5,236.5C
              314.627,241.451 312.961,246.118 310.5,250.5C 300.993,247.333 291.659,244 282.5,240.5C 282.557,239.391
              282.89,238.391 283.5,237.5C 294.097,233.968 304.764,230.635 315.5,227.5 Z"/>
    </g>
    <g>
        <path fill="#A9B1BF"
              d="M 315.5,227.5 C 316.601,226.402 317.934,226.235 319.5,227C 318.243,230.291 316.91,233.458 315.5,236.5C
              315.154,233.398 315.821,230.565 317.5,228C 316.906,227.536 316.239,227.369 315.5,227.5 Z"/>
    </g>
    <g>
        <path fill="#A9B1BF"
              d="M 166.5,234.5 C 164.383,236.655 161.716,237.655 158.5,237.5C 160.936,236.129 163.603,235.129 166.5,234.5 Z"/>
    </g>
    <g>
        <path fill="#A9B1BF"
              d="M 264.5,234.5 C 269.242,235.687 273.909,237.187 278.5,239C 275.852,241.05 272.852,242.216 269.5,242.5C
              270.836,239.047 269.502,237.214 265.5,237C 265.833,236.667 266.167,236.333 266.5,236C 265.584,235.722
              264.918,235.222 264.5,234.5 Z"/>
    </g>
    <g>
        <path fill="#A9B1BF"
              d="M 155.5,238.5 C 155.833,239.167 156.167,239.833 156.5,240.5C 155.325,240.719 154.325,240.386
              153.5,239.5C 153.957,238.702 154.624,238.369 155.5,238.5 Z"/>
    </g>
    <g>
        <path fill="#A9B1BF"
              d="M 283.5,237.5 C 282.89,238.391 282.557,239.391 282.5,240.5C 278.829,239.395 279.162,238.395 283.5,237.5 Z"/>
    </g>
    <g>
        <path fill="#A9B1BF"
              d="M 156.5,240.5 C 158.857,240.337 161.19,240.503 163.5,241C 165.619,241.342 165.953,242.175 164.5,243.5C
              161.603,242.871 158.936,241.871 156.5,240.5 Z"/>
    </g>
    <g>
        <path fill="#A9B1BF"
              d="M 109.5,240.5 C 109.5,240.833 109.5,241.167 109.5,241.5C 109.657,242.873 109.49,244.207 109,245.5C
              108.667,245.167 108.333,244.833 108,244.5C 107.148,245.571 106.315,246.571 105.5,247.5C 105.534,243.85
              106.034,240.184 107,236.5C 107.2,238.32 108.034,239.653 109.5,240.5 Z"/>
    </g>
    <g>
        <path fill="#A9B1BF"
              d="M 340.5,261.5 C 340.405,263.786 339.738,265.786 338.5,267.5C 338.025,264.918 338.692,262.918 340.5,261.5 Z"/>
    </g>
    <g>
        <path fill="#A9B1BF"
              d="M 212.5,259.5 C 214.833,259.5 217.167,259.5 219.5,259.5C 219.082,260.222 218.416,260.722 217.5,261C
              218.416,261.278 219.082,261.778 219.5,262.5C 216.432,262.547 213.432,263.047 210.5,264C 211.696,264.654
              211.696,265.154 210.5,265.5C 209.583,264.873 208.583,264.539 207.5,264.5C 209.598,263.065 211.931,261.898
              214.5,261C 213.584,260.722 212.918,260.222 212.5,259.5 Z"/>
    </g>
    <g>
        <path fill="#A9B1BF"
              d="M 132.5,269.5 C 131.655,270.671 130.989,272.005 130.5,273.5C 129.229,271.891 128.229,270.058 127.5,268C
              129.535,267.401 131.201,267.901 132.5,269.5 Z"/>
    </g>
    <g>
        <path fill="#A9B1BF"
              d="M 301.5,272.5 C 301.719,271.325 301.386,270.325 300.5,269.5C 299.304,269.846 299.304,270.346
               300.5,271C 298.19,271.497 295.857,271.663 293.5,271.5C 296.182,270.078 299.015,268.745 302,267.5C
               302.5,267.833 303,268.167 303.5,268.5C 303.006,270.026 302.339,271.359 301.5,272.5 Z"/>
    </g>
    <g>
        <path fill="#A9B1BF"
              d="M 301.5,272.5 C 299.147,279.539 295.981,286.206 292,292.5C 288.372,290.912 284.872,289.246 281.5,287.5C
              280.91,286.234 280.41,284.901 280,283.5C 278.173,284.184 276.673,283.517 275.5,281.5C 276.651,280.269
              277.817,280.269 279,281.5C 279.772,280.151 280.939,279.318 282.5,279C 280.381,278.658 280.047,277.825
              281.5,276.5C 285.203,274.321 289.203,272.655 293.5,271.5C 295.857,271.663 298.19,271.497 300.5,271C
              299.304,270.346 299.304,269.846 300.5,269.5C 301.386,270.325 301.719,271.325 301.5,272.5 Z"/>
    </g>
    <g>
        <path fill="#A9B1BF"
              d="M 132.5,269.5 C 141.057,272.459 149.39,275.792 157.5,279.5C 158.167,280.833 158.833,282.167 159.5,283.5C
              152.8,286.595 145.967,289.595 139,292.5C 135.6,286.371 132.766,280.037 130.5,273.5C 130.989,272.005
              131.655,270.671 132.5,269.5 Z"/>
    </g>
    <g>
        <path fill="#A9B1BF"
              d="M 281.5,276.5 C 280.047,277.825 280.381,278.658 282.5,279C 280.939,279.318 279.772,280.151 279,281.5C
              277.817,280.269 276.651,280.269 275.5,281.5C 276.673,283.517 278.173,284.184 280,283.5C 280.41,284.901
              280.91,286.234 281.5,287.5C 277.077,286.124 272.744,284.457 268.5,282.5C 267.583,283.127 266.583,283.461
              265.5,283.5C 265.5,282.833 265.5,282.167 265.5,281.5C 270.948,280.24 276.282,278.573 281.5,276.5 Z"/>
    </g>
    <g>
        <path fill="#A9B1BF"
              d="M 157.5,279.5 C 161.026,281.54 164.692,281.873 168.5,280.5C 167.167,281.833 167.167,283.167 168.5,284.5C
              166.634,283.986 164.8,283.32 163,282.5C 161.862,282.989 160.695,283.322 159.5,283.5C 158.833,282.167
              158.167,280.833 157.5,279.5 Z"/>
    </g>
    <g>
        <path fill="#A9B1BF"
              d="M 219.5,262.5 C 235.13,268.321 250.463,274.654 265.5,281.5C 265.5,282.167 265.5,282.833 265.5,283.5C
              249.51,289.948 233.51,296.615 217.5,303.5C 226.998,309.417 236.664,315.084 246.5,320.5C 246.826,322.661
              247.826,324.494 249.5,326C 248.748,326.671 248.414,327.504 248.5,328.5C 240.827,333.338 232.827,337.672
              224.5,341.5C 220.484,342.059 216.817,343.392 213.5,345.5C 202.474,339.991 191.808,333.991 181.5,327.5C
              181.389,326.883 181.056,326.383 180.5,326C 182.418,324.343 184.085,322.51 185.5,320.5C 194.779,314.521
              204.446,309.021 214.5,304C 199.223,297.191 183.889,290.691 168.5,284.5C 167.167,283.167 167.167,281.833
              168.5,280.5C 181.275,274.793 194.275,269.459 207.5,264.5C 208.583,264.539 209.583,264.873 210.5,265.5C
              211.696,265.154 211.696,264.654 210.5,264C 213.432,263.047 216.432,262.547 219.5,262.5 Z"/>
    </g>
    <g>
        <path fill="#A9B1BF"
              d="M 70.5,187.5 C 71.397,188.598 72.2303,188.598 73,187.5C 73.0748,189.935 73.9081,190.602 75.5,189.5C
              84.8491,237.549 101.516,282.883 125.5,325.5C 125.427,327.027 126.094,328.027 127.5,328.5C 148.732,362.415
              174.732,392.415 205.5,418.5C 205.657,419.873 205.49,421.207 205,422.5C 204.184,421.177 203.017,420.511
              201.5,420.5C 141.893,370.497 101.56,307.831 80.5,232.5C 76.3974,217.651 73.064,202.651 70.5,187.5 Z"/>
    </g>
    <g>
        <path fill="#A9B1BF"
              d="M 137.5,317.5 C 135.412,315.664 134.079,313.331 133.5,310.5C 136.131,309.131 136.798,309.798 135.5,312.5C
              137.005,313.842 137.672,315.508 137.5,317.5 Z"/>
    </g>
    <g>
        <path fill="#A9B1BF"
              d="M 359.5,170.5 C 359.318,172.591 359.652,174.591 360.5,176.5C 359.975,177.192 359.308,177.692 358.5,178C
              359.571,178.852 360.571,179.685 361.5,180.5C 357.448,208.38 350.448,235.38 340.5,261.5C 338.692,262.918
              338.025,264.918 338.5,267.5C 313.333,333.959 272.666,388.626 216.5,431.5C 215.833,431.5 215.167,431.5
              214.5,431.5C 209.873,428.209 205.54,424.542 201.5,420.5C 203.017,420.511 204.184,421.177 205,422.5C
              205.49,421.207 205.657,419.873 205.5,418.5C 208.797,420.783 212.131,423.116 215.5,425.5C 280.332,374.87
              323.999,309.87 346.5,230.5C 347.924,228.485 348.59,226.152 348.5,223.5C 348.5,223.167 348.5,222.833
              348.5,222.5C 349.924,220.485 350.59,218.152 350.5,215.5C 353.395,200.36 356.395,185.36 359.5,170.5 Z"/>
    </g>
    <g>
        <path fill="#A9B1BF"
              d="M 275.5,321.5 C 275.843,319.517 275.176,318.183 273.5,317.5C 275.225,316.095 277.225,315.595 279.5,316C
              278.303,318.015 276.97,319.849 275.5,321.5 Z"/>
    </g>
    <g>
        <path fill="#A9B1BF"
              d="M 159.5,318.5 C 155.107,318.457 154.774,318.957 158.5,320C 157.584,320.278 156.918,320.778 156.5,321.5C
              154.946,320.086 153.612,318.419 152.5,316.5C 155.179,315.659 157.512,316.325 159.5,318.5 Z"/>
    </g>
    <g>
        <path fill="#A9B1BF"
              d="M 303.5,287.5 C 302.983,290.368 302.65,293.034 302.5,295.5C 303.325,296.386 304.325,296.719 305.5,296.5C
              293.302,321.678 277.968,344.678 259.5,365.5C 259.461,364.417 259.127,363.417 258.5,362.5C 260.053,361.561
              261.387,360.394 262.5,359C 262.333,358.5 262.167,358 262,357.5C 260.855,357.619 259.688,357.952
              258.5,358.5C 275.752,336.346 290.752,312.68 303.5,287.5 Z"/>
    </g>
    <g>
        <path fill="#A9B1BF"
              d="M 165.5,320.5 C 169.149,321.828 172.815,323.161 176.5,324.5C 179.368,322.9 182.368,321.567 185.5,320.5C
              184.085,322.51 182.418,324.343 180.5,326C 181.056,326.383 181.389,326.883 181.5,327.5C 179.742,327.123
              178.075,326.456 176.5,325.5C 174.805,326.174 173.138,326.841 171.5,327.5C 171.719,326.325 171.386,325.325
              170.5,324.5C 168.083,324.006 166.416,322.672 165.5,320.5 Z"/>
    </g>
    <g>
        <path fill="#A9B1BF"
              d="M 273.5,317.5 C 275.176,318.183 275.843,319.517 275.5,321.5C 273.71,325.435 271.21,328.768 268,331.5C
              263.667,329.5 259.333,327.5 255,325.5C 252.721,326.391 250.554,327.391 248.5,328.5C 248.414,327.504
              248.748,326.671 249.5,326C 247.826,324.494 246.826,322.661 246.5,320.5C 249.22,321.942 252.054,323.275
              255,324.5C 261.074,321.865 267.24,319.532 273.5,317.5 Z"/>
    </g>
    <g>
        <path fill="#A9B1BF"
              d="M 159.5,318.5 C 161.786,318.595 163.786,319.262 165.5,320.5C 166.416,322.672 168.083,324.006
              170.5,324.5C 171.386,325.325 171.719,326.325 171.5,327.5C 168.898,329.101 166.064,330.435 163,331.5C
              160.076,328.651 157.91,325.317 156.5,321.5C 156.918,320.778 157.584,320.278 158.5,320C 154.774,318.957
              155.107,318.457 159.5,318.5 Z"/>
    </g>
    <g>
        <path fill="#A9B1BF"
              d="M 125.5,325.5 C 126.906,325.973 127.573,326.973 127.5,328.5C 126.094,328.027 125.427,327.027 125.5,325.5 Z"/>
    </g>
    <g>
        <path fill="#A9B1BF"
              d="M 224.5,341.5 C 221.909,343.281 219.575,345.281 217.5,347.5C 216.298,346.595 214.964,346.595 213.5,347.5C
              213.5,346.833 213.5,346.167 213.5,345.5C 216.817,343.392 220.484,342.059 224.5,341.5 Z"/>
    </g>
    <g>
        <path fill="#A9B1BF"
              d="M 217.5,347.5 C 226.801,351.481 235.467,356.481 243.5,362.5C 235.684,372.149 227.018,380.983 217.5,389C
              216.251,389.74 215.251,389.573 214.5,388.5C 214.027,387.094 213.027,386.427 211.5,386.5C 205.505,381.505
              199.839,376.172 194.5,370.5C 194.5,368.5 193.5,367.5 191.5,367.5C 190.04,365.537 188.373,363.704 186.5,362C
              195.236,356.633 204.236,351.799 213.5,347.5C 214.964,346.595 216.298,346.595 217.5,347.5 Z"/>
    </g>
    <g>
        <path fill="#A9B1BF"
              d="M 109.5,241.5 C 130.117,303.911 165.117,356.744 214.5,400C 216.631,399.602 218.631,398.602 220.5,397C
              234.065,384.936 246.731,372.103 258.5,358.5C 259.688,357.952 260.855,357.619 262,357.5C 262.167,358
              262.333,358.5 262.5,359C 261.387,360.394 260.053,361.561 258.5,362.5C 259.127,363.417 259.461,364.417
              259.5,365.5C 246.153,381.18 231.486,395.514 215.5,408.5C 183.614,382.96 157.614,352.627 137.5,317.5C
              137.672,315.508 137.005,313.842 135.5,312.5C 136.798,309.798 136.131,309.131 133.5,310.5C 121.745,290.649
              112.411,269.649 105.5,247.5C 106.315,246.571 107.148,245.571 108,244.5C 108.333,244.833 108.667,245.167
              109,245.5C 109.49,244.207 109.657,242.873 109.5,241.5 Z"/>
    </g>
    <g>
        <path fill="#A9B1BF"
              d="M 191.5,367.5 C 193.5,367.5 194.5,368.5 194.5,370.5C 193.167,369.833 192.167,368.833 191.5,367.5 Z"/>
    </g>
    <g>
        <path fill="#A9B1BF"
              d="M 211.5,386.5 C 213.027,386.427 214.027,387.094 214.5,388.5C 212.973,388.573 211.973,387.906 211.5,386.5 Z"/>
    </g>
</svg>
