<?xml version="1.0" encoding="UTF-8"?>
<!DOCTYPE svg PUBLIC "-//W3C//DTD SVG 1.1//EN" "http://www.w3.org/Graphics/SVG/1.1/DTD/svg11.dtd">
<svg xmlns="http://www.w3.org/2000/svg" version="1.1" width="1194px" height="1194px"
     style="fill-rule:evenodd; clip-rule:evenodd"
>
    <g>
        <path fill="#A9B1BF"
              d="M 565.5,-0.5 C 592.833,-0.5 620.167,-0.5 647.5,-0.5C 729.707,1.38796 811.374,9.88796 892.5,25C
              952.961,36.8214 1011.63,54.488 1068.5,78C 1082.39,82.8548 1094.56,90.3548 1105,100.5C 1113.1,111.117
              1117.43,123.117 1118,136.5C 1119.6,259.86 1107.6,381.86 1082,502.5C 1028.14,742.101 909.641,942.601
              726.5,1104C 696.261,1130.44 664.928,1155.44 632.5,1179C 624.807,1184.57 616.807,1189.4 608.5,1193.5C
              603.833,1193.5 599.167,1193.5 594.5,1193.5C 582.539,1187.38 571.206,1180.22 560.5,1172C 309.492,986.354
              157.992,738.521 106,428.5C 89.7611,329.488 82.7611,229.822 85,129.5C 88.3213,109.651 98.8213,95.1514
              116.5,86C 201.203,48.7392 289.537,24.4059 381.5,13C 442.594,5.80275 503.927,1.30275 565.5,-0.5 Z M
              552.5,174.5 C 546.788,174.687 541.121,174.354 535.5,173.5C 529.214,170.382 524.381,165.715 521,159.5C
              516.173,149.352 513.173,138.686 512,127.5C 511.121,112.131 511.454,96.7972 513,81.5C 514.514,72.4833
              517.681,64.15 522.5,56.5C 524.933,56.7271 526.599,55.7271 527.5,53.5C 528.167,53.5 528.5,53.1667
              528.5,52.5C 531.471,50.5574 533.471,47.8908 534.5,44.5C 549.954,34.352 563.787,36.352 576,50.5C
              583.484,60.9472 587.817,72.6139 589,85.5C 592.139,107.234 590.473,128.568 584,149.5C 580.363,156.61
              575.863,163.11 570.5,169C 564.83,171.946 558.83,173.779 552.5,174.5 Z M 684.5,172.5 C 678.588,174.456
              672.255,175.123 665.5,174.5C 662.842,171.985 660.675,168.985 659,165.5C 654.924,152.272 650.258,139.272
              645,126.5C 643.176,121.669 639.842,118.669 635,117.5C 631.846,116.988 630.18,118.321 630,121.5C
              629.667,138.5 629.333,155.5 629,172.5C 625.591,173.622 622.091,173.789 618.5,173C 615.313,172.999
              612.48,172.166 610,170.5C 609.814,127.263 610.314,84.0963 611.5,41C 626.907,40.1385 642.24,40.8052
              657.5,43C 672.417,45.5845 680.917,54.4178 683,69.5C 685.142,81.343 683.142,92.343 677,102.5C
              672.651,106.682 668.485,111.015 664.5,115.5C 671.176,134.528 677.842,153.528 684.5,172.5 Z M 728.5,44.5 C
              752.954,41.9626 767.954,52.6292 773.5,76.5C 773.124,78.3829 772.124,79.8829 770.5,81C 764.075,83.307
              757.908,82.807 752,79.5C 749.583,68.4158 742.75,63.5825 731.5,65C 726.663,69.5024 723.497,75.0024
              722,81.5C 716.867,103.368 717.534,125.034 724,146.5C 727.272,153.445 732.606,157.778 740,159.5C
              746.362,158.805 750.695,155.471 753,149.5C 754.018,145.709 754.851,141.875 755.5,138C 755.097,135.359
              754.097,133.026 752.5,131C 748.512,130.718 744.679,129.885 741,128.5C 739.216,122.561 739.049,116.561
              740.5,110.5C 750.928,109.674 761.261,110.507 771.5,113C 773.333,113.5 774.5,114.667 775,116.5C
              777.235,132.914 775.569,148.914 770,164.5C 765.163,173.316 757.663,178.149 747.5,179C 728.63,182.059
              714.796,175.225 706,158.5C 697.293,129.787 696.293,100.787 703,71.5C 706.621,57.7162 715.121,48.7162
              728.5,44.5 Z M 442.5,46.5 C 452.889,46.1302 463.223,46.6302 473.5,48C 484.411,50.5792 490.911,57.4125
              493,68.5C 494.796,76.6283 494.129,84.6283 491,92.5C 488.018,96.7967 485.851,101.463 484.5,106.5C
              486.671,110.859 489.505,114.859 493,118.5C 496.504,131.248 496.171,143.914 492,156.5C 484.294,170.946
              472.128,178.113 455.5,178C 444.537,179.57 433.537,180.737 422.5,181.5C 423.075,137.165 423.742,92.8314
              424.5,48.5C 430.712,48.4766 436.712,47.8099 442.5,46.5 Z M 795.5,50.5 C 802.064,51.646 808.564,52.9793
              815,54.5C 815.878,66.8217 816.545,79.155 817,91.5C 817.231,95.5841 817.898,99.5841 819,103.5C
              821.14,105.487 823.64,106.82 826.5,107.5C 834.689,108.979 842.856,110.312 851,111.5C 852.154,94.3076
              852.988,76.9743 853.5,59.5C 858.434,60.5752 863.434,61.2419 868.5,61.5C 869.194,94.4951 869.86,127.495
              870.5,160.5C 870.557,170.599 869.723,180.599 868,190.5C 867.225,192.223 865.892,193.223 864,193.5C
              860.875,192.804 857.875,191.804 855,190.5C 854.138,188.913 853.471,187.246 853,185.5C 852.667,167.5
              852.333,149.5 852,131.5C 843.478,129.301 834.811,127.634 826,126.5C 821.602,126.351 818.936,128.351
              818,132.5C 817.014,150.179 816.18,167.845 815.5,185.5C 810.481,185.248 805.481,184.748 800.5,184C
              798.387,182.016 797.22,179.516 797,176.5C 795.57,134.52 795.07,92.52 795.5,50.5 Z M 355.5,195.5 C
              354.833,195.5 354.167,195.5 353.5,195.5C 347.506,175.685 341.006,156.018 334,136.5C 331.704,130.145
              330.038,130.145 329,136.5C 328.232,151.515 328.399,166.515 329.5,181.5C 329.281,186.229 328.281,190.729
              326.5,195C 321.887,196.647 317.22,196.813 312.5,195.5C 310.857,187.955 310.024,180.289 310,172.5C
              308.991,137.796 309.658,103.129 312,68.5C 313.514,66.2344 315.681,65.0677 318.5,65C 322.871,64.1725
              327.205,64.3391 331.5,65.5C 339.842,87.1922 347.175,109.192 353.5,131.5C 354.167,134.167 354.833,134.167
              355.5,131.5C 362.954,109.046 370.121,86.3793 377,63.5C 378.841,56.483 383.341,53.1497 390.5,53.5C
              393.287,52.5233 396.287,52.19 399.5,52.5C 400.017,76.162 400.35,99.8286 400.5,123.5C 400.612,142.529
              400.112,161.529 399,180.5C 398.535,181.931 397.701,183.097 396.5,184C 391.868,184.181 387.368,185.014
              383,186.5C 382.228,186.355 381.561,186.022 381,185.5C 379.155,163.223 377.822,140.89 377,118.5C
              369.321,144.036 362.154,169.702 355.5,195.5 Z M 902.5,67.5 C 904.515,68.9238 906.848,69.5905 909.5,69.5C
              911.214,70.7384 913.214,71.405 915.5,71.5C 918.137,115.165 918.137,158.832 915.5,202.5C 909.043,202.257
              902.709,201.257 896.5,199.5C 895.03,155.473 895.363,111.473 897.5,67.5C 899.167,67.5 900.833,67.5
              902.5,67.5 Z M 254.5,78.5 C 257.187,78.3359 259.854,78.5026 262.5,79C 273.809,116.066 283.642,153.566
              292,191.5C 292.997,194.801 293.33,198.134 293,201.5C 286.987,203.975 280.82,204.975 274.5,204.5C
              272.806,202.446 271.639,200.112 271,197.5C 269.479,190.081 267.645,182.748 265.5,175.5C 258.816,175.329
              252.15,176.162 245.5,178C 242.804,178.69 240.637,180.19 239,182.5C 237.31,193.973 234.977,205.307
              232,216.5C 225.265,219.81 218.099,221.81 210.5,222.5C 219.836,180.819 229.336,139.152 239,97.5C
              240.134,91.077 242.968,85.577 247.5,81C 250.004,80.3024 252.337,79.4691 254.5,78.5 Z M 1011.5,96.5 C
              1011.93,97.7095 1012.6,98.7095 1013.5,99.5C 1013.33,130.506 1013.66,161.506 1014.5,192.5C 1014.85,204.317
              1013.85,215.983 1011.5,227.5C 1006.69,229.189 1002.86,227.855 1000,223.5C 986.773,196.051 974.94,168.051
              964.5,139.5C 964.631,138.624 964.298,137.957 963.5,137.5C 962.513,140.768 962.18,144.102 962.5,147.5C
              961.916,168.167 961.083,188.834 960,209.5C 959.592,211.41 958.425,212.41 956.5,212.5C 952.346,211.436
              948.179,210.436 944,209.5C 943.055,209.095 942.388,208.428 942,207.5C 940.835,197.542 940.168,187.542
              940,177.5C 939.5,144.835 939.333,112.168 939.5,79.5C 943.846,79.3343 948.179,79.501 952.5,80C
              955.562,81.0608 958.062,82.8941 960,85.5C 970.353,105.554 979.353,126.221 987,147.5C 993.755,161.306
              996.755,160.306 996,144.5C 996.333,127.167 996.667,109.833 997,92.5C 1001.67,94.3761 1006.5,95.7094
              1011.5,96.5 Z M 157.5,108.5 C 158.931,108.881 159.764,109.881 160,111.5C 160.888,119.815 161.554,128.149
              162,136.5C 162.248,164.178 162.748,191.845 163.5,219.5C 176.511,215.496 189.511,211.496 202.5,207.5C
              204.366,213.677 203.7,219.51 200.5,225C 182.143,232.896 163.643,240.396 145,247.5C 143.169,231.231
              142.169,214.898 142,198.5C 141.345,170.831 141.012,143.164 141,115.5C 146.624,113.243 152.124,110.91
              157.5,108.5 Z M 1040.5,108.5 C 1046.97,109.6 1053.13,111.6 1059,114.5C 1060.12,135.136 1060.62,155.802
              1060.5,176.5C 1060.33,194.833 1060.17,213.167 1060,231.5C 1059.83,236.864 1059.33,242.198 1058.5,247.5C
              1052.69,244.895 1046.69,242.895 1040.5,241.5C 1040.5,197.167 1040.5,152.833 1040.5,108.5 Z M 833.5,699.5 C
              832.388,701.599 831.721,703.933 831.5,706.5C 828.878,722.853 828.878,739.186 831.5,755.5C 831.721,758.067
              832.388,760.401 833.5,762.5C 833.334,769.841 833.5,777.174 834,784.5C 836.069,792.872 838.236,801.205
              840.5,809.5C 838.91,818.263 834.077,824.596 826,828.5C 825.055,828.095 824.388,827.428 824,826.5C
              823.667,824.833 823.333,823.167 823,821.5C 821.667,820.833 820.667,819.833 820,818.5C 816.865,820.801
              814.698,823.801 813.5,827.5C 812.372,828.262 811.205,828.929 810,829.5C 802.041,825.877 796.541,820.044
              793.5,812C 796.33,800.683 798.996,789.35 801.5,778C 800.648,775.583 799.981,773.083 799.5,770.5C
              800.779,760.104 802.446,749.771 804.5,739.5C 801.15,722.954 795.317,707.288 787,692.5C 785.686,690.188
              784.019,688.188 782,686.5C 771.077,693.381 760.577,700.881 750.5,709C 741.286,717.551 734.453,727.718
              730,739.5C 727.739,752.593 725.072,765.593 722,778.5C 718.808,787.026 712.974,792.859 704.5,796C
              689.517,797.531 674.517,798.697 659.5,799.5C 650.436,799.886 643.602,796.219 639,788.5C 635.2,777.435
              631.2,766.435 627,755.5C 624.458,749.635 621.125,744.301 617,739.5C 615.333,740.5 614,741.833 613,743.5C
              608.696,753.853 607.53,764.519 609.5,775.5C 608.811,777.444 608.311,779.444 608,781.5C 602.185,792.798
              597.185,804.465 593,816.5C 583.285,826.557 571.452,830.724 557.5,829C 555.379,825.826 555.046,822.493
              556.5,819C 554.875,816.18 552.875,815.847 550.5,818C 546.291,824.363 543.291,823.863 541.5,816.5C
              542.771,810.189 544.937,804.189 548,798.5C 554.287,789.878 560.953,781.545 568,773.5C 573.721,764.724
              578.388,755.391 582,745.5C 584.167,738.333 581.667,735.833 574.5,738C 562.537,746.081 554.037,756.915
              549,770.5C 540.309,780.19 531.309,789.523 522,798.5C 510.961,817.911 500.961,837.911 492,858.5C
              482.851,868.823 471.351,873.823 457.5,873.5C 457.685,869.756 458.352,866.089 459.5,862.5C 459.183,859.345
              457.517,858.178 454.5,859C 451.348,863.86 447.848,864.36 444,860.5C 440.72,852.152 440.72,843.819
              444,835.5C 456.176,820.002 470.676,807.169 487.5,797C 492.104,792.397 495.938,787.23 499,781.5C
              502.91,768.769 507.41,756.269 512.5,744C 512.128,741.291 510.628,739.457 508,738.5C 506.438,736.043
              505.438,733.376 505,730.5C 505.375,717.425 503.875,704.592 500.5,692C 499.151,687.443 496.317,684.276
              492,682.5C 490.739,682.759 489.739,683.426 489,684.5C 469.299,715.569 453.633,748.569 442,783.5C
              438.922,789.991 435.588,796.325 432,802.5C 417.901,817.999 411.901,836.332 414,857.5C 413.178,859.788
              412.511,862.122 412,864.5C 405.919,874.399 401.586,885.066 399,896.5C 396.985,903.057 392.818,907.557
              386.5,910C 377.415,913.203 368.081,914.536 358.5,914C 356.848,912.53 355.848,910.697 355.5,908.5C
              356.422,904.645 357.422,900.812 358.5,897C 358,895.5 357.5,894 357,892.5C 352.508,896.79 348.008,901.123
              343.5,905.5C 340.583,903.666 339.25,901 339.5,897.5C 342.387,884.109 348.887,872.775 359,863.5C
              365.512,848.473 374.512,835.139 386,823.5C 389.103,818.731 391.769,813.731 394,808.5C 395.157,786.869
              400.823,766.536 411,747.5C 412.313,743.58 413.313,739.58 414,735.5C 414.494,717.799 415.494,700.132
              417,682.5C 417.95,676.081 419.284,669.748 421,663.5C 430.76,639.794 436.093,615.127 437,589.5C
              443.619,560.934 455.619,534.934 473,511.5C 478.49,502.37 482.823,492.703 486,482.5C 488.341,463.793
              492.341,445.46 498,427.5C 506.338,409.496 519.171,395.662 536.5,386C 566.316,370.508 593.65,351.508
              618.5,329C 624.887,323.283 632.221,319.283 640.5,317C 643.5,316.333 646.5,316.333 649.5,317C
              672.635,324.879 695.969,332.046 719.5,338.5C 721.515,339.924 723.848,340.59 726.5,340.5C 737.191,343.706
              748.191,346.04 759.5,347.5C 765.686,347.166 770.186,344.166 773,338.5C 782.438,316.475 776.605,299.975
              755.5,289C 748.202,285.607 740.536,283.607 732.5,283C 693.514,281.001 654.514,279.334 615.5,278C
              602.823,277.132 590.156,276.132 577.5,275C 564.958,274.154 553.624,270.154 543.5,263C 538.991,259.117
              537.491,254.284 539,248.5C 542.842,238.313 549.342,230.147 558.5,224C 575.384,213.86 593.717,208.527
              613.5,208C 649.027,206.966 682.694,214.3 714.5,230C 716.394,231.079 716.727,232.413 715.5,234C
              700.06,234.207 684.727,232.873 669.5,230C 664.833,229.333 660.167,229.333 655.5,230C 654.483,231.049
              654.316,232.216 655,233.5C 656.579,235.041 658.413,236.208 660.5,237C 668.383,238.221 676.05,240.221
              683.5,243C 672.54,248.488 660.874,250.988 648.5,250.5C 638.081,250.049 627.748,248.882 617.5,247C
              604.36,242.952 591.194,239.119 578,235.5C 565.929,234.135 557.762,239.301 553.5,251C 554.083,253.499
              555.416,255.499 557.5,257C 569.748,261.437 582.414,263.77 595.5,264C 634.463,266.488 673.463,268.154
              712.5,269C 728.805,269.377 744.805,271.71 760.5,276C 790.508,289.184 801.341,311.684 793,343.5C
              791.13,350.276 788.963,356.943 786.5,363.5C 791.199,371.037 795.699,378.703 800,386.5C 803.079,396.071
              806.745,405.404 811,414.5C 821.219,427.27 828.552,441.603 833,457.5C 833.667,469.833 833.667,482.167
              833,494.5C 829.973,503.438 828.14,512.605 827.5,522C 828.558,532.625 830.391,543.125 833,553.5C
              833.373,562.674 833.873,571.841 834.5,581C 833.503,585.598 833.67,590.098 835,594.5C 839.133,599.634
              843.633,604.468 848.5,609C 854.951,615.386 861.951,621.053 869.5,626C 873.677,628.059 878.01,629.726
              882.5,631C 891.516,631.459 900.516,632.126 909.5,633C 909.957,633.414 910.291,633.914 910.5,634.5C
              898.583,653.953 881.249,661.787 858.5,658C 846.291,655.036 834.291,651.703 822.5,648C 822.043,648.414
              821.709,648.914 821.5,649.5C 825.235,659.206 829.069,668.873 833,678.5C 834.591,685.453 834.758,692.453
              833.5,699.5 Z"/>
    </g>
    <g>
        <path fill="#A9B1BF"
              d="M 446.5,48.5 C 448.517,47.126 450.517,47.2926 452.5,49C 450.517,50.7074 448.517,50.874 446.5,49.5C
              451.833,49.1667 451.833,48.8333 446.5,48.5 Z"/>
    </g>
    <g>
        <path fill="#A9B1BF"
              d="M 534.5,44.5 C 533.471,47.8908 531.471,50.5574 528.5,52.5C 527.922,51.453 527.256,51.6197 526.5,53C
              526.728,53.3988 527.062,53.5654 527.5,53.5C 526.599,55.7271 524.933,56.7271 522.5,56.5C 525.5,51.5
              529.5,47.5 534.5,44.5 Z"/>
    </g>
    <g>
        <path fill="#A9B1BF"
              d="M 390.5,54.5 C 390.833,55.8333 391.167,55.8333 391.5,54.5C 395.315,54.7117 395.315,55.3784 391.5,56.5C
              388.514,55.9432 388.18,55.2766 390.5,54.5 Z"/>
    </g>
    <g>
        <path fill="#A9B1BF"
              d="M 629.5,58.5 C 639.339,59.1934 648.672,61.6934 657.5,66C 663.115,70.9683 664.948,77.135 663,84.5C
              659.583,91.9658 653.75,96.1325 645.5,97C 641.167,97.6667 636.833,97.6667 632.5,97C 632,96.5 631.5,96
              631,95.5C 629.606,83.2196 629.106,70.8863 629.5,58.5 Z"/>
    </g>
    <g>
        <path fill="#A9B1BF"
              d="M 547.5,60.5 C 552.447,59.6276 556.613,60.9609 560,64.5C 564.973,72.0471 567.64,80.3804 568,89.5C
              568.667,101.833 568.667,114.167 568,126.5C 568.455,137.573 564.621,146.739 556.5,154C 548.891,156.784
              543.057,154.617 539,147.5C 535.219,139.264 533.219,130.598 533,121.5C 532.089,107.12 532.422,92.7864
              534,78.5C 536.443,70.8987 540.943,64.8987 547.5,60.5 Z"/>
    </g>
    <g>
        <path fill="#A9B1BF"
              d="M 444.5,65.5 C 452.466,64.8673 460.133,66.034 467.5,69C 475.116,77.3359 475.449,86.0026 468.5,95C
              460.92,98.6442 453.087,100.478 445,100.5C 444.5,88.8381 444.333,77.1714 444.5,65.5 Z"/>
    </g>
    <g>
        <path fill="#A9B1BF"
              d="M 902.5,67.5 C 905.152,67.4095 907.485,68.0762 909.5,69.5C 906.848,69.5905 904.515,68.9238 902.5,67.5 Z"/>
    </g>
    <g>
        <path fill="#A9B1BF" d="M 1125.5,87.5 C 1126.83,88.1667 1126.83,88.1667 1125.5,87.5 Z"/>
    </g>
    <g>
        <path fill="#A9B1BF" d="M 66.5,97.5 C 67.8333,98.1667 67.8333,98.1667 66.5,97.5 Z"/>
    </g>
    <g>
        <path fill="#A9B1BF"
              d="M 1011.5,96.5 C 1013.05,96.8212 1013.71,97.8212 1013.5,99.5C 1012.6,98.7095 1011.93,97.7095 1011.5,96.5 Z"/>
    </g>
    <g>
        <path fill="#A9B1BF" d="M 69.5,98.5 C 70.8333,99.1667 70.8333,99.1667 69.5,98.5 Z"/>
    </g>
    <g>
        <path fill="#A9B1BF" d="M 65.5,103.5 C 66.8333,104.167 66.8333,104.167 65.5,103.5 Z"/>
    </g>
    <g>
        <path fill="#A9B1BF"
              d="M 452.5,118.5 C 468.463,118.628 475.963,126.628 475,142.5C 472.31,154.285 464.81,159.951 452.5,159.5C
              450.013,159.218 447.347,159.218 444.5,159.5C 444.333,148.162 444.5,136.828 445,125.5C 446.171,121.677
              448.671,119.343 452.5,118.5 Z"/>
    </g>
    <g>
        <path fill="#A9B1BF"
              d="M 253.5,122.5 C 252.833,122.5 252.167,122.5 251.5,122.5C 252.167,119.833 252.833,119.833 253.5,122.5 Z"/>
    </g>
    <g>
        <path fill="#A9B1BF"
              d="M 251.5,122.5 C 252.167,122.5 252.833,122.5 253.5,122.5C 255.732,131.596 257.732,140.763 259.5,150C
              259.327,152.021 258.66,153.854 257.5,155.5C 254.571,157.312 251.405,158.646 248,159.5C 246.153,158.831
              244.986,157.497 244.5,155.5C 247.475,144.625 249.808,133.625 251.5,122.5 Z"/>
    </g>
    <g>
        <path fill="#A9B1BF"
              d="M 353.5,131.5 C 354.167,131.5 354.833,131.5 355.5,131.5C 354.833,134.167 354.167,134.167 353.5,131.5 Z"/>
    </g>
    <g>
        <path fill="#A9B1BF"
              d="M 964.5,139.5 C 963.833,142.167 963.167,144.833 962.5,147.5C 962.18,144.102 962.513,140.768 963.5,137.5C
              964.298,137.957 964.631,138.624 964.5,139.5 Z"/>
    </g>
    <g>
        <path fill="#A9B1BF"
              d="M 463.5,161.5 C 462.167,160.167 460.833,160.167 459.5,161.5C 458.761,161.631 458.094,161.464 457.5,161C
              460.167,159 462.833,159 465.5,161C 464.906,161.464 464.239,161.631 463.5,161.5 Z"/>
    </g>
    <g>
        <path fill="#A9B1BF"
              d="M 535.5,173.5 C 541.121,174.354 546.788,174.687 552.5,174.5C 547.684,175.65 542.684,175.816 537.5,175C
              536.584,174.722 535.918,174.222 535.5,173.5 Z"/>
    </g>
    <g>
        <path fill="#A9B1BF"
              d="M 684.5,172.5 C 685.404,173.209 685.737,174.209 685.5,175.5C 678.646,175.824 671.979,175.491
              665.5,174.5C 672.255,175.123 678.588,174.456 684.5,172.5 Z"/>
    </g>
    <g>
        <path fill="#A9B1BF"
              d="M 353.5,195.5 C 354.167,195.5 354.833,195.5 355.5,195.5C 354.833,198.167 354.167,198.167 353.5,195.5 Z"/>
    </g>
    <g>
        <path fill="#A9B1BF"
              d="M 653.5,240.5 C 648.36,241.488 643.026,241.821 637.5,241.5C 632.933,241.479 629.099,239.812 626,236.5C
              625.383,235.551 625.549,234.718 626.5,234C 635.887,234.404 644.887,236.57 653.5,240.5 Z"/>
    </g>
    <g>
        <path fill="#A9B1BF"
              d="M 653.5,240.5 C 654.043,240.56 654.376,240.893 654.5,241.5C 648.68,242.816 643.013,242.816 637.5,241.5C
              643.026,241.821 648.36,241.488 653.5,240.5 Z"/>
    </g>
    <g>
        <path fill="#A9B1BF"
              d="M 719.5,338.5 C 722.152,338.41 724.485,339.076 726.5,340.5C 723.848,340.59 721.515,339.924 719.5,338.5 Z"/>
    </g>
    <g>
        <path fill="#A9B1BF"
              d="M 833.5,699.5 C 833.829,702.228 833.163,704.562 831.5,706.5C 831.721,703.933 832.388,701.599 833.5,699.5 Z"/>
    </g>
    <g>
        <path fill="#A9B1BF"
              d="M 831.5,755.5 C 833.163,757.438 833.829,759.772 833.5,762.5C 832.388,760.401 831.721,758.067 831.5,755.5 Z"/>
    </g>
</svg>
