<?xml version="1.0" encoding="UTF-8"?>
<!DOCTYPE svg PUBLIC "-//W3C//DTD SVG 1.1//EN" "http://www.w3.org/Graphics/SVG/1.1/DTD/svg11.dtd">
<svg xmlns="http://www.w3.org/2000/svg" version="1.1" width="343px" height="343px"
     style="fill-rule:evenodd; clip-rule:evenodd"
>
    <g>
        <path fill="#A9B1BF"
              d="M 146.5,-0.5 C 162.5,-0.5 178.5,-0.5 194.5,-0.5C 243.227,3.90868 287.893,19.742 328.5,47C 331.63,49.128
              334.463,51.628 337,54.5C 345.205,155.596 311.038,239.096 234.5,305C 215.533,320.317 194.866,332.817
              172.5,342.5C 170.833,342.5 169.167,342.5 167.5,342.5C 85.4377,302.911 32.6044,238.911 9,150.5C
              1.53206,119.862 -0.467935,88.8617 3,57.5C 3.44966,55.481 4.283,53.6477 5.5,52C 47.6386,21.5635
              94.6386,4.06345 146.5,-0.5 Z M 153.5,7.5 C 204.981,5.16222 253.648,15.6622 299.5,39C 309.876,44.7145
              319.709,51.2145 329,58.5C 335.747,162.486 297.914,245.986 215.5,309C 201.391,318.723 186.391,326.889
              170.5,333.5C 135.487,318.991 105.654,297.324 81,268.5C 80.5,242.502 80.3334,216.502 80.5,190.5C
              149.834,190.667 219.167,190.5 288.5,190C 297.833,162.995 297.833,135.995 288.5,109C 219.167,108.5
              149.834,108.333 80.5,108.5C 80.3334,79.8314 80.5,51.1647 81,22.5C 104.648,14.4711 128.815,9.47109
              153.5,7.5 Z M 74.5,243.5 C 74.8222,249.358 74.4889,255.025 73.5,260.5C 25.7721,201.618 5.27208,134.285
              12,58.5C 30.5841,43.9524 51.0841,32.619 73.5,24.5C 74.6658,35.4849 74.8324,46.4849 74,57.5C 73.3848,59.1161
              72.3848,60.4495 71,61.5C 70.5001,77.1631 70.3334,92.8298 70.5,108.5C 64.1667,108.5 57.8333,108.5 51.5,108.5C
              44.5632,132.269 43.7299,156.269 49,180.5C 49.7889,183.834 50.9556,187.001 52.5,190C 58.4908,190.499
              64.4908,190.666 70.5,190.5C 70.3334,206.17 70.5001,221.837 71,237.5C 72.9473,239.063 74.114,241.063
              74.5,243.5 Z M 59.5,113.5 C 133.503,113.167 207.503,113.5 281.5,114.5C 289.018,138.131 289.018,161.797
              281.5,185.5C 207.499,185.667 133.499,185.5 59.5,185C 51.5188,161.164 51.5188,137.33 59.5,113.5 Z"/>
    </g>
    <g>
        <path fill="#A9B1BF"
              d="M 84.5,54.5 C 83.5489,53.0813 83.2155,51.4147 83.5,49.5C 125.006,15.7495 171.006,8.24949 221.5,27C 
              268.166,48.3475 294.999,84.5142 302,135.5C 305.136,200.433 277.302,246.267 218.5,273C 175.148,288.37 
              134.148,283.703 95.5,259C 91.2407,255.619 87.0741,252.119 83,248.5C 82.3333,246.5 82.3333,244.5 83,242.5C 
              120.904,275.682 164.07,284.849 212.5,270C 255.896,252.933 283.396,221.766 295,176.5C 304.407,118.33 
              284.907,72.8296 236.5,40C 190.192,14.5562 144.526,15.5562 99.5,43C 94.3389,46.6659 89.3389,50.4992 
              84.5,54.5 Z"/>
    </g>
    <g>
        <path fill="#A9B1BF"
              d="M 83.5,49.5 C 83.2155,51.4147 83.5489,53.0813 84.5,54.5C 84.2172,55.2891 83.7172,55.9558 83,56.5C 
              82.2042,53.9615 82.3709,51.6282 83.5,49.5 Z"/>
    </g>
    <g>
        <path fill="#A9B1BF"
              d="M 67.5,65.5 C 68.6341,67.9664 68.8007,70.633 68,73.5C 40.7629,112.746 35.7629,154.746 53,199.5C 
              56.9895,208.82 61.9895,217.487 68,225.5C 68.6667,228.167 68.6667,230.833 68,233.5C 37.7725,194.136 
              30.4392,150.803 46,103.5C 51.3786,89.7341 58.5453,77.0674 67.5,65.5 Z"/>
    </g>
    <g>
        <path fill="#A9B1BF"
              d="M 70.5,134.5 C 73.8499,134.335 77.1832,134.502 80.5,135C 80,135.5 79.5,136 79,136.5C 78.5003,144.827 
              78.3336,153.16 78.5,161.5C 83.8437,161.666 89.1771,161.499 94.5,161C 95,160.5 95.5,160 96,159.5C 
              96.4935,161.134 96.6602,162.801 96.5,164.5C 87.8333,164.5 79.1667,164.5 70.5,164.5C 70.5,154.5 70.5,144.5 
              70.5,134.5 Z"/>
    </g>
    <g>
        <path fill="#A9B1BF"
              d="M 115.5,134.5 C 117.467,134.261 119.301,134.594 121,135.5C 126.367,144.706 131.534,154.039 136.5,163.5C 
              132.878,164.659 129.211,164.825 125.5,164C 126.517,162.951 126.684,161.784 126,160.5C 122.737,154.3 
              119.237,148.3 115.5,142.5C 111.748,148.336 108.248,154.336 105,160.5C 104.316,161.784 104.483,162.951 
              105.5,164C 103.421,164.808 101.421,164.641 99.5,163.5C 105.112,153.94 110.445,144.273 115.5,134.5 Z"/>
    </g>
    <g>
        <path fill="#A9B1BF"
              d="M 144.5,144.5 C 144.44,143.957 144.107,143.624 143.5,143.5C 142.183,149.988 142.183,156.322 
              143.5,162.5C 143.611,163.117 143.944,163.617 144.5,164C 143.207,164.49 141.873,164.657 140.5,164.5C 
              140.5,154.5 140.5,144.5 140.5,134.5C 141.873,134.343 143.207,134.51 144.5,135C 153.025,141.692 
              161.692,148.192 170.5,154.5C 171.664,148.528 171.83,142.528 171,136.5C 170.5,136 170,135.5 169.5,135C 
              171.134,134.506 172.801,134.34 174.5,134.5C 174.5,144.5 174.5,154.5 174.5,164.5C 173.127,164.657 
              171.793,164.49 170.5,164C 161.932,157.252 153.266,150.752 144.5,144.5 Z"/>
    </g>
    <g>
        <path fill="#A9B1BF"
              d="M 191.5,133.5 C 198.184,132.849 204.517,134.015 210.5,137C 213.377,141.733 212.711,142.4 208.5,139C 
              202.833,137 197.167,137 191.5,139C 185.961,144.471 185.128,150.638 189,157.5C 196.571,162.718 
              204.237,162.718 212,157.5C 212.684,158.784 212.517,159.951 211.5,161C 201.821,167.157 192.321,166.99 
              183,160.5C 176.844,152.272 177.344,144.439 184.5,137C 186.925,135.787 189.259,134.621 191.5,133.5 Z"/>
    </g>
    <g>
        <path fill="#A9B1BF"
              d="M 217.5,135.5 C 220.287,134.523 223.287,134.19 226.5,134.5C 226.334,143.839 226.5,153.173 227,162.5C 
              227.5,163 228,163.5 228.5,164C 225.518,164.498 222.518,164.665 219.5,164.5C 219.666,155.494 219.5,146.494 
              219,137.5C 218.722,136.584 218.222,135.918 217.5,135.5 Z"/>
    </g>
    <g>
        <path fill="#A9B1BF"
              d="M 248.5,134.5 C 250.467,134.261 252.301,134.594 254,135.5C 258.913,144.994 264.08,154.328 269.5,163.5C 
              265.878,164.659 262.211,164.825 258.5,164C 259.517,162.951 259.684,161.784 259,160.5C 255.752,154.336 
              252.252,148.336 248.5,142.5C 244.336,148.845 240.336,155.345 236.5,162C 236.957,162.414 237.291,162.914 
              237.5,163.5C 235.833,164.833 234.167,164.833 232.5,163.5C 238.099,153.967 243.433,144.3 248.5,134.5 Z"/>
    </g>
    <g>
        <path fill="#A9B1BF"
              d="M 144.5,144.5 C 143.51,150.31 143.177,156.31 143.5,162.5C 142.183,156.322 142.183,149.988 143.5,143.5C 
              144.107,143.624 144.44,143.957 144.5,144.5 Z"/>
    </g>
    <g>
        <path fill="#A9B1BF"
              d="M 74.5,243.5 C 75.8166,249.346 75.8166,255.346 74.5,261.5C 73.8933,261.376 73.56,261.043 73.5,260.5C 
              74.4889,255.025 74.8222,249.358 74.5,243.5 Z"/>
    </g>
</svg>
