<?xml version="1.0" standalone="no"?>
<!DOCTYPE svg PUBLIC "-//W3C//DTD SVG 20010904//EN" "http://www.w3.org/TR/2001/REC-SVG-20010904/DTD/svg10.dtd">
<svg version="1.0" xmlns="http://www.w3.org/2000/svg" width="496pt" height="310pt" viewBox="0 0 496 310">
    <g transform="translate(0, 310) scale(0.1, -0.1)" fill="#A9B1BF">
        <path d="M790 1558 c-432 -848 -787 -1545 -788 -1550 -2 -4 416 -8 930 -8 l933 0 624 1225 c344 674 628 1222 632
        1218 11 -12 999 -1955 999 -1964 0 -5 -149 -9 -330 -9 l-330 0 -18 29 c-9 15 -127 245 -262 509 -214 421 -247 479
        -258 464 -7 -9 -75 -140 -150 -290 l-137 -273 224 -442 c123 -243 228 -448 234 -454 7 -10 207 -13 938 -13 511 0
        929 2 929 5 0 3 -354 701 -787 1550 l-788 1545 -270 -2 -270 -3 -667 -1310 -667 -1310 -336 -3 c-184 -1 -335 1
        -335 4 0 10 1001 1974 1006 1974 2 0 22 -37 45 -82 23 -46 64 -125 91 -176 l51 -94 149 292 149 292 -108 209 -107
        209 -271 0 -270 -1 -785 -1541z"/>
    </g>
</svg>
