<?xml version="1.0" encoding="UTF-8"?>
<!DOCTYPE svg PUBLIC "-//W3C//DTD SVG 1.1//EN" "http://www.w3.org/Graphics/SVG/1.1/DTD/svg11.dtd">
<svg xmlns="http://www.w3.org/2000/svg" version="1.1" width="256px" height="256px"
     style="fill-rule:evenodd; clip-rule:evenodd">
    <g>
        <path fill="#A9B1BF"
              d="M 125.5,-0.5 C 126.5,-0.5 127.5,-0.5 128.5,-0.5C 130.315,6.07396 131.815,12.7406 133,19.5C
              134.413,24.7391 136.413,29.7391 139,34.5C 144.411,42.5819 150.578,50.0819 157.5,57C 156.07,58.4404
              154.403,58.7737 152.5,58C 146.289,55.3119 140.122,52.4785 134,49.5C 131.822,77.5934 136.155,104.593
              147,130.5C 151.878,139.597 156.712,148.597 161.5,157.5C 154.468,157.83 147.468,157.497 140.5,156.5C
              134.64,147.113 130.14,137.113 127,126.5C 124.266,137.467 119.766,147.634 113.5,157C 106.842,157.5
              100.175,157.666 93.5,157.5C 98.3651,147.439 103.532,137.439 109,127.5C 119.135,102.687 122.802,76.6874
              120,49.5C 112.882,53.5919 105.382,56.5919 97.5,58.5C 97.3505,57.448 97.5172,56.448 98,55.5C
              115.04,40.4233 124.207,21.7566 125.5,-0.5 Z"/>
    </g>
    <g>
        <path fill="#A9B1BF"
              d="M 24.5,49.5 C 45.6304,52.3205 61.2971,62.9872 71.5,81.5C 67.229,79.7029 62.8957,77.8696 58.5,76C
              56.1788,75.1635 53.8454,74.8301 51.5,75C 66.2363,100.429 74.2363,127.929 75.5,157.5C 69.1667,157.5
              62.8333,157.5 56.5,157.5C 55.5008,136.171 52.3341,115.171 47,94.5C 41.0402,79.0666 33.2069,64.7333
              23.5,51.5C 23.8627,50.8165 24.1961,50.1499 24.5,49.5 Z"/>
    </g>
    <g>
        <path fill="#A9B1BF"
              d="M 225.5,49.5 C 227.167,49.5 228.833,49.5 230.5,49.5C 230.657,50.8734 230.49,52.2068 230,53.5C
              213.483,75.3664 203.817,100.033 201,127.5C 199.945,137.16 198.945,146.827 198,156.5C 191.916,157.642
              185.749,157.809 179.5,157C 180.596,127.705 188.596,100.372 203.5,75C 202.167,74.3333 200.833,74.3333
              199.5,75C 193.831,77.351 188.164,79.351 182.5,81C 189.847,70.324 199.181,61.6573 210.5,55C 215.447,52.6923
              220.447,50.859 225.5,49.5 Z"/>
    </g>
    <g>
        <path fill="#A9B1BF" d="M 93.5,157.5 C 92.8333,158.167 92.8333,158.167 93.5,157.5 Z"/>
    </g>
    <g>
        <path fill="#A9B1BF"
              d="M 49.5,160.5 C 101.547,160.842 153.547,161.842 205.5,163.5C 206.791,164.473 206.791,165.473
              205.5,166.5C 153.171,167.5 100.838,167.833 48.5,167.5C 48.1984,164.941 48.5318,162.607 49.5,160.5 Z"/>
    </g>
    <g>
        <path fill="#A9B1BF"
              d="M 205.5,163.5 C 153.547,161.842 101.547,160.842 49.5,160.5C 101.096,159.338 152.763,159.172 204.5,160C
              205.337,161.011 205.67,162.178 205.5,163.5 Z"/>
    </g>
    <g>
        <path fill="#A9B1BF" d="M 198.5,170.5 C 199.833,171.167 199.833,171.167 198.5,170.5 Z"/>
    </g>
    <g>
        <path fill="#A9B1BF"
              d="M 198.5,171.5 C 198.756,173.792 198.423,175.959 197.5,178C 150.665,178.832 103.998,178.665 57.5,177.5C
              56.1888,175.44 56.1888,173.274 57.5,171C 104.541,170.177 151.541,170.343 198.5,171.5 Z"/>
    </g>
    <g>
        <path fill="#A9B1BF"
              d="M 57.5,177.5 C 57.5,175.833 57.5,174.167 57.5,172.5C 103.833,172.5 150.167,172.5 196.5,172.5C
              196.5,174.167 196.5,175.833 196.5,177.5C 150.167,177.5 103.833,177.5 57.5,177.5 Z"/>
    </g>
    <g>
        <path fill="#A9B1BF"
              d="M 204.5,181.5 C 153.511,183.496 102.178,184.162 50.5,183.5C 50.1667,190.167 49.8333,190.167 49.5,183.5C
              100.823,181.504 152.489,180.838 204.5,181.5 Z"/>
    </g>
    <g>
        <path fill="#A9B1BF"
              d="M 204.5,181.5 C 206.574,183.715 206.907,186.215 205.5,189C 153.168,189.5 100.834,189.667 48.5,189.5C
              48.2053,187.265 48.5386,185.265 49.5,183.5C 49.8333,190.167 50.1667,190.167 50.5,183.5C 102.178,184.162
              153.511,183.496 204.5,181.5 Z"/>
    </g>
    <g>
        <path fill="#A9B1BF"
              d="M 164.5,195.5 C 139.833,194.167 115.167,194.167 90.5,195.5C 88.5165,195.617 86.8498,194.95 85.5,193.5C
              113.167,192.167 140.833,192.167 168.5,193.5C 167.68,195.111 166.346,195.778 164.5,195.5 Z"/>
    </g>
    <g>
        <path fill="#A9B1BF"
              d="M 57.5,192.5 C 63.5,192.5 69.5,192.5 75.5,192.5C 75.7923,203.523 70.459,208.356 59.5,207C 58.3333,206.5
              57.5,205.667 57,204.5C 56.3064,200.446 56.4731,196.446 57.5,192.5 Z"/>
    </g>
    <g>
        <path fill="#A9B1BF"
              d="M 179.5,192.5 C 185.5,192.5 191.5,192.5 197.5,192.5C 197.827,197.214 197.493,201.88 196.5,206.5C
              184.673,208.992 179.006,204.325 179.5,192.5 Z"/>
    </g>
    <g>
        <path fill="#A9B1BF"
              d="M 164.5,195.5 C 152.125,199.509 145.458,208.175 144.5,221.5C 133.167,222.833 121.833,222.833
              110.5,221.5C 109.311,208.343 102.644,199.677 90.5,195.5C 115.167,194.167 139.833,194.167 164.5,195.5 Z"/>
    </g>
    <g>
        <path fill="#A9B1BF"
              d="M 104.5,224.5 C 119.464,226.484 134.797,227.151 150.5,226.5C 150.5,230.167 150.5,233.833 150.5,237.5C
              134.991,237.17 119.658,237.504 104.5,238.5C 103.12,238.038 102.453,237.038 102.5,235.5C 103.833,232.833
              103.833,230.167 102.5,227.5C 102.453,225.962 103.12,224.962 104.5,224.5 Z"/>
    </g>
    <g>
        <path fill="#A9B1BF"
              d="M 104.5,224.5 C 119.837,224.333 135.17,224.5 150.5,225C 151.467,229.401 151.8,233.901 151.5,238.5C
              135.833,238.5 120.167,238.5 104.5,238.5C 119.658,237.504 134.991,237.17 150.5,237.5C 150.5,233.833
              150.5,230.167 150.5,226.5C 134.797,227.151 119.464,226.484 104.5,224.5 Z"/>
    </g>
    <g>
        <path fill="#A9B1BF"
              d="M 146.5,255.5 C 145.833,255.5 145.167,255.5 144.5,255.5C 144.5,251.167 144.5,246.833 144.5,242.5C
              132.833,242.5 121.167,242.5 109.5,242.5C 109.231,246.931 109.564,251.265 110.5,255.5C 109.833,255.5
              109.167,255.5 108.5,255.5C 108.5,250.833 108.5,246.167 108.5,241.5C 121.167,241.5 133.833,241.5
              146.5,241.5C 146.5,246.167 146.5,250.833 146.5,255.5 Z"/>
    </g>
    <g>
        <path fill="#A9B1BF"
              d="M 144.5,255.5 C 133.167,255.5 121.833,255.5 110.5,255.5C 109.564,251.265 109.231,246.931 109.5,242.5C
              121.167,242.5 132.833,242.5 144.5,242.5C 144.5,246.833 144.5,251.167 144.5,255.5 Z"/>
    </g>
</svg>
