<?xml version="1.0" encoding="UTF-8"?>
<!DOCTYPE svg PUBLIC "-//W3C//DTD SVG 1.1//EN" "http://www.w3.org/Graphics/SVG/1.1/DTD/svg11.dtd">
<svg xmlns="http://www.w3.org/2000/svg" version="1.1" width="256px" height="256px"
     style="fill-rule:evenodd; clip-rule:evenodd">
    <g>
        <path fill="#A9B1BF"
              d="M 255.5,70.5 C 255.5,76.1667 255.5,81.8333 255.5,87.5C 245.454,107.069 231.787,123.902 214.5,138C
              189.297,159.207 162.963,178.873 135.5,197C 133.846,197.608 132.179,198.108 130.5,198.5C 132.875,192.759
              136.041,187.426 140,182.5C 146.593,172.315 151.259,161.315 154,149.5C 155.495,134.016 148.661,124.182
              133.5,120C 118.352,116.63 103.018,115.63 87.5,117C 58.7585,120.049 30.4251,125.215 2.5,132.5C
              2.16667,131.833 1.83333,131.167 1.5,130.5C 62.4487,90.7889 129.115,65.9556 201.5,56C 217.888,53.8646
              233.554,56.1979 248.5,63C 251.067,65.3959 253.4,67.8959 255.5,70.5 Z M 230.5,66.5 C 243.737,67.8692
              248.904,74.8692 246,87.5C 245.393,82.7232 243.727,78.3899 241,74.5C 237.6,71.5862 234.1,68.9195
              230.5,66.5 Z"/>
    </g>
    <g>
        <path fill="#A9B1BF"
              d="M 1.5,130.5 C 1.83333,131.167 2.16667,131.833 2.5,132.5C 1.79105,133.404 0.791047,133.737 -0.5,133.5C
              -0.5,132.833 -0.5,132.167 -0.5,131.5C 0.166667,131.167 0.833333,130.833 1.5,130.5 Z"/>
    </g>
    <g>
        <path fill="#A9B1BF" d="M 130.5,198.5 C 129.833,199.167 129.833,199.167 130.5,198.5 Z"/>
    </g>
</svg>
