<?xml version="1.0" encoding="UTF-8"?>
<!DOCTYPE svg PUBLIC "-//W3C//DTD SVG 1.1//EN" "http://www.w3.org/Graphics/SVG/1.1/DTD/svg11.dtd">
<svg xmlns="http://www.w3.org/2000/svg" version="1.1" width="256px" height="256px"
     style="fill-rule:evenodd; clip-rule:evenodd">
    <g>
        <path fill="#A9B1BF"
              d="M 107.5,-0.5 C 120.833,-0.5 134.167,-0.5 147.5,-0.5C 195.085,8.90864 228.585,35.9086 248,80.5C
              250.996,89.4969 253.496,98.4969 255.5,107.5C 255.5,120.833 255.5,134.167 255.5,147.5C 246.091,195.085
              219.091,228.585 174.5,248C 165.503,250.996 156.503,253.496 147.5,255.5C 134.167,255.5 120.833,255.5
              107.5,255.5C 59.915,246.091 26.415,219.091 7,174.5C 4.00421,165.503 1.50421,156.503 -0.5,147.5C
              -0.5,134.167 -0.5,120.833 -0.5,107.5C 8.90864,59.915 35.9086,26.415 80.5,7C 89.4969,4.00421
              98.4969,1.50421 107.5,-0.5 Z M 117.5,7.5 C 120.187,7.33591 122.854,7.50258 125.5,8C 119.854,44.1871
              114.021,80.3538 108,116.5C 79.6488,139.172 51.3155,161.838 23,184.5C 12.1679,167.321 7.00126,148.488
              7.5,128C 9.94319,74.9281 35.2765,37.5948 83.5,16C 94.6556,11.8777 105.989,9.04437 117.5,7.5 Z M 130.5,7.5
              C 175.792,10.6651 209.958,31.6651 233,70.5C 252.313,108.563 252.313,146.563 233,184.5C 204,162.167
              175,139.833 146,117.5C 140.505,80.871 135.338,44.2044 130.5,7.5 Z M 124.5,148.5 C 126.527,148.338
              128.527,148.505 130.5,149C 163.833,162.667 197.167,176.333 230.5,190C 200.59,234.448 158.923,253.114
              105.5,246C 71.026,238.608 44.3593,220.108 25.5,190.5C 58.6963,176.729 91.6963,162.729 124.5,148.5 Z"/>
    </g>
</svg>
