<?xml version="1.0" encoding="UTF-8"?>
<!DOCTYPE svg PUBLIC "-//W3C//DTD SVG 1.1//EN" "http://www.w3.org/Graphics/SVG/1.1/DTD/svg11.dtd">
<svg xmlns="http://www.w3.org/2000/svg" version="1.1" width="256px" height="256px"
     style="fill-rule:evenodd; clip-rule:evenodd">
    <g>
        <path fill="#A9B1BF"
              d="M 132.5,157.5 C 132.565,157.062 132.399,156.728 132,156.5C 130.999,159.173 129.499,161.507 127.5,163.5C
              125.325,160.253 123.325,157.587 121.5,155.5C 108.281,134.236 95.9478,112.402 84.5,90C 97.5357,65.2839
              111.036,40.7839 125,16.5C 126.667,13.8333 128.333,13.8333 130,16.5C 144.162,40.6589 157.662,65.1589
              170.5,90C 158.719,113.068 146.052,135.568 132.5,157.5 Z"/>
    </g>
    <g>
        <path fill="#A9B1BF"
              d="M 132.5,157.5 C 132.038,159.757 131.038,161.757 129.5,163.5C 157.833,164.167 186.167,164.833
              214.5,165.5C 217.845,171.527 221.179,177.527 224.5,183.5C 224.19,184.738 223.69,184.738 223,183.5C
              219.833,177.833 216.667,172.167 213.5,166.5C 185.167,165.167 156.833,165.167 128.5,166.5C 134.04,176.415
              139.707,186.248 145.5,196C 145.272,196.399 144.938,196.565 144.5,196.5C 138.845,187.194 133.178,177.861
              127.5,168.5C 122.666,175.496 118.333,182.829 114.5,190.5C 113.957,190.44 113.624,190.107 113.5,189.5C
              117.58,181.671 121.913,174.004 126.5,166.5C 98.1667,165.167 69.8333,165.167 41.5,166.5C 39.4128,169.673
              37.5795,173.006 36,176.5C 35.31,177.738 34.81,177.738 34.5,176.5C 36.2336,172.7 38.2336,169.034
              40.5,165.5C 68.8333,164.833 97.1667,164.167 125.5,163.5C 123.628,161.09 122.295,158.423 121.5,155.5C
              123.325,157.587 125.325,160.253 127.5,163.5C 129.499,161.507 130.999,159.173 132,156.5C 132.399,156.728
              132.565,157.062 132.5,157.5 Z"/>
    </g>
    <g>
        <path fill="#A9B1BF"
              d="M 114.5,190.5 C 104.818,207.202 95.1516,223.869 85.5,240.5C 57.3304,239.833 28.9971,239.167 0.5,238.5C
              1.54982,237.571 1.54982,236.905 0.5,236.5C 11.3305,216.167 22.6639,196.167 34.5,176.5C 34.81,177.738
              35.31,177.738 36,176.5C 37.5795,173.006 39.4128,169.673 41.5,166.5C 69.8333,165.167 98.1667,165.167
              126.5,166.5C 121.913,174.004 117.58,181.671 113.5,189.5C 113.624,190.107 113.957,190.44 114.5,190.5 Z"/>
    </g>
    <g>
        <path fill="#A9B1BF"
              d="M 224.5,183.5 C 234.581,201.331 244.914,218.998 255.5,236.5C 255.5,237.833 255.5,239.167 255.5,240.5C
              226.492,240.833 197.492,240.5 168.5,239.5C 160.222,225.274 152.222,210.94 144.5,196.5C 144.938,196.565
              145.272,196.399 145.5,196C 139.707,186.248 134.04,176.415 128.5,166.5C 156.833,165.167 185.167,165.167
              213.5,166.5C 216.667,172.167 219.833,177.833 223,183.5C 223.69,184.738 224.19,184.738 224.5,183.5 Z"/>
    </g>
    <g>
        <path fill="#A9B1BF"
              d="M -0.5,236.5 C -0.166667,236.5 0.166667,236.5 0.5,236.5C 1.54982,236.905 1.54982,237.571 0.5,238.5C
              28.9971,239.167 57.3304,239.833 85.5,240.5C 56.8333,240.5 28.1667,240.5 -0.5,240.5C -0.5,239.167
              -0.5,237.833 -0.5,236.5 Z"/>
    </g>
</svg>
