<?xml version="1.0" standalone="no"?>
<!DOCTYPE svg PUBLIC "-//W3C//DTD SVG 20010904//EN" "http://www.w3.org/TR/2001/REC-SVG-20010904/DTD/svg10.dtd">
<svg version="1.0" xmlns="http://www.w3.org/2000/svg" width="5000pt" height="3888pt" viewBox="0 0 5000 3888">
    <g transform="translate(0.000000,3888.000000) scale(0.100000,-0.100000)"
       fill="#A9B1BF" stroke="none">
        <path d="M24170 38870 c-3999 -105 -7860 -864 -11667 -2296 -2756 -1035 -5483 -2446 -7970 -4120 -1654 -1114 -3271
        -2397 -4370 -3468 l-163 -159 0 -9387 0 -9388 213 -205 c1164 -1119 2728 -2354 4397 -3472 3102 -2076 6491 -3703
        9960 -4779 3987 -1236 8070 -1756 12175 -1551 4993 250 9926 1586 14580 3949 2366 1201 4633 2657 6640 4265 688 551
        1378 1154 1877 1640 l158 153 0 9388 0 9387 -163 159 c-1124 1096 -2802 2423 -4478 3541 -4030 2690 -8491 4597
        -13034 5572 -2046 439 -3993 679 -6160 761 -367 14 -1608 20 -1995 10z m1835 -3480 c1831 -69 3592 -286 5395 -666
        3511 -740 6917 -2047 9944 -3817 1762 -1029 3351 -2188 4803 -3501 l123 -111 0 -7855 0 -7855 -83 -74 c-381 -343
        -634 -563 -927 -806 -2550 -2116 -5589 -3855 -8935 -5113 -3169 -1191 -6525 -1904 -9770 -2077 -976 -51 -2077 -53
        -3020 -5 -3141 162 -6319 809 -9400 1913 -2047 734 -4045 1681 -5860 2777 -1592 962 -2995 1997 -4342 3204 l-203
        181 0 7855 0 7855 208 186 c1627 1460 3415 2721 5442 3836 4470 2460 9691 3912 14650 4073 184 6 391 12 460 14 219
        6 1245 -4 1515 -14z"/>
        <path d="M15155 27913 c-1100 -55 -2178 -291 -3210 -703 -1267 -505 -2491 -1300 -3407 -2212 l-188 -186 0 -5372 0
        -5373 228 -226 c125 -125 279 -272 342 -327 1593 -1394 3549 -2267 5585 -2493 442 -49 566 -55 1130 -56 565 0 684
        6 1130 56 1771 196 3506 899 5010 2028 381 287 829 678 1059 926 l96 103 0 5364 0 5364 -147 153 c-502 523 -1227
        1088 -1948 1518 -1445 863 -2993 1339 -4655 1433 -156 9 -871 11 -1025 3z m805 -3939 c634 -73 1317 -335 1920 -736
        214 -143 436 -316 578 -449 l52 -50 0 -3298 0 -3298 -107 -104 c-501 -487 -1178 -866 -1855 -1038 -338 -86 -605
        -116 -962 -108 -298 7 -499 35 -791 112 -669 176 -1344 540 -1907 1027 l-118 102 0 3301 0 3302 123 119 c389 379
        913 705 1457 907 279 104 597 179 893 211 175 20 551 20 717 0z"/>
        <path d="M30355 27913 c-67 -17 -389 -126 -550 -185 -1035 -384 -2041 -1004 -2940 -1813 -330 -297 -705 -688 -947
        -989 l-98 -121 0 -5395 0 -5395 81 -100 c165 -206 321 -377 564 -620 952 -952 2057 -1669 3275 -2123 197 -74 549
        -189 627 -206 l33 -8 2 5733 3 5733 1660 -1710 c913 -940 1666 -1709 1672 -1709 6 0 756 767 1666 1705 910 937 1660
        1706 1666 1708 8 3 11 -1611 11 -5727 0 -3152 2 -5731 4 -5731 11 0 202 58 351 107 1158 380 2262 1029 3233 1901
        301 271 674 660 891 931 l91 114 0 5398 0 5397 -87 109 c-568 710 -1416 1458 -2267 1998 -648 412 -1333 731 -2058
        960 -78 25 -147 45 -154 45 -7 0 -757 -766 -1666 -1702 -910 -937 -1661 -1709 -1670 -1715 -17 -14 164 -198 -2123
        2157 -670 690 -1226 1256 -1234 1257 -9 0 -25 -1 -36 -4z"/>
    </g>
</svg>
