<?xml version="1.0" encoding="UTF-8"?>
<!DOCTYPE svg PUBLIC "-//W3C//DTD SVG 1.1//EN" "http://www.w3.org/Graphics/SVG/1.1/DTD/svg11.dtd">
<svg xmlns="http://www.w3.org/2000/svg" version="1.1" width="256px" height="256px"
     style="fill-rule:evenodd; clip-rule:evenodd">
    <g>
        <path fill="#A9B1BF"
              d="M 255.5,132.5 C 255.5,138.833 255.5,145.167 255.5,151.5C 245.161,151.334 234.828,151.5 224.5,152C
              205.686,205.254 168.019,229.587 111.5,225C 66.7874,215.954 39.6207,189.121 30,144.5C 28.9477,137.872
              28.4477,131.206 28.5,124.5C 18.8493,123.801 9.18261,123.468 -0.5,123.5C -0.5,116.833 -0.5,110.167
              -0.5,103.5C 10.1874,103.832 20.8541,103.499 31.5,102.5C 46.6862,56.2191 78.6862,31.5524 127.5,28.5C
              163.9,29.7746 192.067,45.4413 212,75.5C 222.093,92.7963 226.926,111.463 226.5,131.5C 236.183,131.468
              245.849,131.801 255.5,132.5 Z M 77.5,103.5 C 66.6536,103.828 55.9869,103.494 45.5,102.5C 62.6724,59.0667
              94.6724,39.2334 141.5,43C 186.854,54.5169 210.854,83.6836 213.5,130.5C 193.162,129.848 172.829,129.015
              152.5,128C 161.322,121.089 170.322,114.423 179.5,108C 181.651,106.595 183.318,104.761 184.5,102.5C
              181.167,102.167 177.833,101.833 174.5,101.5C 142.003,102.09 109.67,102.757 77.5,103.5 Z M 41.5,125.5 C
              61.5234,125.74 81.5234,126.573 101.5,128C 91.2768,135.938 81.2768,144.105 71.5,152.5C 117.493,152.737
              163.493,152.903 209.5,153C 191.973,196.102 159.973,215.768 113.5,212C 74.8957,203.062 51.3957,179.229
              43,140.5C 42.3893,135.504 41.8893,130.504 41.5,125.5 Z"/>
    </g>
    <g>
        <path fill="#A9B1BF"
              d="M 45.5,102.5 C 55.9869,103.494 66.6536,103.828 77.5,103.5C 66.6794,104.495 55.6794,104.828 44.5,104.5C
              44.2465,102.599 44.5798,101.933 45.5,102.5 Z"/>
    </g>
</svg>
