<?xml version="1.0" encoding="UTF-8"?>
<!DOCTYPE svg PUBLIC "-//W3C//DTD SVG 1.1//EN" "http://www.w3.org/Graphics/SVG/1.1/DTD/svg11.dtd">
<svg xmlns="http://www.w3.org/2000/svg" version="1.1" width="167px" height="167px"
     style="fill-rule:evenodd; clip-rule:evenodd">
    <g>
        <path fill="#A9B1BF"
              d="M 166.5,45.5 C 166.5,50.8333 166.5,56.1667 166.5,61.5C 162.704,77.9719 159.204,94.6386 156,111.5C
              151.833,121 145,127.833 135.5,132C 95.5465,133.643 55.5465,133.977 15.5,133C 6.98642,130.985
              1.65308,125.818 -0.5,117.5C -0.5,113.5 -0.5,109.5 -0.5,105.5C 3.2109,87.6019 7.04423,69.6019 11,51.5C
              15.5401,41.6379 23.0401,35.1379 33.5,32C 73.1667,31.3333 112.833,31.3333 152.5,32C 159.019,34.6873
              163.686,39.1873 166.5,45.5 Z M 93.5,42.5 C 98.3781,55.6234 103.378,68.7901 108.5,82C 86.4082,81.5961
              64.7415,78.2628 43.5,72C 57.1435,72.5929 70.8102,73.0929 84.5,73.5C 87.2971,63.1085 90.2971,52.7751
              93.5,42.5 Z M 111.5,71.5 C 120.173,71.3336 128.84,71.5002 137.5,72C 133.5,75 129.5,78 125.5,81C
              122.041,82.7055 118.541,82.8722 115,81.5C 113.53,78.2561 112.363,74.9228 111.5,71.5 Z M 71.5,112.5 C
              72.8267,106.686 74.66,101.019 77,95.5C 77.6667,94.1667 77.6667,92.8333 77,91.5C 72.2451,88.8724
              67.4118,86.3724 62.5,84C 77.459,86.5494 92.459,89.2161 107.5,92C 95.8514,99.489 83.8514,106.322
              71.5,112.5 Z M 119.5,122.5 C 111.712,117.219 104.045,111.719 96.5,106C 101.917,103.21 107.084,100.043
              112,96.5C 115.123,104.994 117.623,113.661 119.5,122.5 Z"/>
    </g>
</svg>
