<?xml version="1.0" standalone="no"?>
<!DOCTYPE svg PUBLIC "-//W3C//DTD SVG 20010904//EN"
        "http://www.w3.org/TR/2001/REC-SVG-20010904/DTD/svg10.dtd">
<svg version="1.0" xmlns="http://www.w3.org/2000/svg"
     width="256.000000pt" height="256.000000pt" viewBox="0 0 256.000000 256.000000">
    <g transform="translate(0.000000,256.000000) scale(0.100000,-0.100000)"
       fill="#A9B1BF" stroke="none">
        <path d="M1015 1939 c-518 -62 -915 -282 -996 -551 -101 -331 261 -639 877 -749 113 -21 161 -24 384 -24 223 0 271
            3 384 24 445 79 777 271 868 501 31 77 31 203 0 280 -90 229 -425 423 -862 500 -143 25 -514 36 -655 19z m540
            -54 c456 -53 815 -234 924 -465 22 -46 26 -69 26 -140 0 -76 -4 -93 -32 -150 -137 -278 -625 -470 -1193 -470
            -563 0 -1041 185 -1190 460 -33 61 -35 70 -35 160 0 90 2 99 35 160 120 222 466 391 907 445 150 18 403 18 558 0z"/>
        <path d="M991 1834 c-350 -42 -677 -179 -805 -337 -65 -81 -81 -123 -81 -217 0 -70 4 -93 24 -130 137 -262 603
            -440 1151 -440 548 0 1014 178 1151 440 34 65 34 195 0 260 -90 173 -311 305 -643 385 -221 53 -548 69 -797 39z
            m179 -42 c0 -15 -80 -104 -132 -147 -61 -50 -150 -96 -226 -119 -67 -19 -68 -24 37 133 l80 119 93 9 c126 14
            148 14 148 5z m441 -17 c268 -40 476 -114 617 -220 72 -55 88 -88 52 -117 -21 -17 -58 -18 -706 -18 -675 0
            -683 0 -694 20 -6 11 -8 25 -5 30 3 5 42 28 87 52 85 44 232 172 279 244 l24 36 121 -6 c66 -3 167 -12 225
            -21z m-956 -194 l-97 -151 -174 0 c-96 0 -174 4 -174 8 0 4 24 31 53 59 58 57 142 113 226 151 63 28 254 92
            259 87 2 -2 -40 -71 -93 -154z m-153 -248 c18 -16 24 -68 10 -89 -16 -25 -56 -34 -146 -34 -81 0 -96 -3 -96
            -16 0 -9 -7 -14 -17 -12 -15 3 -18 16 -21 86 l-3 82 127 0 c105 0 131 -3 146 -17z m401 -6 c25 -16 27 -23 27
            -82 0 -49 -3 -65 -14 -65 -7 0 -16 9 -19 20 -5 18 -14 20 -111 20 -99 0 -106 -1 -106 -20 0 -13 -7 -20 -20 -20
            -18 0 -20 7 -20 58 0 59 16 88 60 105 33 14 176 2 203 -16z m447 8 c0 -12 -18 -15 -100 -15 -116 0 -150 -11
            -150 -50 0 -43 16 -50 117 -50 76 0 93 3 93 15 0 12 -13 15 -55 15 -42 0 -55 3 -55 15 0 12 15 15 76 15 l75 0
            -3 -47 -3 -48 -117 0 c-109 0 -118 1 -142 24 -35 33 -35 83 -1 116 23 24 30 25 145 25 100 0 120 -2 120 -15z
            m377 -5 c36 -21 46 -48 41 -106 -2 -27 -8 -40 -20 -42 -13 -2 -18 3 -18 17 0 20 -5 21 -110 21 -103 0 -110 -1
            -110 -20 0 -13 -7 -20 -20 -20 -17 0 -20 7 -20 51 0 92 33 118 150 119 57 0 83 -5 107 -20z m309 -40 c45 -33
            87 -60 93 -60 7 0 11 24 11 60 0 53 2 60 20 60 18 0 20 -7 20 -67 0 -67 -16 -103 -46 -103 -6 0 -51 29 -100 65
            -48 35 -91 62 -96 59 -4 -3 -8 -32 -8 -65 0 -52 -2 -59 -20 -59 -18 0 -20 7 -20 66 0 123 26 131 146 44z m304
            -25 c0 -78 -2 -85 -20 -85 -18 0 -20 7 -20 85 0 78 2 85 20 85 18 0 20 -7 20 -85z m-60 -143 c35 -28 21 -61
            -47 -111 -209 -155 -573 -251 -953 -251 -375 0 -746 96 -948 244 -72 54 -88 89 -52 118 21 17 67 18 1000 18
            933 0 979 -1 1000 -18z"/>
        <path d="M1267 1774 c-4 -4 -7 -16 -7 -26 0 -14 6 -19 23 -16 14 2 22 10 22 23 0 20 -25 32 -38 19z"/>
        <path d="M1417 1773 c-11 -10 -8 -41 4 -49 6 -3 18 1 27 9 13 13 13 19 2 31 -14 17 -23 20 -33 9z"/>
        <path d="M1560 1745 c-9 -11 -10 -19 -3 -26 17 -17 48 -6 48 16 0 25 -28 31 -45 10z"/>
        <path d="M1706 1714 c-4 -10 -2 -22 3 -27 15 -15 46 -3 46 18 0 26 -40 33 -49 9z"/>
        <path d="M1856 1681 c-10 -16 5 -41 24 -41 19 0 30 17 23 38 -5 14 -39 16 -47 3z"/>
        <path d="M1152 1618 c2 -15 10 -23 23 -23 30 0 27 39 -3 43 -20 3 -23 0 -20 -20z"/>
        <path d="M2004 1625 c-8 -19 3 -35 26 -35 19 0 30 17 23 38 -6 17 -42 15 -49 -3z"/>
        <path d="M2136 1561 c-10 -16 5 -41 24 -41 19 0 34 25 24 41 -3 5 -14 9 -24 9 -10 0 -21 -4 -24 -9z"/>
        <path d="M1050 1485 c-16 -19 -5 -47 17 -43 22 4 29 43 9 51 -8 3 -20 -1 -26 -8z"/>
        <path d="M1225 1486 c-19 -14 -19 -16 -2 -33 16 -16 18 -16 34 0 15 15 16 19 2 32 -13 13 -17 13 -34 1z"/>
        <path d="M1401 1490 c-19 -11 -9 -45 14 -45 13 0 21 8 23 21 3 23 -17 37 -37 24z"/>
        <path d="M1569 1484 c-10 -12 -9 -18 4 -31 13 -13 19 -14 31 -4 16 14 12 37 -9 45 -7 2 -19 -2 -26 -10z"/>
        <path d="M1753 1493 c-15 -5 -17 -39 -4 -47 14 -9 41 4 41 19 0 17 -22 33 -37 28z"/>
        <path d="M1921 1490 c-19 -11 -9 -45 14 -45 13 0 21 8 23 21 3 23 -17 37 -37 24z"/>
        <path d="M2089 1484 c-10 -12 -9 -18 4 -31 13 -13 19 -14 31 -3 21 17 20 27 -3 39 -14 8 -22 7 -32 -5z"/>
        <path d="M277 1313 c-4 -3 -7 -19 -7 -35 l0 -28 98 0 c115 0 145 15 106 54 -12 12 -37 16 -103 16 -48 0 -91 -3 -94 -7z"/>
        <path d="M720 1308 c-24 -9 -36 -20 -38 -35 -3 -23 -2 -23 102 -23 112 0 132 8 99 42 -25 24 -114 33 -163 16z"/>
        <path d="M1550 1308 c-24 -9 -36 -20 -38 -35 -3 -23 -2 -23 107 -23 104 0 111 1 111 20 0 10 -9 24 -21 30 -32 18
            -120 22 -159 8z"/>
        <path d="M462 1098 c-15 -18 1 -41 24 -36 23 4 26 41 3 46 -9 1 -21 -3 -27 -10z"/>
        <path d="M636 1094 c-8 -21 1 -34 24 -34 10 0 21 4 24 9 10 16 -5 41 -24 41 -10 0 -21 -7 -24 -16z"/>
        <path d="M814 1095 c-8 -19 3 -35 26 -35 22 0 33 23 17 39 -15 15 -37 14 -43 -4z"/>
        <path d="M994 1096 c-8 -21 3 -36 27 -36 15 0 20 6 17 22 -4 27 -35 37 -44 14z"/>
        <path d="M1174 1095 c-4 -9 -2 -21 4 -27 15 -15 44 -1 40 19 -4 23 -36 29 -44 8z"/>
        <path d="M1357 1104 c-4 -4 -7 -16 -7 -26 0 -14 6 -19 23 -16 14 2 22 10 22 23 0 20 -25 32 -38 19z"/>
        <path d="M1537 1104 c-4 -4 -7 -16 -7 -26 0 -14 6 -19 23 -16 14 2 22 10 22 23 0 20 -25 32 -38 19z"/>
        <path d="M1706 1094 c-8 -21 1 -34 24 -34 10 0 21 4 24 9 10 16 -5 41 -24 41 -10 0 -21 -7 -24 -16z"/>
        <path d="M1884 1095 c-8 -19 3 -35 26 -35 19 0 30 17 23 38 -6 17 -42 15 -49 -3z"/>
        <path d="M2064 1096 c-8 -21 3 -36 27 -36 15 0 20 6 17 22 -4 27 -35 37 -44 14z"/>
        <path d="M430 1004 c-11 -12 -10 -18 3 -32 16 -15 18 -15 34 0 13 14 14 20 3 32 -7 9 -16 16 -20 16 -4 0 -13 -7
            -20 -16z"/>
        <path d="M2090 1004 c-11 -12 -10 -18 3 -32 16 -15 18 -15 34 0 13 14 14 20 3 32 -7 9 -16 16 -20 16 -4 0 -13 -7
            -20 -16z"/>
        <path d="M602 941 c-19 -11 -11 -45 11 -49 9 -2 20 4 23 13 9 21 -16 47 -34 36z"/>
        <path d="M1930 935 c-15 -18 -6 -45 13 -45 8 0 20 6 26 14 9 11 8 18 -4 30 -20 20 -20 20 -35 1z"/>
        <path d="M761 886 c-27 -42 -26 -44 4 -38 15 2 25 0 25 -7 0 -6 5 -11 10 -11 11 0 13 33 4 68 -9 30 -19 28 -43 -12z
            m29 -6 c0 -5 -5 -10 -11 -10 -5 0 -7 5 -4 10 3 6 8 10 11 10 2 0 4 -4 4 -10z"/>
        <path d="M1789 894 c-12 -15 -11 -16 11 -10 21 6 22 5 8 -4 -21 -13 -24 -40 -5 -40 26 0 40 18 33 44 -7 30 -27 34
            -47 10z"/>
        <path d="M905 881 c-4 -7 -13 -10 -20 -7 -8 3 -16 -5 -19 -20 -4 -13 -11 -24 -17 -24 -7 0 -9 10 -5 25 4 14 2 25
            -3 25 -10 0 -22 -40 -15 -52 3 -4 16 -8 30 -8 17 0 24 5 24 20 0 11 5 20 10 20 6 0 10 -11 10 -25 0 -34 16 -32 23
            3 6 32 -6 61 -18 43z"/>
        <path d="M1606 882 c-4 -6 -4 -12 1 -13 4 0 -2 -4 -15 -10 -34 -13 -27 -53 11 -57 23 -3 27 0 26 20 -2 41 -14 74
            -23 60z m4 -52 c0 -11 -4 -20 -9 -20 -11 0 -22 26 -14 34 12 12 23 5 23 -14z"/>
        <path d="M1722 882 c-9 -6 -11 -18 -7 -35 9 -34 24 -26 17 8 -6 34 11 32 25 -2 l12 -28 -2 30 c-2 31 -21 42 -45 27z"/>
        <path d="M1655 866 c-25 -18 -15 -51 15 -51 20 0 26 6 28 26 4 31 -18 44 -43 25z m35 -30 c0 -11 -19 -15 -25 -6 -3
            5 1 10 9 10 9 0 16 -2 16 -4z"/>
        <path d="M1443 843 c-11 -28 -11 -28 -18 -5 -12 38 -35 27 -35 -18 0 -22 5 -40 10 -40 6 0 10 10 10 23 1 22 1 22 15
            -3 l14 -25 10 25 c6 17 10 19 10 8 1 -9 6 -20 11 -23 6 -4 10 12 10 39 0 53 -20 62 -37 19z"/>
        <path d="M944 846 c-10 -26 4 -48 28 -44 17 2 23 10 23 28 0 18 -6 26 -23 28 -13 2 -25 -3 -28 -12z m36 -16 c0 -19
            -11 -26 -23 -14 -8 8 3 34 14 34 5 0 9 -9 9 -20z"/>
        <path d="M1190 820 c0 -38 2 -40 30 -40 26 0 30 4 30 26 0 17 -6 28 -20 31 -11 3 -20 9 -20 14 0 5 -4 9 -10 9 -5 0
            -10 -18 -10 -40z m42 -22 c-15 -15 -26 -4 -18 18 5 13 9 15 18 6 9 -9 9 -15 0 -24z"/>
        <path d="M1303 820 c0 -25 2 -35 4 -22 2 12 2 32 0 45 -2 12 -4 2 -4 -23z"/>
        <path d="M1010 820 c0 -18 4 -29 10 -25 6 3 10 15 10 26 0 30 20 22 21 -8 0 -28 1 -28 11 -5 13 27 32 30 23 3 -3
            -11 -1 -22 5 -26 8 -5 10 4 8 26 -3 30 -6 32 -45 36 -42 4 -43 3 -43 -27z"/>
        <path d="M1496 834 c-9 -22 12 -46 38 -42 15 2 21 10 21 28 0 20 -6 26 -26 28 -18 2 -29 -3 -33 -14z m44 -15 c0
            -24 -23 -21 -28 4 -2 10 3 17 12 17 10 0 16 -9 16 -21z"/>
        <path d="M1117 827 c-8 -22 16 -50 39 -45 13 2 19 12 19 28 0 20 -6 26 -26 28 -16 2 -29 -3 -32 -11z m43 -17 c0
            -21 -15 -27 -25 -10 -7 12 2 30 16 30 5 0 9 -9 9 -20z"/>
        <path d="M1268 810 c-3 -16 -1 -30 4 -30 4 0 8 14 8 30 0 17 -2 30 -4 30 -2 0 -6 -13 -8 -30z"/>
        <path d="M1330 811 c0 -17 5 -31 10 -31 6 0 10 11 10 24 0 14 -4 28 -10 31 -6 4 -10 -7 -10 -24z"/>
    </g>
</svg>
