<?xml version="1.0" standalone="no"?>
<!DOCTYPE svg PUBLIC "-//W3C//DTD SVG 20010904//EN" "http://www.w3.org/TR/2001/REC-SVG-20010904/DTD/svg10.dtd">
<svg version="1.0" xmlns="http://www.w3.org/2000/svg"
     width="256.000000pt" height="256.000000pt" viewBox="0 0 256.000000 256.000000">
    <g transform="translate(0.000000,256.000000) scale(0.100000,-0.100000)"
       fill="#A9B1BF" stroke="none">
        <path d="M1100 2343 c-38 -6 -204 -54 -215 -63 -5 -3 -26 -13 -45 -20 -38 -15 -170 -92 -202 -119 -11 -9 -59 -54
        -107 -101 -147 -144 -231 -292 -281 -496 -25 -100 -30 -139 -30 -245 0 -77 6 -157 16 -204 9 -42 13 -79 10 -82 -3
        -4 -52 -6 -108 -6 -57 1 -111 -1 -120 -4 -16 -4 -18 -22 -18 -199 l0 -194 231 0 232 0 86 -83 c104 -101 135 -123
        235 -176 267 -140 566 -162 856 -62 152 52 287 137 408 258 l62 63 225 0 225 0 0 199 0 198 -115 0 c-63 0 -117 2
        -120 5 -3 3 2 47 11 99 24 137 15 321 -21 454 -52 190 -138 338 -277 477 -153 153 -365 266 -562 298 -59 9 -324 12
        -376 3z m295 -43 c12 -5 -29 -8 -110 -8 -80 0 -120 3 -105 8 34 11 190 11 215 0z m-265 -10 c0 -5 -9 -10 -21 -10
        -11 0 -17 5 -14 10 3 6 13 10 21 10 8 0 14 -4 14 -10z m335 0 c3 -5 -1 -10 -9 -10 -8 0 -18 5 -21 10 -3 6 1 10 9
        10 8 0 18 -4 21 -10z m-395 -14 c0 -11 -19 -15 -25 -6 -3 5 1 10 9 10 9 0 16 -2 16 -4z m460 -6 c0 -5 -4 -10 -10
        -10 -5 0 -10 5 -10 10 0 6 5 10 10 10 6 0 10 -4 10 -10z m-515 -10 c-3 -5 -13 -10 -21 -10 -8 0 -12 5 -9 10 3 6 13
        10 21 10 8 0 12 -4 9 -10z m595 -10 c0 -4 -11 -5 -25 -2 -14 2 -25 8 -25 12 0 4 11 5 25 2 14 -2 25 -8 25 -12z
        m-673 -16 c-3 -3 -12 -4 -19 -1 -8 3 -5 6 6 6 11 1 17 -2 13 -5z m-51 -19 c-11 -8 -25 -15 -30 -15 -6 0 -2 7 8 15
        11 8 25 15 30 15 6 0 2 -7 -8 -15z m866 -23 c11 -13 11 -14 -2 -9 -8 4 -23 10 -32 13 -10 4 -18 10 -18 14 0 13 38
        0 52 -18z m-946 -17 c-11 -8 -27 -15 -35 -14 -9 0 -2 7 14 14 39 18 45 18 21 0z m995 -12 c13 -16 12 -17 -3 -4 -10
        7 -18 15 -18 17 0 8 8 3 21 -13z m-1066 -29 c-26 -20 -55 -36 -55 -30 0 5 63 46 70 46 3 -1 -4 -8 -15 -16z m1125
        -10 c0 -2 -9 0 -20 6 -11 6 -20 13 -20 16 0 2 9 0 20 -6 11 -6 20 -13 20 -16z m50 -30 c0 -2 -7 -4 -15 -4 -8 0 -15
        4 -15 10 0 5 7 7 15 4 8 -4 15 -8 15 -10z m-500 -39 c42 -14 100 -41 129 -60 36 -24 60 -33 75 -29 31 7 119 -73 201
        -186 l63 -85 -48 -26 c-27 -15 -60 -29 -74 -33 -14 -3 -38 -11 -53 -18 -27 -11 -138 -41 -212 -56 -45 -9 -49 -25
        -13 -51 40 -28 97 -40 230 -48 61 -3 112 -10 112 -16 0 -5 12 -23 26 -40 25 -29 26 -36 21 -104 -3 -39 -13 -89 -22
        -110 -9 -21 -23 -53 -31 -71 -8 -18 -21 -35 -29 -38 -12 -5 -13 -9 -4 -21 24 -28 -5 -34 -69 -14 -34 11 -78 23 -99
        27 -21 4 -43 11 -49 16 -7 5 -52 13 -100 19 -49 5 -110 15 -135 20 -25 6 -66 10 -90 9 -51 -1 -301 18 -374 28 -38
        6 -51 12 -53 26 -2 11 -19 42 -38 70 -18 28 -36 65 -40 81 -4 17 -10 35 -14 40 -18 23 -32 140 -28 232 5 124 38 200
        127 295 147 158 378 214 591 143z m-773 5 c-14 -11 -29 -20 -33 -20 -4 0 1 9 11 20 10 11 25 20 33 20 9 0 6 -7 -11
        -20z m1384 -72 c25 -27 44 -48 40 -48 -4 0 -36 30 -71 67 -36 37 -54 58 -41 48 14 -11 46 -41 72 -67z m-1519 -66
        c-19 -24 -72 -101 -109 -158 -11 -17 -11 -16 -4 7 11 32 123 190 130 184 2 -3 -5 -18 -17 -33z m-142 -232 c-6 -12
        -14 -19 -17 -17 -2 3 1 15 7 27 6 12 14 19 17 17 2 -3 -1 -15 -7 -27z m-21 -61 c-13 -26 -20 -21 -12 9 3 12 9 19 14
        16 5 -3 4 -14 -2 -25z m-23 -66 c-10 -10 -19 5 -10 18 6 11 8 11 12 0 2 -7 1 -15 -2 -18z m-10 -50 c-10 -10 -19 5
        -10 18 6 11 8 11 12 0 2 -7 1 -15 -2 -18z m-15 -66 c-8 -8 -11 -7 -11 4 0 20 13 34 18 19 3 -7 -1 -17 -7 -23z m2006
        -49 c-3 -7 -5 -2 -5 12 0 14 2 19 5 13 2 -7 2 -19 0 -25z m-2016 -95 c-2 -75 -6 -111 -11 -98 -11 25 -12 107 -4 169
        12 83 19 49 15 -71z m2016 -40 c-2 -16 -4 -3 -4 27 0 30 2 43 4 28 2 -16 2 -40 0 -55z m-2 -113 c-4 -12 -9 -19 -12
        -17 -3 3 -2 15 2 27 4 12 9 19 12 17 3 -3 2 -15 -2 -27z m-1999 -25 c1 -8 -2 -15 -7 -15 -5 0 -9 10 -9 22 0 23 12
        17 16 -7z m8 -60 c3 -8 1 -15 -4 -15 -6 0 -10 7 -10 15 0 8 2 15 4 15 2 0 6 -7 10 -15z m16 -56 c0 -5 -4 -9 -10 -9
        -5 0 -10 7 -10 16 0 8 5 12 10 9 6 -3 10 -10 10 -16z m1934 -34 c-5 -12 15 -15 127 -17 100 -2 133 -6 137 -16 3 -11
        0 -12 -16 -3 -12 6 -73 11 -141 11 -114 0 -121 1 -121 20 0 11 4 20 10 20 5 0 7 -7 4 -15z m-1924 -20 c0 -12 -24
        -15 -132 -17 l-133 -3 0 -130 0 -130 215 -3 c125 -1 219 -7 224 -12 7 -7 -68 -9 -224 -8 l-235 3 0 150 0 150 135 5
        c74 3 138 7 143 8 4 1 7 -5 7 -13z m-26 -81 c10 -26 7 -61 -7 -72 -7 -6 -40 -12 -72 -14 -57 -3 -60 -4 -63 -30 -2
        -16 -9 -28 -18 -28 -11 0 -14 17 -14 80 l0 80 84 0 c67 0 85 -3 90 -16z m246 6 c0 -5 -30 -10 -67 -12 -55 -2 -68 -6
        -71 -20 -3 -15 4 -18 37 -18 55 0 58 -27 4 -32 -30 -2 -38 -7 -38 -23 0 -18 8 -20 68 -23 97 -4 83 -22 -18 -22 l-85
        0 0 80 0 80 85 0 c47 0 85 -4 85 -10z m266 -1 c9 -15 -18 -31 -30 -19 -15 15 -102 12 -115 -3 -17 -21 -3 -27 59 -27
        71 0 93 -15 88 -60 l-3 -35 -84 -3 c-86 -3 -116 7 -93 30 8 8 15 8 26 -1 8 -7 36 -11 68 -9 45 3 53 6 53 23 0 18 -8
        21 -70 25 -68 5 -70 6 -73 33 -6 53 1 57 87 57 48 0 83 -4 87 -11z m272 -16 c4 -27 -22 -32 -32 -7 -4 11 -18 14 -58
        12 l-53 -3 0 -55 0 -55 53 -3 c40 -2 54 1 58 12 10 26 34 19 34 -9 l0 -26 -87 3 -88 3 -3 64 c-4 93 -6 92 90 89 77
        -3 83 -5 86 -25z m223 -30 c62 -107 60 -103 39 -103 -10 0 -20 7 -24 15 -8 22 -113 21 -137 -1 -39 -35 -36 -5 7 69
        56 96 70 98 115 20z m307 9 c3 -37 0 -44 -17 -49 -26 -7 -26 -11 1 -40 l21 -23 -21 0 c-12 0 -37 14 -56 31 -42 36
        -70 35 -74 -4 -2 -15 -9 -27 -18 -27 -11 0 -14 17 -14 80 l0 81 88 -3 87 -3 3 -43z m296 32 c9 -23 7 -117 -2 -132
        -6 -9 -34 -12 -103 -10 l-94 3 -3 64 c-2 35 -1 70 2 77 8 22 192 20 200 -2z m128 -51 l3 -68 63 -3 c90 -4 76 -22
        -18 -22 l-80 0 0 80 c0 63 3 80 15 80 11 0 15 -16 17 -67z m393 -13 l0 -75 -94 -3 c-108 -3 -111 -2 -111 75 0 85
        -1 84 109 81 l96 -3 0 -75z m75 -150 c0 -6 -80 -10 -219 -10 -186 0 -222 -2 -235 -16 -9 -8 -16 -12 -16 -8 0 4 8 15
        18 25 15 16 40 18 235 18 138 1 217 -3 217 -9z m-1940 -85 c14 -19 14 -19 -2 -6 -10 7 -18 18 -18 24 0 6 1 8 3 6 1
        -2 9 -13 17 -24z m462 10 c-1 -5 -28 -10 -59 -10 -75 0 -85 -23 -11 -27 49 -3 53 -5 50 -27 -4 -42 -20 -51 -88 -51
        -35 0 -64 4 -64 9 0 15 18 23 25 11 9 -14 78 -13 93 2 25 25 13 38 -37 38 -58 0 -68 10 -45 45 16 24 22 26 78 23 34
        -2 60 -7 58 -13z m176 -18 c6 -31 -17 -47 -69 -47 -39 0 -49 -4 -54 -20 -3 -11 -11 -20 -17 -20 -6 0 -7 7 -3 18 4 9
        11 30 16 46 11 39 25 47 79 44 34 -2 46 -7 48 -21z m187 12 c4 -6 2 -30 -5 -55 l-13 -44 -68 0 c-38 0 -69 3 -69 6 0
        29 27 88 44 94 30 13 104 12 111 -1z m183 -11 c2 -9 -6 -26 -18 -38 -12 -12 -19 -28 -16 -36 8 -21 -15 -17 -42 9
        l-24 22 -18 -22 c-10 -13 -21 -23 -24 -23 -11 0 6 54 26 83 18 25 25 28 66 25 35 -2 48 -7 50 -20z m182 13 c0 -5
        -13 -11 -29 -14 -24 -5 -32 -14 -42 -47 -7 -22 -18 -40 -25 -40 -10 0 -10 7 2 35 19 46 18 55 -6 55 -11 0 -20 5 -
        20 10 0 6 27 10 60 10 33 0 60 -4 60 -9z m-1052 -111 c7 0 12 -5 12 -11 0 -14 -63 26 -69 43 -2 7 7 3 21 -9 13 -13
        30 -23 36 -23z m37 -30 c3 -5 1 -10 -4 -10 -6 0 -11 5 -11 10 0 6 2 10 4 10 3 0 8 -4 11 -10z m925 -84 c0 -3 -4 -8
        -10 -11 -5 -3 -10 -1 -10 4 0 6 5 11 10 11 6 0 10 -2 10 -4z m-625 -46 c3 -5 2 -10 -4 -10 -5 0 -13 5 -16 10 -3 6
        -2 10 4 10 5 0 13 -4 16 -10z m500 0 c-3 -5 -11 -10 -16 -10 -6 0 -7 5 -4 10 3 6 11 10 16 10 6 0 7 -4 4 -10z m-440
        -10 c8 -13 -5 -13 -25 0 -13 8 -13 10 2 10 9 0 20 -4 23 -10z m380 0 c-3 -5 -11 -10 -16 -10 -6 0 -7 5 -4 10 3 6 11
        10 16 10 6 0 7 -4 4 -10z m-290 -10 c7 -12 -12 -12 -40 0 -18 8 -17 9 7 9 15 1 30 -3 33 -9z m215 0 c-14 -4 -34 -8
        -45 -8 l-20 -1 20 9 c11 5 31 8 45 8 l25 0 -25 -8z"/>
        <path d="M164 855 c-12 -31 4 -45 49 -45 47 0 74 19 63 45 -8 21 -104 21 -112 0z"/>
        <path d="M1237 830 c-23 -38 -22 -40 18 -40 40 0 45 15 17 48 l-18 21 -17 -29z"/>
        <path d="M1477 864 c-13 -13 -7 -42 9 -48 23 -9 77 -7 92 3 8 5 12 17 10 27 -2 15 -14 20 -53 22 -28 2 -54 0 -58 -4z"/>
        <path d="M1751 856 c-7 -8 -11 -34 -9 -58 l3 -43 68 -3 68 -3 -3 58 -3 58 -56 3 c-40 2 -59 -1 -68 -12z"/>
        <path d="M2271 856 c-7 -8 -11 -34 -9 -58 l3 -43 70 0 70 0 0 55 0 55 -61 3 c-44 2 -64 -1 -73 -12z"/>
        <path d="M1115 560 c-10 -16 4 -30 29 -30 25 0 51 22 39 33 -10 11 -61 8 -68 -3z"/>
        <path d="M1275 540 c-20 -39 -13 -50 34 -50 42 0 59 14 63 51 3 22 -1 24 -39 27 -38 3 -43 0 -58 -28z"/>
        <path d="M1477 563 c-11 -11 14 -33 38 -33 24 0 49 22 38 33 -3 4 -21 7 -38 7 -17 0 -35 -3 -38 -7z"/>
    </g>
</svg>
