<?xml version="1.0"?>
<!DOCTYPE svg PUBLIC "-//W3C//DTD SVG 20010904//EN"
        "http://www.w3.org/TR/2001/REC-SVG-20010904/DTD/svg10.dtd">
<svg version="1.0" xmlns="http://www.w3.org/2000/svg"
     width="1236.000000pt" height="716.000000pt" viewBox="0 0 1236.000000 716.000000">

    <g transform="translate(0.000000,716.000000) scale(0.100000,-0.100000)"
       fill="#A9B1BF" stroke="none">
        <path d="M5655 7150 c-927 -54 -1725 -197 -2465 -442 -383 -126 -726 -266
-1030 -419 -311 -156 -381 -196 -613 -351 -318 -212 -527 -379 -742 -593 -169
-168 -282 -305 -403 -485 -272 -406 -402 -813 -402 -1262 0 -957 615 -1834
1765 -2518 1372 -817 3348 -1208 5280 -1045 1465 124 2870 577 3827 1235 334
229 463 335 692 571 361 370 578 726 711 1163 58 194 79 339 79 566 0 211 -15
342 -60 529 -284 1164 -1553 2176 -3384 2700 -613 175 -1287 289 -2020 342
-199 14 -1039 20 -1235 9z m1160 -190 c524 -34 1030 -101 1473 -196 1346 -288
2457 -834 3147 -1545 669 -690 889 -1482 629 -2266 -49 -151 -176 -405 -277
-555 -733 -1097 -2401 -1898 -4427 -2127 -417 -48 -579 -55 -1160 -56 -550 0
-657 4 -1025 41 -1779 176 -3304 787 -4190 1678 -431 434 -680 899 -751 1403
-22 158 -14 463 15 606 63 309 174 574 350 838 116 174 198 275 351 433 927
956 2573 1594 4480 1736 395 30 1010 34 1385 10z"/>
        <path d="M5848 6773 c12 -2 30 -2 40 0 9 3 -1 5 -23 4 -22 0 -30 -2 -17 -4z"/>
        <path d="M5540 6763 c-228 -17 -457 -38 -620 -59 -1625 -204 -2996 -775 -3796
-1580 -358 -361 -581 -750 -672 -1174 -24 -115 -26 -144 -26 -350 0 -205 2
-236 27 -350 84 -396 279 -753 606 -1107 46 -51 87 -90 90 -88 2 3 104 452
225 998 l221 992 945 3 c1059 3 1014 6 1130 -69 103 -67 167 -180 177 -314 4
-61 -3 -104 -60 -346 -36 -153 -75 -296 -87 -318 -25 -50 -81 -114 -132 -151
l-37 -27 28 -21 c39 -29 71 -98 71 -155 0 -26 -40 -223 -89 -439 -50 -216 -89
-393 -88 -394 1 -1 319 473 707 1053 388 580 722 1075 743 1099 25 28 65 57
115 81 72 36 81 38 172 38 91 0 100 -2 172 -38 86 -42 145 -101 185 -182 13
-27 145 -493 292 -1035 148 -542 274 -1005 281 -1030 12 -44 18 -20 251 1030
131 591 246 1108 254 1148 l16 72 948 0 c812 0 955 -2 1005 -15 173 -45 297
-203 298 -377 0 -54 -85 -470 -122 -600 -17 -60 -87 -155 -144 -196 l-53 -38
24 -17 c38 -29 72 -89 79 -137 7 -55 -92 -508 -130 -594 -94 -213 -281 -375
-518 -448 l-73 -23 -1818 -3 c-1032 -1 -1817 1 -1815 6 1 5 84 131 183 280
l180 271 364 0 363 1 -6 22 c-3 13 -65 257 -137 543 -72 286 -136 526 -144
534 -35 36 -47 20 -613 -829 l-552 -830 -589 0 -589 0 13 58 c7 31 55 236 105
456 50 219 94 404 96 411 3 7 -2 20 -11 29 -15 14 -72 16 -570 16 l-553 0 -10
-42 c-22 -88 -202 -878 -202 -886 0 -12 219 -155 370 -241 913 -524 2079 -851
3410 -957 269 -21 966 -30 1260 -15 1248 62 2395 332 3315 780 237 116 397
204 570 315 l110 71 -643 3 c-353 1 -642 4 -642 7 0 6 317 478 357 532 l24 33
353 0 354 0 -137 542 c-141 555 -149 577 -187 553 -9 -6 -265 -382 -569 -835
l-552 -825 -323 -3 c-256 -2 -321 0 -317 10 14 35 1533 2300 1572 2345 32 37
68 63 122 90 73 36 82 38 173 38 91 0 100 -2 172 -38 84 -41 151 -106 188
-181 11 -24 134 -460 271 -967 138 -508 253 -926 256 -929 8 -8 232 228 322
340 236 293 396 622 463 951 20 99 23 144 23 339 0 195 -3 240 -23 339 -67
330 -224 653 -462 951 -115 144 -348 374 -510 504 -834 667 -2084 1135 -3500
1310 -242 30 -496 53 -670 60 l-125 5 125 -18 c389 -57 700 -147 985 -286 517
-251 795 -591 795 -973 -1 -572 -676 -1070 -1675 -1236 -415 -69 -943 -67
-1370 5 -342 58 -664 160 -915 291 -372 193 -606 430 -702 708 -30 89 -32 104
-33 235 0 133 2 145 33 234 114 328 423 604 894 799 253 106 612 195 924 231
66 8 64 8 -41 8 -60 0 -130 -2 -155 -4z"/>
        <path d="M6654 6519 c-18 -5 -54 -24 -80 -41 -44 -30 -104 -115 -567 -808
-286 -426 -528 -795 -539 -820 -45 -96 -19 -228 59 -306 101 -101 269 -111
376 -23 40 33 1055 1539 1090 1618 92 207 -119 444 -339 380z"/>
        <path d="M2075 3478 c-2 -7 -21 -85 -40 -173 -20 -88 -38 -168 -41 -177 -5
-17 26 -18 559 -18 440 0 567 3 575 13 5 6 27 86 48 176 36 158 37 164 19 177
-27 20 -1113 21 -1120 2z"/>
        <path d="M7116 3473 c-8 -26 -76 -342 -76 -354 0 -12 1110 -12 1129 0 13 9 80
274 81 323 0 17 -7 31 -19 38 -13 6 -208 10 -565 10 -510 0 -545 -1 -550 -17z"/>
        <path d="M6890 2513 c-7 -32 -25 -119 -41 -192 -16 -74 -29 -141 -29 -148 0
-11 105 -13 555 -13 517 0 556 1 573 18 26 26 97 344 82 371 -11 21 -16 21
-570 21 l-559 0 -11 -57z"/>
    </g>
</svg>
