<?xml version="1.0" encoding="UTF-8"?>
<!DOCTYPE svg PUBLIC "-//W3C//DTD SVG 1.1//EN" "http://www.w3.org/Graphics/SVG/1.1/DTD/svg11.dtd">
<svg xmlns="http://www.w3.org/2000/svg" version="1.1" width="256px" height="256px"
     style="fill-rule:evenodd; clip-rule:evenodd">
    <g>
        <path fill="#A9B1BF"
              d="M 96.5,-0.5 C 103.833,-0.5 111.167,-0.5 118.5,-0.5C 96.1944,42.1084 73.8611,84.7751 51.5,127.5C
              70.3185,163.135 89.1518,198.802 108,234.5C 126.848,198.802 145.682,163.135 164.5,127.5C 153.762,106.789
              142.929,86.122 132,65.5C 131.333,64.1667 131.333,62.8333 132,61.5C 134.667,56.1667 137.333,50.8333
              140,45.5C 140.718,44.5494 141.551,44.3828 142.5,45C 157.218,72.2691 171.552,99.7691 185.5,127.5C
              163.156,170.188 140.823,212.855 118.5,255.5C 111.5,255.5 104.5,255.5 97.5,255.5C 74.667,213.17
              52.3337,170.504 30.5,127.5C 52.5234,84.7851 74.5234,42.1184 96.5,-0.5 Z"/>
    </g>
    <g>
        <path fill="#A9B1BF"
              d="M 135.5,-0.5 C 142.833,-0.5 150.167,-0.5 157.5,-0.5C 179.742,41.8995 201.742,84.3995 223.5,127C
              201.6,169.968 179.6,212.801 157.5,255.5C 150.5,255.5 143.5,255.5 136.5,255.5C 137.092,252.309
              138.259,249.309 140,246.5C 161.375,207.081 182.209,167.414 202.5,127.5C 184.194,91.5537 165.36,55.8871
              146,20.5C 127.002,55.8263 108.502,91.493 90.5,127.5C 100.972,149.11 111.972,170.444 123.5,191.5C
              120.535,197.625 117.368,203.625 114,209.5C 113.107,210.711 112.274,210.711 111.5,209.5C 97.1667,182.167
              82.8333,154.833 68.5,127.5C 90.8611,84.7751 113.194,42.1084 135.5,-0.5 Z"/>
    </g>
</svg>
