<?xml version="1.0" encoding="UTF-8"?>
<!DOCTYPE svg PUBLIC "-//W3C//DTD SVG 1.1//EN" "http://www.w3.org/Graphics/SVG/1.1/DTD/svg11.dtd">
<svg xmlns="http://www.w3.org/2000/svg" version="1.1" width="256px" height="256px"
     style="fill-rule:evenodd; clip-rule:evenodd">
    <g>
        <path fill="#A9B1BF"
              d="M 103.5,12.5 C 101.708,13.3091 99.7078,13.8091 97.5,14C 98.6667,14.1667 99.8333,14.3333 101,14.5C
              116.333,13.1667 131.667,13.1667 147,14.5C 148.167,14.3333 149.333,14.1667 150.5,14C 148.292,13.8091
              146.292,13.3091 144.5,12.5C 171.517,13.219 198.517,14.3857 225.5,16C 232.978,16.0569 240.311,17.0569
              247.5,19C 250.883,20.3804 252.716,22.8804 253,26.5C 253.8,35.9904 254.633,45.3237 255.5,54.5C 255.5,61.5
              255.5,68.5 255.5,75.5C 196.531,72.7397 137.531,71.9063 78.5,73C 75.4119,73.5792 72.7452,74.9125 70.5,77C
              131.986,89.3302 193.653,100.83 255.5,111.5C 255.5,121.5 255.5,131.5 255.5,141.5C 170.208,126.618
              84.8743,111.951 -0.5,97.5C -0.5,82.5 -0.5,67.5 -0.5,52.5C -0.150804,40.9661 4.18253,31.1328 12.5,23C
              22.1688,17.999 32.5022,15.3323 43.5,15C 63.4949,13.9764 83.4949,13.1431 103.5,12.5 Z"/>
    </g>
    <g>
        <path fill="#A9B1BF"
              d="M 103.5,12.5 C 117.167,12.5 130.833,12.5 144.5,12.5C 146.292,13.3091 148.292,13.8091 150.5,14C
              149.333,14.1667 148.167,14.3333 147,14.5C 131.667,13.1667 116.333,13.1667 101,14.5C 99.8333,14.3333
              98.6667,14.1667 97.5,14C 99.7078,13.8091 101.708,13.3091 103.5,12.5 Z"/>
    </g>
    <g>
        <path fill="#A9B1BF"
              d="M -0.5,108.5 C 84.893,124.379 170.226,140.379 255.5,156.5C 255.5,171.833 255.5,187.167 255.5,202.5C
              255.151,214.034 250.817,223.867 242.5,232C 232.831,237.001 222.498,239.668 211.5,240C 187.515,241.309
              163.515,242.142 139.5,242.5C 127.989,241.505 116.322,241.005 104.5,241C 106.708,241.191 108.708,241.691
              110.5,242.5C 83.4833,241.781 56.4833,240.614 29.5,239C 22.0221,238.943 14.6887,237.943 7.5,236C
              4.33738,234.52 2.50405,232.02 2,228.5C 1.2213,219.341 0.38797,210.341 -0.5,201.5C -0.5,192.5 -0.5,183.5
              -0.5,174.5C 20.8101,175.888 42.1435,176.888 63.5,177.5C 71.1112,178.995 78.9445,179.662 87,179.5C
              92.3445,179.499 97.5111,179.166 102.5,178.5C 126.836,178.667 151.169,178.5 175.5,178C 178.952,177.108
              181.952,175.442 184.5,173C 122.824,162.498 61.1574,151.998 -0.5,141.5C -0.5,130.5 -0.5,119.5 -0.5,108.5 Z"/>
    </g>
    <g>
        <path fill="#A9B1BF"
              d="M 63.5,177.5 C 76.497,177.928 89.497,178.262 102.5,178.5C 97.5111,179.166 92.3445,179.499 87,179.5C
              78.9445,179.662 71.1112,178.995 63.5,177.5 Z"/>
    </g>
    <g>
        <path fill="#A9B1BF"
              d="M 139.5,242.5 C 129.833,242.5 120.167,242.5 110.5,242.5C 108.708,241.691 106.708,241.191 104.5,241C
              116.322,241.005 127.989,241.505 139.5,242.5 Z"/>
    </g>
</svg>
