<?xml version="1.0" standalone="no"?>
<!DOCTYPE svg PUBLIC "-//W3C//DTD SVG 20010904//EN"
        "http://www.w3.org/TR/2001/REC-SVG-20010904/DTD/svg10.dtd">
<svg version="1.0" xmlns="http://www.w3.org/2000/svg"
     width="544.000000pt" height="543.000000pt" viewBox="0 0 544.000000 543.000000">
    <g transform="translate(0.000000,543.000000) scale(0.100000,-0.100000)"
       fill="#A9B1BF" stroke="none">
        <path d="M2640 5344 c-583 -40 -1096 -237 -1535 -591 -195 -157 -437 -428
-569 -637 -206 -325 -342 -705 -392 -1091 -22 -173 -22 -477 0 -650 49 -384
188 -770 391 -1090 134 -211 375 -481 570 -638 337 -272 741 -461 1151 -541
202 -39 314 -49 524 -49 431 0 815 93 1198 287 469 239 873 631 1124 1091 157
286 262 612 304 940 20 156 23 464 5 615 -68 589 -322 1124 -736 1549 -494
507 -1125 784 -1835 804 -80 3 -170 3 -200 1z m520 -362 c883 -160 1569 -758
1838 -1602 118 -373 135 -809 46 -1208 -49 -221 -162 -498 -281 -692 -352
-572 -921 -956 -1602 -1081 -139 -26 -474 -36 -630 -20 -1087 114 -1943 950
-2077 2030 -17 136 -18 402 -3 539 85 775 567 1464 1270 1817 208 105 508 199
714 224 50 6 101 13 115 15 14 3 131 3 260 1 184 -2 260 -7 350 -23z"/>
        <path d="M2612 4634 c-146 -21 -382 -91 -539 -160 -266 -117 -481 -296 -607
-506 -84 -140 -100 -201 -97 -383 2 -127 6 -153 40 -280 37 -134 42 -146 125
-273 86 -132 87 -133 184 -195 156 -101 315 -160 568 -213 148 -30 239 -44
293 -44 65 0 83 -4 106 -22 l28 -22 -7 -437 c-7 -385 -6 -441 8 -467 19 -36
61 -52 143 -55 50 -1 65 3 90 23 l30 25 -5 451 -5 451 65 7 c57 5 95 0 284
-43 126 -28 281 -71 365 -100 144 -51 146 -53 212 -119 61 -62 69 -76 112
-187 l46 -119 -6 -96 c-11 -162 -30 -234 -92 -337 -57 -95 -119 -156 -298
-288 -119 -88 -397 -168 -696 -201 -153 -17 -158 -17 -330 5 -125 16 -219 35
-332 67 -138 39 -179 55 -317 130 l-158 85 -142 158 -141 157 -57 -10 c-72
-14 -119 -47 -144 -102 l-19 -44 60 -87 c33 -49 104 -140 158 -203 l99 -115
163 -86 c150 -80 182 -92 380 -149 203 -59 228 -64 406 -80 169 -15 208 -15
350 -3 136 11 195 22 394 74 246 63 301 86 536 217 121 68 204 163 336 383
l100 166 15 137 16 136 -31 170 c-30 163 -34 174 -89 275 -48 89 -69 115 -131
169 -68 59 -87 69 -280 145 l-206 81 -210 25 c-115 13 -251 27 -302 31 -50 4
-96 10 -102 13 -7 5 -7 119 0 386 6 209 12 381 13 382 2 2 112 -1 247 -5 237
-8 245 -8 276 12 l33 21 0 102 0 102 -33 25 -34 26 -675 0 -675 0 -11 -25 c-7
-14 -12 -68 -12 -120 0 -141 -14 -135 321 -135 l269 0 0 -370 c0 -203 -1 -370
-2 -370 -47 0 -453 80 -535 105 -64 19 -121 35 -127 35 -6 0 -65 42 -130 93
-157 121 -206 190 -236 327 -12 52 -24 131 -27 176 -5 74 -3 88 26 165 56 148
103 213 226 312 90 72 138 102 261 162 150 72 153 73 315 98 103 16 230 28
342 32 l179 6 146 -46 c104 -34 202 -75 343 -146 l197 -98 94 -97 c85 -88 134
-124 171 -124 7 0 47 22 89 50 94 61 98 76 56 177 -28 67 -37 78 -137 161
-201 167 -236 191 -372 253 -222 101 -341 138 -534 165 -188 27 -294 29 -433
8z"/>
    </g>
</svg>
