<?xml version="1.0" encoding="UTF-8"?>
<!DOCTYPE svg PUBLIC "-//W3C//DTD SVG 1.1//EN" "http://www.w3.org/Graphics/SVG/1.1/DTD/svg11.dtd">
<svg xmlns="http://www.w3.org/2000/svg" version="1.1" width="256px" height="256px"
     style="fill-rule:evenodd; clip-rule:evenodd">
    <g>
        <path fill="#A9B1BF"
              d="M 255.5,116.5 C 255.5,123.5 255.5,130.5 255.5,137.5C 253.546,145.738 249.713,153.071 244,159.5C
              243.51,160.793 243.343,162.127 243.5,163.5C 239.869,164.608 236.869,166.774 234.5,170C 213.406,185.761
              189.739,195.594 163.5,199.5C 119.099,207.086 76.7655,200.919 36.5,181C 28.4444,176.301 21.111,170.635
              14.5,164C 13.552,163.517 12.552,163.351 11.5,163.5C 11.6567,162.127 11.49,160.793 11,159.5C
              5.28693,153.071 1.4536,145.738 -0.5,137.5C -0.5,130.5 -0.5,123.5 -0.5,116.5C 6.14808,98.0016
              18.1481,83.835 35.5,74C 76.0003,53.613 118.667,47.2797 163.5,55C 187.061,58.6278 208.728,66.9612
              228.5,80C 241.804,89.1599 250.804,101.327 255.5,116.5 Z M 107.5,61.5 C 140.713,58.6513 172.713,63.4846
              203.5,76C 216.352,81.8447 227.519,90.0114 237,100.5C 250.993,118.461 250.993,136.461 237,154.5C
              218.81,172.681 196.977,184.181 171.5,189C 127.551,198.309 85.2179,193.642 44.5,175C 29,167.5 17.5,156
              10,140.5C 5.62216,127.653 7.28883,115.653 15,104.5C 24.8265,92.0072 36.9932,82.5072 51.5,76C
              69.5606,68.3192 88.2273,63.4859 107.5,61.5 Z"/>
    </g>
    <g>
        <path fill="#A9B1BF"
              d="M 148.5,111.5 C 147.77,113.045 146.437,113.878 144.5,114C 127.805,116.908 111.138,119.908 94.5,123C
              90.0926,132.546 86.2592,142.38 83,152.5C 82.5774,153.956 81.7441,154.456 80.5,154C 76.5482,143.47
              72.2149,133.137 67.5,123C 49.0939,119.729 30.7606,116.229 12.5,112.5C 13.0253,111.808 13.6919,111.308
              14.5,111C 32.6236,108.175 50.6236,104.842 68.5,101C 72.6692,90.6585 76.3358,80.1585 79.5,69.5C
              82.0495,69.5608 83.5495,70.8941 84,73.5C 86.9747,82.7581 90.1413,91.9248 93.5,101C 111.738,104.929
              130.072,108.429 148.5,111.5 Z"/>
    </g>
    <g>
        <path fill="#A9B1BF"
              d="M 194.5,78.5 C 195.496,78.4142 196.329,78.7476 197,79.5C 198.441,84.1877 200.441,88.521 203,92.5C
              210.664,93.5986 218.164,95.2653 225.5,97.5C 218.189,99.8593 210.689,101.526 203,102.5C 200.594,107.219
              198.094,111.886 195.5,116.5C 193.407,112.059 191.407,107.559 189.5,103C 181.074,101.482 172.741,99.6487
              164.5,97.5C 172.75,95.3497 181.083,93.5164 189.5,92C 191.267,87.5316 192.934,83.0316 194.5,78.5 Z"/>
    </g>
    <g>
        <path fill="#A9B1BF"
              d="M 215.5,115.5 C 216.671,120.691 218.671,125.525 221.5,130C 228.794,131.549 236.127,132.882 243.5,134C
              244.167,134.667 244.833,135.333 245.5,136C 237.469,137.147 229.469,138.481 221.5,140C 219.266,144.859
              216.933,149.692 214.5,154.5C 212.067,149.692 209.734,144.859 207.5,140C 199.421,138.823 191.421,137.323
              183.5,135.5C 183.709,134.914 184.043,134.414 184.5,134C 192.188,132.796 199.855,131.462 207.5,130C
              209.909,125.781 211.743,121.281 213,116.5C 213.671,115.748 214.504,115.414 215.5,115.5 Z"/>
    </g>
    <g>
        <path fill="#A9B1BF"
              d="M 120.5,136.5 C 121.11,135.609 121.443,134.609 121.5,133.5C 128.875,132.66 136.209,131.493 143.5,130C
              146.119,125.314 148.452,120.48 150.5,115.5C 152.918,120.234 155.252,125.068 157.5,130C 165.627,131.462
              173.627,133.129 181.5,135C 173.685,137.15 165.685,138.817 157.5,140C 155.252,144.932 152.918,149.766
              150.5,154.5C 148.452,149.52 146.119,144.686 143.5,140C 135.829,138.785 128.162,137.618 120.5,136.5 Z"/>
    </g>
    <g>
        <path fill="#A9B1BF"
              d="M 121.5,133.5 C 121.443,134.609 121.11,135.609 120.5,136.5C 119.115,135.053 119.448,134.053 121.5,133.5 Z"/>
    </g>
    <g>
        <path fill="#A9B1BF"
              d="M 171.5,144.5 C 172.496,144.414 173.329,144.748 174,145.5C 175.507,149.843 177.007,154.176 178.5,158.5C
              186.909,160.248 195.242,162.248 203.5,164.5C 195.131,166.394 186.798,168.394 178.5,170.5C 177.235,173.796
              176.068,177.129 175,180.5C 174.632,181.91 173.799,182.91 172.5,183.5C 170.401,179.034 168.401,174.534
              166.5,170C 158.146,168.229 149.813,166.396 141.5,164.5C 149.74,162.345 158.073,160.512 166.5,159C
              168.863,154.41 170.53,149.577 171.5,144.5 Z"/>
    </g>
    <g>
        <path fill="#A9B1BF"
              d="M 106.5,150.5 C 109.291,154.997 111.624,159.83 113.5,165C 121.699,166.139 129.699,167.972 137.5,170.5C
              129.586,172.597 121.586,174.263 113.5,175.5C 111.311,180.06 109.311,184.727 107.5,189.5C 104.801,185.108
              102.468,180.441 100.5,175.5C 92.4014,174.262 84.4014,172.595 76.5,170.5C 84.3015,167.972 92.3015,166.139
              100.5,165C 102.601,160.195 104.601,155.362 106.5,150.5 Z"/>
    </g>
</svg>
