<?xml version="1.0" encoding="UTF-8"?>
<!DOCTYPE svg PUBLIC "-//W3C//DTD SVG 1.1//EN" "http://www.w3.org/Graphics/SVG/1.1/DTD/svg11.dtd">
<svg xmlns="http://www.w3.org/2000/svg" version="1.1" width="256px" height="256px"
     style="fill-rule:evenodd; clip-rule:evenodd">
    <g>
        <path fill="#A9B1BF"
              d="M 196.5,21.5 C 196.833,20.8333 197.167,20.1667 197.5,19.5C 224.554,36.8876 242.387,61.221 251,92.5C
              252.731,99.5897 254.231,106.59 255.5,113.5C 255.5,122.833 255.5,132.167 255.5,141.5C 245.034,204.298
              208.7,242.298 146.5,255.5C 133.5,255.5 120.5,255.5 107.5,255.5C 89.5092,251.887 72.5092,245.387
              56.5,236C 55.6195,235.292 54.9528,234.458 54.5,233.5C 54.5,232.5 54.5,231.5 54.5,230.5C 54.6661,224.824
              54.4994,219.157 54,213.5C 53.8261,218.684 53.3261,223.684 52.5,228.5C 52.6661,222.824 52.4994,217.157
              52,211.5C 50.9326,210.809 49.7659,210.309 48.5,210C 47.1667,209.333 47.1667,208.667 48.5,208C
              45.657,204.825 42.4903,201.991 39,199.5C 36.6083,194.444 33.4417,189.944 29.5,186C 29.2956,182.254
              27.6289,178.92 24.5,176C 25.6341,174.984 25.3008,174.317 23.5,174C 23.5,173 23.5,172 23.5,171C
              21.4311,170.676 21.0977,169.842 22.5,168.5C 20.1336,162.765 18.467,157.098 17.5,151.5C 16.5585,151.511
              15.8919,151.011 15.5,150C 16.4589,147.88 16.6256,145.713 16,143.5C 15.6667,144.5 15.3333,145.5 15,146.5C
              14.92,143.362 15.0867,140.196 15.5,137C 15.3333,135.167 15.1667,133.333 15,131.5C 14.6667,134.167
              14.3333,136.833 14,139.5C 14.3597,132.818 14.193,126.151 13.5,119.5C 13.6667,118.167 13.8333,116.833
              14,115.5C 14.3333,117.833 14.6667,120.167 15,122.5C 15.6965,118.465 15.5299,114.465 14.5,110.5C
              14.6667,109.833 14.8333,109.167 15,108.5C 15.6493,111.937 16.1493,112.104 16.5,109C 15.875,107.159
              15.7083,105.326 16,103.5C 16.5556,105.595 17.0556,105.762 17.5,104C 18.5072,97.459 20.5072,90.959
              23.5,84.5C 22.0977,83.1575 22.4311,82.3242 24.5,82C 23.3659,80.984 23.6992,80.3173 25.5,80C
              25.1667,79.6667 24.8333,79.3333 24.5,79C 27.8595,75.6459 29.5262,72.3125 29.5,69C 31.1667,67.3333
              32.8333,65.6667 34.5,64C 34.1667,63.6667 33.8333,63.3333 33.5,63C 38.7132,55.9304 45.2132,48.7638
              53,41.5C 53.3333,41.8333 53.6667,42.1667 54,42.5C 55.6667,40.5 57.3333,38.5 59,36.5C 60.5581,37.3452
              61.5581,36.6785 62,34.5C 62.3333,34.8333 62.6667,35.1667 63,35.5C 63.6152,33.8839 64.6152,32.5505
              66,31.5C 67,31.5 68,31.5 69,31.5C 69.9147,30.6721 70.5814,29.6721 71,28.5C 71.3333,28.8333 71.6667,29.1667
              72,29.5C 74.0713,28.6361 75.738,27.3028 77,25.5C 78,25.5 79,25.5 80,25.5C 80.3242,23.4311 81.1575,23.0977
              82.5,24.5C 83.5,24 84.5,23.5 85.5,23C 84.3044,22.3457 84.3044,21.8457 85.5,21.5C 86.1667,21.8333
              86.8333,22.1667 87.5,22.5C 90.4189,21.8158 92.9189,20.4825 95,18.5C 96.7633,18.3062 98.5967,18.3062
              100.5,18.5C 100.489,17.5585 100.989,16.8919 102,16.5C 103.743,15.8972 106.743,15.8972 111,16.5C
              111.833,16.3333 112.667,16.1667 113.5,16C 112.167,15.6667 110.833,15.3333 109.5,15C 120.823,15.1151
              132.156,15.6151 143.5,16.5C 145.832,15.8275 148.166,15.6608 150.5,16C 148.405,16.5556 148.238,17.0556
              150,17.5C 151,17.1667 152,16.8333 153,16.5C 154.011,16.8919 154.511,17.5585 154.5,18.5C 155.167,18.1667
              155.833,17.8333 156.5,17.5C 158.778,20.0425 161.445,20.7092 164.5,19.5C 165.696,19.8457 165.696,20.3457
              164.5,21C 166.11,22.4947 167.776,22.6613 169.5,21.5C 170.5,22 171.5,22.5 172.5,23C 171.66,24.6665
              172.16,24.8331 174,23.5C 174.317,25.3008 174.984,25.6341 176,24.5C 176.317,26.3008 176.984,26.6341
              178,25.5C 178.667,26.8333 179.667,27.8333 181,28.5C 182,28.5 183,28.5 184,28.5C 184.419,29.6721
              185.085,30.6721 186,31.5C 187,31.5 188,31.5 189,31.5C 190.84,33.8397 193.007,35.8397 195.5,37.5C
              196.495,32.2079 196.828,26.8746 196.5,21.5 Z M 163.5,44.5 C 164.492,44.3284 165.158,44.6618 165.5,45.5C
              166.75,45.5774 167.583,46.244 168,47.5C 168.333,47.1667 168.667,46.8333 169,46.5C 170.667,47.5 172,48.8333
              173,50.5C 174.016,49.3659 174.683,49.6992 175,51.5C 175.333,51.1667 175.667,50.8333 176,50.5C
              176.377,51.9423 177.21,52.9423 178.5,53.5C 179.568,54.4345 180.901,54.7678 182.5,54.5C 183.306,55.7281
              184.306,56.7281 185.5,57.5C 185.062,57.4346 184.728,57.6012 184.5,58C 185.667,59.1667 186.833,60.3333
              188,61.5C 188.399,61.2716 188.565,60.9382 188.5,60.5C 189.833,61.1667 190.833,62.1667 191.5,63.5C
              148.832,63.6667 106.165,63.5 63.5,63C 65.0375,61.2927 66.7041,59.7927 68.5,58.5C 71.2381,55.9997
              73.9048,53.9997 76.5,52.5C 76.8333,53.8333 77.1667,53.8333 77.5,52.5C 78.1667,51.8333 78.8333,51.1667
              79.5,50.5C 79.8333,51.8333 80.1667,51.8333 80.5,50.5C 82.4105,49.8393 84.4105,48.506 86.5,46.5C
              87.8333,46.1667 89.1667,45.8333 90.5,45.5C 91.4916,45.6716 92.1583,45.3382 92.5,44.5C 93.2389,44.631
              93.9056,44.4643 94.5,44C 93.3044,43.3457 93.3044,42.8457 94.5,42.5C 95.6868,43.6527 96.6868,43.6527
              97.5,42.5C 98.791,42.7373 99.791,42.404 100.5,41.5C 105.091,39.0805 110.424,37.5805 116.5,37C
              123.833,36.3333 131.167,36.3333 138.5,37C 142.645,37.4209 146.478,38.5876 150,40.5C 150.414,40.0426
              150.914,39.7093 151.5,39.5C 151.833,40.1667 152.167,40.8333 152.5,41.5C 153.167,41.1667 153.833,40.8333
              154.5,40.5C 154.833,41.1667 155.167,41.8333 155.5,42.5C 156.167,42.1667 156.833,41.8333 157.5,41.5C
              158.696,41.8457 158.696,42.3457 157.5,43C 158.449,43.6172 159.282,43.4506 160,42.5C 160.333,43.1667
              160.667,43.8333 161,44.5C 161.977,43.2264 162.811,43.2264 163.5,44.5 Z M 211.5,57.5 C 210.167,57.8333
              210.167,58.1667 211.5,58.5C 214.425,61.9082 217.425,65.4082 220.5,69C 220.167,69.3333 219.833,69.6667
              219.5,70C 219.802,71.6549 221.136,72.9882 223.5,74C 223.167,74.3333 222.833,74.6667 222.5,75C
              224.719,76.6006 226.052,78.7672 226.5,81.5C 227.338,81.8417 227.672,82.5084 227.5,83.5C 228.774,84.1894
              228.774,85.0228 227.5,86C 229.569,86.3242 229.902,87.1575 228.5,88.5C 229.167,88.8333 229.833,89.1667
              230.5,89.5C 230.167,90.1667 229.833,90.8333 229.5,91.5C 230.167,91.8333 230.833,92.1667 231.5,92.5C
              162.502,93.6666 93.5024,93.8333 24.5,93C 25.8333,92.6667 27.1667,92.3333 28.5,92C 27.3463,91.0862
              27.513,90.2529 29,89.5C 29.3333,89.8333 29.6667,90.1667 30,90.5C 31.8254,87.6235 33.9921,85.6235
              36.5,84.5C 36.8333,85.8333 37.1667,85.8333 37.5,84.5C 38.8846,83.4264 40.0513,82.0931 41,80.5C
              41.3333,80.8333 41.6667,81.1667 42,81.5C 47.6019,76.4847 53.1019,72.1514 58.5,68.5C 104.67,68.8321
              150.67,68.4988 196.5,67.5C 197.376,67.6309 198.043,67.2975 198.5,66.5C 197.143,64.8144 195.81,63.1477
              194.5,61.5C 192.475,59.8036 190.475,58.137 188.5,56.5C 188.938,56.5654 189.272,56.3988 189.5,56C
              188.29,54.9609 187.29,53.7942 186.5,52.5C 189.249,49.7668 192.416,47.4335 196,45.5C 197.016,46.6341
              197.683,46.3008 198,44.5C 202.369,49.0367 206.869,53.3701 211.5,57.5 Z M 191.5,63.5 C 192.473,63.9867
              193.473,64.4867 194.5,65C 150.168,65.5 105.835,65.6667 61.5,65.5C 104.833,64.8333 148.167,64.1667
              191.5,63.5 Z M 114.5,236.5 C 112.265,236.795 110.265,236.461 108.5,235.5C 106.585,235.784 104.919,235.451
              103.5,234.5C 100.188,234.637 97.3545,233.637 95,231.5C 93.1598,232.833 92.6598,232.666 93.5,231C
              92.5509,230.383 91.7175,230.549 91,231.5C 90.5831,230.244 89.7498,229.577 88.5,229.5C 86.5,228.833
              84.5,228.167 82.5,227.5C 81.5084,227.672 80.8417,227.338 80.5,226.5C 79.2502,226.423 78.4169,225.756
              78,224.5C 76.984,225.634 76.3173,225.301 76,223.5C 75.6667,223.833 75.3333,224.167 75,224.5C
              74.2079,222.356 72.7079,221.023 70.5,220.5C 68.5769,219.394 66.5769,218.394 64.5,217.5C 63.1128,215.79
              61.7794,214.123 60.5,212.5C 60.8417,211.662 61.5084,211.328 62.5,211.5C 62.8333,212.833 63.1667,212.833
              63.5,211.5C 65.4574,209.699 67.7908,208.366 70.5,207.5C 71.2223,206.449 72.2223,205.782 73.5,205.5C
              74.7095,205.932 75.7095,206.599 76.5,207.5C 75.453,208.078 75.6197,208.744 77,209.5C 77.3988,209.272
              77.5654,208.938 77.5,208.5C 78.4916,208.328 79.1583,208.662 79.5,209.5C 80.4916,209.328 81.1583,209.662
              81.5,210.5C 80.453,211.078 80.6197,211.744 82,212.5C 82.3988,212.272 82.5654,211.938 82.5,211.5C
              83.4916,211.328 84.1583,211.662 84.5,212.5C 87.0818,213.966 89.4152,214.966 91.5,215.5C 92.791,215.263
              93.791,215.596 94.5,216.5C 93.7611,216.369 93.0944,216.536 92.5,217C 93.9456,218.298 95.2789,218.465
              96.5,217.5C 97.8333,217.5 99.1667,217.5 100.5,217.5C 101.499,186.24 101.833,154.24 101.5,121.5C
              106.794,117.873 111.461,113.54 115.5,108.5C 115.833,109.833 116.167,109.833 116.5,108.5C 119.527,106.14
              122.194,103.473 124.5,100.5C 124.783,99.7109 125.283,99.0442 126,98.5C 126.5,144.832 126.667,191.165
              126.5,237.5C 122.298,237.817 118.298,237.483 114.5,236.5 Z M 234.5,105.5 C 235.451,106.919 235.784,108.585
              235.5,110.5C 236.461,112.265 236.795,114.265 236.5,116.5C 237.166,120.319 237.499,124.319 237.5,128.5C
              237.667,134.74 237,140.74 235.5,146.5C 235.784,148.415 235.451,150.081 234.5,151.5C 234.585,154.747
              233.585,157.581 231.5,160C 232.815,161.395 232.481,162.395 230.5,163C 231.833,164.84 231.666,165.34
              230,164.5C 229.383,165.449 229.549,166.282 230.5,167C 229.833,167.333 229.167,167.667 228.5,168C
              229.774,168.977 229.774,169.811 228.5,170.5C 228.672,171.492 228.338,172.158 227.5,172.5C 227.672,173.492
              227.338,174.158 226.5,174.5C 224.386,179.914 222.052,184.247 219.5,187.5C 216.241,193.073 211.907,198.406
              206.5,203.5C 206.167,204.5 205.5,205.167 204.5,205.5C 199.516,210.873 194.183,215.207 188.5,218.5C
              188.167,217.167 187.833,217.167 187.5,218.5C 186.833,219.167 186.167,219.833 185.5,220.5C 185.167,219.167
              184.833,219.167 184.5,220.5C 183.322,221.662 182.155,222.662 181,223.5C 180.667,223.167 180.333,222.833
              180,222.5C 179.558,224.679 178.558,225.345 177,224.5C 176.395,226.481 175.395,226.815 174,225.5C
              173.667,226.167 173.333,226.833 173,227.5C 172.023,226.226 171.189,226.226 170.5,227.5C 169.508,227.328
              168.842,227.662 168.5,228.5C 167.761,228.369 167.094,228.536 166.5,229C 167.696,229.654 167.696,230.154
              166.5,230.5C 165.313,229.347 164.313,229.347 163.5,230.5C 158.392,233.625 152.392,235.291 145.5,235.5C
              143.735,236.461 141.735,236.795 139.5,236.5C 138.391,235.71 137.058,235.21 135.5,235C 136.253,233.513
              137.086,233.346 138,234.5C 140.114,231.034 142.948,228.367 146.5,226.5C 146.833,227.833 147.167,227.833
              147.5,226.5C 149.913,223.147 152.913,220.48 156.5,218.5C 156.5,218.167 156.5,217.833 156.5,217.5C
              157.167,217.5 157.833,217.5 158.5,217.5C 159.209,216.596 160.209,216.263 161.5,216.5C 161.842,215.662
              162.508,215.328 163.5,215.5C 165.585,214.966 167.918,213.966 170.5,212.5C 170.973,211.094 171.973,210.427
              173.5,210.5C 173.842,209.662 174.508,209.328 175.5,209.5C 176.078,210.547 176.744,210.38 177.5,209C
              177.272,208.601 176.938,208.435 176.5,208.5C 176.842,207.662 177.508,207.328 178.5,207.5C 179.078,208.547
              179.744,208.38 180.5,207C 180.272,206.601 179.938,206.435 179.5,206.5C 181.223,204.782 183.223,203.449
              185.5,202.5C 186.078,203.547 186.744,203.38 187.5,202C 187.272,201.601 186.938,201.435 186.5,201.5C
              191.833,196.833 196.833,191.833 201.5,186.5C 203.782,182.223 206.449,178.223 209.5,174.5C 209.328,173.508
              209.662,172.842 210.5,172.5C 210.328,171.508 210.662,170.842 211.5,170.5C 212.843,167.457 214.177,164.457
              215.5,161.5C 215.263,160.209 215.596,159.209 216.5,158.5C 220.446,146.491 222.112,134.157 221.5,121.5C
              222.496,118.248 224.163,115.581 226.5,113.5C 227.833,113.167 227.833,112.833 226.5,112.5C 226.328,111.508
              226.662,110.842 227.5,110.5C 229.201,107.284 230.868,104.617 232.5,102.5C 233.117,102.389 233.617,102.056
              234,101.5C 234.49,102.793 234.657,104.127 234.5,105.5 Z M 98.5,121.5 C 98.8315,152.671 98.4982,183.671
              97.5,214.5C 96.5084,214.672 95.8417,214.338 95.5,213.5C 94.5084,213.672 93.8417,213.338 93.5,212.5C
              92.5084,212.672 91.8417,212.338 91.5,211.5C 88.2558,210.537 85.2558,209.204 82.5,207.5C 80.9731,207.573
              79.9731,206.906 79.5,205.5C 78.5084,205.672 77.8417,205.338 77.5,204.5C 78.547,203.922 78.3803,203.256
              77,202.5C 76.6012,202.728 76.4346,203.062 76.5,203.5C 75.391,203.443 74.391,203.11 73.5,202.5C
              72.928,201.027 72.0946,199.693 71,198.5C 70.6667,198.833 70.3333,199.167 70,199.5C 67.5943,195.592
              64.4276,192.592 60.5,190.5C 57.7466,187.565 55.08,184.399 52.5,181C 52.8333,180.667 53.1667,180.333
              53.5,180C 51.3215,179.558 50.6548,178.558 51.5,177C 50.6721,176.085 49.6721,175.419 48.5,175C
              49.6341,173.984 49.3008,173.317 47.5,173C 47.8333,172.667 48.1667,172.333 48.5,172C 46.6972,170.738
              45.3639,169.071 44.5,167C 45.7736,166.023 45.7736,165.189 44.5,164.5C 43.8333,163.5 43.1667,162.5
              42.5,161.5C 40.4619,156.999 38.6286,150.999 37,143.5C 36.467,138.337 35.967,133.17 35.5,128C
              35.5056,125.967 35.8389,124.134 36.5,122.5C 56.9933,121.503 77.6599,121.169 98.5,121.5 Z M 218.5,121.5 C
              218.666,126.844 218.499,132.177 218,137.5C 216.047,143.151 214.88,148.484 214.5,153.5C 214.737,154.791
              214.404,155.791 213.5,156.5C 213.737,157.791 213.404,158.791 212.5,159.5C 212.672,160.492 212.338,161.158
              211.5,161.5C 210.873,165.42 209.207,168.753 206.5,171.5C 205.167,171.833 205.167,172.167 206.5,172.5C
              206.573,174.027 205.906,175.027 204.5,175.5C 203.331,178.511 201.664,181.178 199.5,183.5C 198.922,182.453
              198.256,182.62 197.5,184C 197.728,184.399 198.062,184.565 198.5,184.5C 197.92,186.749 196.587,188.415
              194.5,189.5C 194.167,190.5 193.5,191.167 192.5,191.5C 191.833,192.833 190.833,193.833 189.5,194.5C
              189.565,194.062 189.399,193.728 189,193.5C 187.5,195 186,196.5 184.5,198C 184.728,198.399 185.062,198.565
              185.5,198.5C 184.71,199.401 183.71,200.068 182.5,200.5C 181.922,199.453 181.256,199.62 180.5,201C
              180.728,201.399 181.062,201.565 181.5,201.5C 180.71,202.401 179.71,203.068 178.5,203.5C 178.158,204.338
              177.492,204.672 176.5,204.5C 175.922,203.453 175.256,203.62 174.5,205C 174.728,205.399 175.062,205.565
              175.5,205.5C 175.158,206.338 174.492,206.672 173.5,206.5C 172.922,205.453 172.256,205.62 171.5,207C
              171.728,207.399 172.062,207.565 172.5,207.5C 169.645,209.093 166.645,210.426 163.5,211.5C 163.158,212.338
              162.492,212.672 161.5,212.5C 161.158,213.338 160.492,213.672 159.5,213.5C 158.71,214.401 157.71,215.068
              156.5,215.5C 156.5,184.167 156.5,152.833 156.5,121.5C 177.167,121.5 197.833,121.5 218.5,121.5 Z"/>
    </g>
    <g>
        <path fill="#A9B1BF"
              d="M 112.5,-0.5 C 122.833,-0.5 133.167,-0.5 143.5,-0.5C 162.905,2.19493 180.905,8.86159 197.5,19.5C
              197.167,20.1667 196.833,20.8333 196.5,21.5C 152.225,-4.21021 107.892,-5.04355 63.5,19C 23.4385,44.633
              2.77183,81.133 1.5,128.5C 3.70612,166.124 18.0395,197.624 44.5,223C 47.0652,225.08 49.7318,226.913
              52.5,228.5C 52.8333,229.5 53.5,230.167 54.5,230.5C 54.5,231.5 54.5,232.5 54.5,233.5C 22.1863,209.543
              3.85294,177.543 -0.5,137.5C -0.5,130.833 -0.5,124.167 -0.5,117.5C 9.00313,51.6551 46.6698,12.3218
              112.5,-0.5 Z"/>
    </g>
    <g>
        <path fill="#A9B1BF"
              d="M 188.5,56.5 C 190.475,58.137 192.475,59.8036 194.5,61.5C 195.81,63.1477 197.143,64.8144 198.5,66.5C
              198.043,67.2975 197.376,67.6309 196.5,67.5C 150.664,67.8321 104.997,67.4988 59.5,66.5C 59.8417,65.6618
              60.5084,65.3284 61.5,65.5C 105.835,65.6667 150.168,65.5 194.5,65C 193.473,64.4867 192.473,63.9867
              191.5,63.5C 190.833,62.1667 189.833,61.1667 188.5,60.5C 187.833,59.1667 186.833,58.1667 185.5,57.5C
              184.306,56.7281 183.306,55.7281 182.5,54.5C 182.735,53.9033 183.235,53.5699 184,53.5C 185.643,54.3146
              187.143,55.3146 188.5,56.5 Z"/>
    </g>
    <g>
        <path fill="#A9B1BF"
              d="M 59.5,66.5 C 104.997,67.4988 150.664,67.8321 196.5,67.5C 150.67,68.4988 104.67,68.8321 58.5,68.5C
              58.3284,67.5084 58.6618,66.8417 59.5,66.5 Z"/>
    </g>
    <g>
        <path fill="#A9B1BF"
              d="M 220.5,121.5 C 219.833,121.5 219.167,121.5 218.5,121.5C 197.833,121.5 177.167,121.5 156.5,121.5C
              156.5,152.833 156.5,184.167 156.5,215.5C 156.5,216.167 156.5,216.833 156.5,217.5C 155.502,185.338
              155.168,153.004 155.5,120.5C 177.34,120.169 199.006,120.503 220.5,121.5 Z"/>
    </g>
    <g>
        <path fill="#A9B1BF"
              d="M 36.5,122.5 C 56.8361,122.333 77.1694,122.5 97.5,123C 77.5028,123.5 57.5028,123.667 37.5,123.5C
              37.6646,126.518 37.498,129.518 37,132.5C 36.5017,129.183 36.335,125.85 36.5,122.5 Z"/>
    </g>
    <g>
        <path fill="#A9B1BF"
              d="M 98.5,121.5 C 99.5,121.5 100.5,121.5 101.5,121.5C 101.833,154.24 101.499,186.24 100.5,217.5C
              100.667,190.498 100.5,163.498 100,136.5C 99.8332,162.84 99.3332,189.173 98.5,215.5C 97.8933,215.376
              97.56,215.043 97.5,214.5C 98.4982,183.671 98.8315,152.671 98.5,121.5 Z"/>
    </g>
    <g>
        <path fill="#A9B1BF"
              d="M 218.5,121.5 C 219.167,121.5 219.833,121.5 220.5,121.5C 220.833,121.5 221.167,121.5 221.5,121.5C
              222.112,134.157 220.446,146.491 216.5,158.5C 215.596,159.209 215.263,160.209 215.5,161.5C 214.177,164.457
              212.843,167.457 211.5,170.5C 210.662,170.842 210.328,171.508 210.5,172.5C 209.662,172.842 209.328,173.508
              209.5,174.5C 206.449,178.223 203.782,182.223 201.5,186.5C 196.833,191.833 191.833,196.833 186.5,201.5C
              185.833,201.5 185.5,201.833 185.5,202.5C 183.223,203.449 181.223,204.782 179.5,206.5C 178.833,206.5
              178.5,206.833 178.5,207.5C 177.508,207.328 176.842,207.662 176.5,208.5C 175.833,208.5 175.5,208.833
              175.5,209.5C 174.508,209.328 173.842,209.662 173.5,210.5C 171.973,210.427 170.973,211.094 170.5,212.5C
              167.918,213.966 165.585,214.966 163.5,215.5C 162.508,215.328 161.842,215.662 161.5,216.5C 160.209,216.263
              159.209,216.596 158.5,217.5C 157.833,217.5 157.167,217.5 156.5,217.5C 156.5,216.833 156.5,216.167
              156.5,215.5C 157.71,215.068 158.71,214.401 159.5,213.5C 160.492,213.672 161.158,213.338 161.5,212.5C
              162.492,212.672 163.158,212.338 163.5,211.5C 166.645,210.426 169.645,209.093 172.5,207.5C 173.167,207.5
              173.5,207.167 173.5,206.5C 174.492,206.672 175.158,206.338 175.5,205.5C 176.167,205.5 176.5,205.167
              176.5,204.5C 177.492,204.672 178.158,204.338 178.5,203.5C 179.71,203.068 180.71,202.401 181.5,201.5C
              182.167,201.5 182.5,201.167 182.5,200.5C 183.71,200.068 184.71,199.401 185.5,198.5C 187.167,197.5
              188.5,196.167 189.5,194.5C 190.833,193.833 191.833,192.833 192.5,191.5C 193.5,191.167 194.167,190.5
              194.5,189.5C 196.587,188.415 197.92,186.749 198.5,184.5C 199.167,184.5 199.5,184.167 199.5,183.5C
              201.664,181.178 203.331,178.511 204.5,175.5C 205.906,175.027 206.573,174.027 206.5,172.5C 207.833,172.167
              207.833,171.833 206.5,171.5C 209.207,168.753 210.873,165.42 211.5,161.5C 212.338,161.158 212.672,160.492
              212.5,159.5C 213.404,158.791 213.737,157.791 213.5,156.5C 214.404,155.791 214.737,154.791 214.5,153.5C
              214.88,148.484 216.047,143.151 218,137.5C 218.499,132.177 218.666,126.844 218.5,121.5 Z"/>
    </g>
    <g>
        <path fill="#A9B1BF"
              d="M 100.5,217.5 C 99.1667,217.5 97.8333,217.5 96.5,217.5C 96.1583,216.662 95.4916,216.328 94.5,216.5C
              93.791,215.596 92.791,215.263 91.5,215.5C 89.4152,214.966 87.0818,213.966 84.5,212.5C 84.1583,211.662
              83.4916,211.328 82.5,211.5C 82.5,210.833 82.1667,210.5 81.5,210.5C 81.1583,209.662 80.4916,209.328
              79.5,209.5C 79.1583,208.662 78.4916,208.328 77.5,208.5C 77.5,207.833 77.1667,207.5 76.5,207.5C
              75.7095,206.599 74.7095,205.932 73.5,205.5C 73.5,204.5 73.5,203.5 73.5,202.5C 74.391,203.11 75.391,203.443
              76.5,203.5C 76.5,204.167 76.8333,204.5 77.5,204.5C 77.8417,205.338 78.5084,205.672 79.5,205.5C
              79.9731,206.906 80.9731,207.573 82.5,207.5C 85.2558,209.204 88.2558,210.537 91.5,211.5C 91.8417,212.338
              92.5084,212.672 93.5,212.5C 93.8417,213.338 94.5084,213.672 95.5,213.5C 95.8417,214.338 96.5084,214.672
              97.5,214.5C 97.56,215.043 97.8933,215.376 98.5,215.5C 99.3332,189.173 99.8332,162.84 100,136.5C
              100.5,163.498 100.667,190.498 100.5,217.5 Z"/>
    </g>
</svg>
