<?xml version="1.0" encoding="UTF-8"?>
<!DOCTYPE svg PUBLIC "-//W3C//DTD SVG 1.1//EN" "http://www.w3.org/Graphics/SVG/1.1/DTD/svg11.dtd">
<svg xmlns="http://www.w3.org/2000/svg" version="1.1" width="256px" height="256px"
     style="fill-rule:evenodd; clip-rule:evenodd">
    <g>
        <path fill="#A9B1BF"
              d="M 255.5,113.5 C 255.5,122.833 255.5,132.167 255.5,141.5C 247.181,164.33 232.181,181.497 210.5,193C
              155.167,219 99.8333,219 44.5,193C 22.8186,181.497 7.81856,164.33 -0.5,141.5C -0.5,132.167 -0.5,122.833
              -0.5,113.5C 7.45454,91.3681 21.7879,74.5347 42.5,63C 90.422,39.6169 139.755,36.2835 190.5,53C
              215.979,61.5012 235.812,77.0012 250,99.5C 252.158,104.159 253.991,108.825 255.5,113.5 Z M 112.5,55.5 C
              115.167,55.5 117.833,55.5 120.5,55.5C 110.793,63.2045 104.293,73.2045 101,85.5C 99.4114,91.4429
              98.0781,97.4429 97,103.5C 81.8862,102.9 68.5528,97.5671 57,87.5C 53.3013,81.653 54.1346,76.4864 59.5,72C
              67.6923,66.2659 76.6923,62.2659 86.5,60C 95.2686,58.2516 103.935,56.7516 112.5,55.5 Z M 134.5,55.5 C
              137.167,55.5 139.833,55.5 142.5,55.5C 159.609,56.7631 175.943,61.2631 191.5,69C 195.388,71.2215
              198.221,74.3882 200,78.5C 200.743,81.7829 200.076,84.7829 198,87.5C 186.447,97.5671 173.114,102.9
              158,103.5C 156.193,88.0699 150.86,74.0699 142,61.5C 139.312,59.636 136.812,57.636 134.5,55.5 Z M
              124.5,76.5 C 128.803,75.7962 132.303,77.1295 135,80.5C 140.442,88.3262 143.609,96.9929 144.5,106.5C
              133.167,106.5 121.833,106.5 110.5,106.5C 111.453,94.6017 116.12,84.6017 124.5,76.5 Z M 110.5,194.5 C
              111.203,196.716 112.536,198.549 114.5,200C 112.866,200.494 111.199,200.66 109.5,200.5C 85.1139,197.143
              63.1139,187.976 43.5,173C 24.3381,157.184 16.5047,137.018 20,112.5C 22.3355,104.164 26.0021,96.4969
              31,89.5C 34.1932,100.695 41.0265,108.861 51.5,114C 65.4562,120.819 80.1228,125.319 95.5,127.5C
              94.2517,148.678 97.7517,169.011 106,188.5C 107.277,190.747 108.777,192.747 110.5,194.5 Z M 220.5,164.5 C
              217.167,167.167 214.167,170.167 211.5,173.5C 190.608,189.523 166.941,198.356 140.5,200C 147.105,193.044
              151.605,184.878 154,175.5C 158.462,159.807 160.295,143.807 159.5,127.5C 174.877,125.319 189.544,120.819
              203.5,114C 213.973,108.861 220.807,100.695 224,89.5C 241.391,115.363 240.225,140.363 220.5,164.5 Z M
              108.5,129.5 C 121.167,129.5 133.833,129.5 146.5,129.5C 146.093,143.387 142.593,156.387 136,168.5C
              130.333,176.5 124.667,176.5 119,168.5C 112.407,156.387 108.907,143.387 108.5,129.5 Z"/>
    </g>
    <g>
        <path fill="#A9B1BF"
              d="M 112.5,55.5 C 118.882,54.0888 121.549,54.0888 120.5,55.5C 117.833,55.5 115.167,55.5 112.5,55.5 Z"/>
    </g>
    <g>
        <path fill="#A9B1BF"
              d="M 142.5,55.5 C 139.833,55.5 137.167,55.5 134.5,55.5C 133.451,54.0888 136.118,54.0888 142.5,55.5 Z"/>
    </g>
    <g>
        <path fill="#A9B1BF"
              d="M 220.5,164.5 C 220.938,164.435 221.272,164.601 221.5,165C 218.333,168.167 215.167,171.333 212,174.5C
              211.601,174.272 211.435,173.938 211.5,173.5C 214.167,170.167 217.167,167.167 220.5,164.5 Z"/>
    </g>
    <g>
        <path fill="#A9B1BF"
              d="M 109.5,200.5 C 111.199,200.66 112.866,200.494 114.5,200C 112.536,198.549 111.203,196.716 110.5,194.5C
              112.285,195.747 114.285,197.58 116.5,200C 114.181,201.728 111.847,201.895 109.5,200.5 Z"/>
    </g>
</svg>
