<?xml version="1.0" encoding="UTF-8"?>
<!DOCTYPE svg PUBLIC "-//W3C//DTD SVG 1.1//EN" "http://www.w3.org/Graphics/SVG/1.1/DTD/svg11.dtd">
<svg xmlns="http://www.w3.org/2000/svg" version="1.1" width="256px" height="256px"
     style="fill-rule:evenodd; clip-rule:evenodd">
    <g>
        <path fill="#A9B1BF"
              d="M 107.5,-0.5 C 120.833,-0.5 134.167,-0.5 147.5,-0.5C 195.081,8.90446 228.581,35.9045 248,80.5C
              251.058,89.4846 253.558,98.4846 255.5,107.5C 255.5,120.833 255.5,134.167 255.5,147.5C 246.096,195.081
              219.096,228.581 174.5,248C 165.515,251.058 156.515,253.558 147.5,255.5C 134.167,255.5 120.833,255.5
              107.5,255.5C 59.9185,246.096 26.4185,219.096 7,174.5C 3.94237,165.515 1.44237,156.515 -0.5,147.5C
              -0.5,134.167 -0.5,120.833 -0.5,107.5C 8.90446,59.9185 35.9045,26.4185 80.5,7C 89.4846,3.94237
              98.4846,1.44237 107.5,-0.5 Z M 123.5,11.5 C 173.629,13.1348 210.129,36.1348 233,80.5C 252.907,133.37
              242.074,178.87 200.5,217C 151.833,252.333 103.167,252.333 54.5,217C 14.4659,180.699 2.96592,136.865
              20,85.5C 40.2106,40.7818 74.7106,16.1152 123.5,11.5 Z"/>
    </g>
    <g>
        <path fill="#A9B1BF"
              d="M 121.5,35.5 C 131.963,35.5329 142.296,36.6996 152.5,39C 153.059,39.7247 153.392,40.5581 153.5,41.5C
              145.778,60.6929 137.112,79.3595 127.5,97.5C 117.888,79.3595 109.222,60.6929 101.5,41.5C 101.608,40.5581
              101.941,39.7247 102.5,39C 108.933,37.5968 115.267,36.4302 121.5,35.5 Z"/>
    </g>
    <g>
        <path fill="#A9B1BF"
              d="M 76.5,50.5 C 77.9778,50.238 79.3112,50.5713 80.5,51.5C 91.0973,75.8606 102.097,100.027 113.5,124C
              123.078,124.818 132.578,124.651 142,123.5C 153.108,99.6186 163.941,75.6186 174.5,51.5C 176.55,50.3373
              178.55,50.5039 180.5,52C 187.96,57.126 194.46,63.2927 200,70.5C 201.301,72.3646 201.635,74.3646 201,76.5C
              187.355,106.289 173.855,136.123 160.5,166C 159.216,166.684 158.049,166.517 157,165.5C 152.274,154.381
              147.274,143.381 142,132.5C 132.333,131.167 122.667,131.167 113,132.5C 107.726,143.381 102.726,154.381
              98,165.5C 96.6667,166.833 95.3333,166.833 94,165.5C 80.4972,135.162 66.9972,104.828 53.5,74.5C
              55.0403,70.7865 57.207,67.4532 60,64.5C 65.3976,59.5934 70.8976,54.9268 76.5,50.5 Z"/>
    </g>
    <g>
        <path fill="#A9B1BF"
              d="M 38.5,103.5 C 41.0495,103.561 42.5495,104.894 43,107.5C 56.3924,137.952 70.0591,168.285 84,198.5C
              85.7594,202.009 86.926,205.675 87.5,209.5C 61.3893,197.199 44.8893,176.866 38,148.5C 34.6705,133.457
              34.8372,118.457 38.5,103.5 Z"/>
    </g>
    <g>
        <path fill="#A9B1BF"
              d="M 214.5,103.5 C 224.488,138.37 216.488,168.87 190.5,195C 186.347,198.575 182.014,201.909 177.5,205C
              174.46,207.22 171.127,208.72 167.5,209.5C 182.056,173.718 197.722,138.384 214.5,103.5 Z"/>
    </g>
    <g>
        <path fill="#A9B1BF"
              d="M 126.5,158.5 C 127.496,158.414 128.329,158.748 129,159.5C 137.194,177.083 145.194,194.749 153,212.5C
              153.684,213.784 153.517,214.951 152.5,216C 135.573,220.795 118.74,220.628 102,215.5C 109.267,196.227
              117.434,177.227 126.5,158.5 Z"/>
    </g>
</svg>
