<?xml version="1.0" standalone="no"?>
<!DOCTYPE svg PUBLIC "-//W3C//DTD SVG 20010904//EN"
        "http://www.w3.org/TR/2001/REC-SVG-20010904/DTD/svg10.dtd">
<svg version="1.0" xmlns="http://www.w3.org/2000/svg"
     width="421.000000pt" height="180.000000pt" viewBox="0 0 421.000000 180.000000">

    <g transform="translate(0.000000,180.000000) scale(0.100000,-0.100000)"
       fill="#A9B1BF" stroke="none">
        <path d="M1835 1789 c-755 -41 -1410 -259 -1692 -563 -203 -220 -188 -479 41
-694 567 -530 2144 -694 3226 -335 378 125 663 321 759 522 34 72 36 81 36
181 0 101 -1 108 -38 184 -30 64 -55 96 -125 166 -98 97 -180 154 -332 230
-347 174 -821 282 -1365 310 -211 11 -291 11 -510 -1z m1804 -330 c174 -98
317 -222 365 -316 57 -114 22 -236 -103 -363 -195 -197 -540 -341 -971 -404
-372 -55 -957 -38 -1339 40 -120 24 -297 77 -314 93 -7 7 2264 979 2292 980 8
1 39 -13 70 -30z m-1439 -20 c189 -16 189 -16 99 -74 -856 -554 -1648 -1058
-1661 -1057 -24 1 -172 87 -248 143 -89 65 -176 158 -203 216 -29 65 -28 151
3 217 91 191 433 382 895 501 119 31 308 59 460 69 103 7 513 -3 655 -15z"/>
    </g>
</svg>
